*
G04 Mass Parameters ***
*
G04 Image ***
*
%INC:\USERS\DATOR\ONEDRIVE\DESKTOP\2024_DIZERTATIE_BALTAG_A_FRECVENTMETRU\DISERTATIE_6_IUNIE\SCHEMA_DISERTATIE_CAPTURE_LAYOUT\SWEEP5.BOT*%
%ICAS*%
%MOIN*%
%IPPOS*%
%ASAXBY*%
G74*%FSLAN2X34Y34*%
*
G04 Aperture Definitions ***
*
%ADD10C,0.0709*%
%ADD11C,0.0472*%
%ADD12C,0.0354*%
%ADD13C,0.0394*%
%ADD14C,0.0984*%
%ADD15C,0.0472*%
%ADD16C,0.0630*%
%ADD17C,0.0276*%
%ADD18C,0.0236*%
*
G04 Plot Data ***
*
G54D18*
G01X-0111747Y0017232D02*
Y0017953D01*
X-0111855D01*
Y0020198D01*
X-0111937D01*
Y0020807D01*
X-0111855Y0020890D01*
X-0111937D01*
X-0081751Y0034198D02*
Y0034135D01*
X-0082342Y0033545D01*
X-0082444D01*
Y0027757D01*
X-0103705D01*
X-0103941Y0027521D01*
Y0018544D01*
X-0104630Y0017838D01*
X-0082853Y0043936D02*
X-0082260Y0044529D01*
X-0082208D01*
X-0081735Y0045002D01*
X-0076656D01*
X-0076184Y0044529D01*
X-0071135D01*
X-0070542Y0043937D01*
X-0044191Y0044529D02*
X-0044884Y0045120D01*
X-0050081D01*
X-0050553Y0044647D01*
X-0056066D01*
X-0056658Y0044054D01*
X-0139259Y0071505D02*
Y0070751D01*
X-0137131D01*
X-0136895Y0070514D01*
Y0069148D01*
X-0136251D01*
X-0082540Y0069001D02*
Y0069688D01*
X-0082444D01*
Y0072759D01*
X-0082208Y0072995D01*
X-0081316D01*
Y0073713D01*
X-0078565Y0033079D02*
X-0079163Y0032482D01*
X-0079491D01*
X-0079727Y0032245D01*
Y0027757D01*
X-0079964Y0027521D01*
X-0082208D01*
X-0082444Y0027757D01*
Y0033545D01*
X-0082342D01*
X-0081751Y0034135D01*
Y0034198D01*
X-0141790Y0020393D02*
X-0141029Y0021143D01*
X-0134060D01*
X-0133824Y0020906D01*
Y0020354D01*
X-0133128D01*
X-0132535Y0073454D02*
Y0072759D01*
X-0132653Y0072640D01*
X-0132761D01*
Y0070042D01*
X-0132997Y0069806D01*
X-0133144D01*
X-0133262Y0069688D01*
Y0069148D01*
X-0133128Y0014354D02*
X-0133824D01*
Y0014410D01*
X-0135005D01*
X-0140202Y0019607D01*
X-0140295D01*
Y0020393D01*
X-0132279Y0069109D02*
X-0131698D01*
X-0131580Y0069227D01*
Y0070514D01*
X-0131343Y0070751D01*
X-0130259D01*
Y0071505D01*
X-0107698Y0019827D02*
X-0108311D01*
Y0019843D01*
X-0109374D01*
X-0111264Y0017953D01*
X-0111747D01*
Y0017232D01*
X-0078565Y0030079D02*
X-0077956D01*
Y0030119D01*
X-0076893Y0031182D01*
Y0039450D01*
X-0076656Y0039686D01*
X-0074530D01*
Y0043230D01*
X-0074542D01*
Y0043937D01*
X-0084965Y0047909D02*
Y0047836D01*
X-0085042D01*
X-0085397Y0048191D01*
Y0050671D01*
X-0085633Y0050907D01*
Y0055278D01*
X-0089767Y0059412D01*
Y0077129D01*
X-0089531Y0077365D01*
X-0088940D01*
Y0077461D01*
X-0088114D01*
X-0057303Y0033962D02*
X-0057404D01*
Y0033899D01*
X-0057758D01*
X-0057994Y0034135D01*
Y0035434D01*
X-0057758Y0035671D01*
X-0056695D01*
X-0054805Y0033781D01*
Y0032843D01*
X-0054117D01*
X-0087228Y0016794D02*
X-0087287D01*
X-0087405Y0016676D01*
Y0016654D01*
X-0090830Y0013229D01*
X-0105004D01*
X-0105240Y0013465D01*
Y0018308D01*
X-0104630Y0018900D01*
X-0098477Y0054387D02*
X-0099216D01*
Y0053624D01*
X-0099689Y0053152D01*
Y0047482D01*
X-0099452Y0047246D01*
X-0092720D01*
X-0092122Y0047870D01*
X-0044887Y0069502D02*
Y0070160D01*
X-0044884D01*
X-0044647Y0070396D01*
Y0072640D01*
X-0044411Y0072877D01*
X-0043825D01*
X-0043707Y0072995D01*
Y0073672D01*
X-0058833Y0063186D02*
Y0062483D01*
X-0058821D01*
X-0058585Y0062246D01*
Y0059057D01*
X-0058467Y0058939D01*
X-0058417D01*
Y0058174D01*
X-0095044Y0043936D02*
X-0094374Y0044529D01*
Y0044765D01*
X-0094137Y0045002D01*
X-0090830D01*
X-0090358Y0044529D01*
X-0083507D01*
X-0082853Y0043936D01*
X-0111937Y0020890D02*
Y0020807D01*
X-0111855Y0020890D01*
X-0111937D01*
X-0098044Y0043936D02*
X-0098153Y0044529D01*
X-0098271D01*
X-0099689Y0045947D01*
X-0106185D01*
X-0106421Y0045710D01*
Y0044765D01*
X-0106185Y0044529D01*
X-0104413D01*
X-0104177Y0044293D01*
Y0043348D01*
X-0104413Y0043112D01*
X-0105240D01*
X-0105476Y0042876D01*
Y0033545D01*
X-0109610Y0029411D01*
X-0109847D01*
Y0029315D01*
X-0110455D01*
X-0057303Y0033962D02*
X-0057404D01*
Y0033899D01*
X-0057286D01*
X-0055750Y0032363D01*
Y0027048D01*
X-0055986Y0026812D01*
X-0058230D01*
X-0058703Y0027284D01*
X-0077011D01*
X-0077365Y0026930D01*
X-0079491D01*
Y0027048D01*
X-0079964Y0027521D01*
X-0079727Y0027757D01*
Y0032245D01*
X-0079491Y0032482D01*
X-0079163D01*
X-0078565Y0033079D01*
X-0110455Y0033315D02*
X-0111146Y0032718D01*
Y0031537D01*
X-0111618Y0031064D01*
Y0027993D01*
X-0111855Y0027757D01*
X-0114099D01*
X-0114335Y0027993D01*
Y0034435D01*
X-0113641D01*
X-0042820Y0054860D02*
Y0054096D01*
X-0042876D01*
X-0042994Y0053978D01*
Y0053506D01*
X-0043112Y0053388D01*
Y0049254D01*
X-0043230Y0049136D01*
X-0043274D01*
Y0048502D01*
X-0085350Y0079669D02*
X-0086106D01*
Y0079609D01*
X-0087995D01*
X-0090240Y0077365D01*
Y0058939D01*
X-0086342Y0055041D01*
Y0049844D01*
X-0086106Y0049608D01*
Y0048663D01*
X-0085987Y0048545D01*
X-0085948D01*
Y0047909D01*
X-0107698Y0015827D02*
Y0016827D01*
X-0078565Y0031079D02*
Y0032079D01*
X-0087228Y0017817D02*
X-0086578Y0017127D01*
Y0014749D01*
X-0087188D01*
X-0057303Y0031962D02*
X-0057185Y0032080D01*
Y0032836D01*
X-0057303Y0032954D01*
Y0032962D01*
X-0080114Y0060461D02*
Y0061183D01*
X-0080790D01*
X-0081027Y0061420D01*
Y0062128D01*
X-0081263Y0062364D01*
X-0082530D01*
Y0063000D01*
X-0054117Y0030843D02*
Y0031843D01*
X-0104591Y0016855D02*
X-0103941D01*
Y0017245D01*
X-0096736Y0024450D01*
X-0082798D01*
X-0082562Y0024213D01*
Y0021615D01*
X-0082326Y0021379D01*
X-0071932D01*
X-0071696Y0021143D01*
Y0020781D01*
X-0071011D01*
X-0058417Y0052353D02*
X-0057640D01*
Y0052325D01*
X-0057404Y0052089D01*
X-0055278D01*
X-0055041Y0051852D01*
Y0048191D01*
X-0054805Y0047955D01*
X-0054719D01*
Y0048027D01*
X-0041466Y0077563D02*
X-0041340D01*
Y0077601D01*
X-0040513D01*
X-0040277Y0077365D01*
Y0066735D01*
X-0041576Y0065435D01*
Y0057404D01*
X-0044057Y0054923D01*
Y0049490D01*
X-0044175Y0049372D01*
Y0049136D01*
X-0044257D01*
Y0048463D01*
X-0070542Y0043937D02*
X-0069950Y0044529D01*
X-0065199D01*
X-0064609Y0045120D01*
X-0059766D01*
X-0059294Y0044647D01*
X-0057251D01*
X-0056658Y0044054D01*
X-0130413Y0030317D02*
X-0130280D01*
Y0030355D01*
X-0130044D01*
X-0129808Y0030119D01*
Y0027875D01*
X-0130044Y0027639D01*
X-0132288D01*
X-0132525Y0027875D01*
Y0030592D01*
X-0136068Y0034135D01*
Y0043702D01*
X-0136155D01*
Y0044330D01*
X-0041466Y0071742D02*
X-0041576D01*
Y0071932D01*
X-0041813Y0072168D01*
X-0043112D01*
X-0043348Y0071932D01*
Y0070396D01*
X-0043584Y0070160D01*
X-0043786D01*
X-0043904Y0070042D01*
Y0069463D01*
X-0107698Y0015827D03*
X-0107935Y0015591D01*
X-0108311D01*
Y0014292D01*
X-0108547Y0014056D01*
X-0110673D01*
X-0110910Y0013819D01*
Y0013711D01*
X-0111649D01*
X-0081751Y0032198D02*
Y0033198D01*
X-0071537Y0063029D02*
Y0062483D01*
X-0071419Y0062364D01*
X-0071341D01*
Y0058821D01*
X-0071105Y0058585D01*
X-0071003D01*
Y0057781D01*
X-0110455Y0031315D02*
X-0109847Y0031924D01*
Y0032079D01*
X-0110083Y0032315D01*
X-0110455D01*
X-0117569Y0017271D02*
X-0116815D01*
Y0016772D01*
X-0116579Y0016536D01*
X-0110201D01*
X-0108547Y0018190D01*
X-0108311D01*
X-0107698Y0018827D01*
X-0110136Y0062911D02*
Y0062364D01*
X-0110254Y0062246D01*
X-0110437D01*
X-0110673Y0062010D01*
Y0061183D01*
X-0110910Y0060947D01*
X-0111312D01*
Y0060209D01*
X-0131259Y0060327D02*
Y0061065D01*
X-0131462D01*
X-0131698Y0061301D01*
Y0063546D01*
X-0131934Y0063782D01*
X-0132643D01*
X-0133251Y0063147D01*
X-0117470Y0013751D02*
X-0118233D01*
Y0013938D01*
X-0118469Y0014174D01*
Y0014414D01*
X-0119098D01*
X-0078565Y0029079D02*
X-0077956D01*
Y0029174D01*
X-0074294D01*
X-0074058Y0029411D01*
Y0038978D01*
X-0073467Y0039568D01*
Y0043230D01*
X-0073542D01*
Y0043937D01*
X-0133128Y0019354D03*
X-0113641Y0030435D02*
X-0113036Y0031064D01*
X-0112918Y0031182D01*
Y0031537D01*
X-0112091Y0032363D01*
Y0038742D01*
X-0111618Y0039214D01*
Y0042521D01*
X-0110910Y0043230D01*
X-0110787D01*
Y0043936D01*
X-0081853D02*
X-0081145Y0044529D01*
X-0079491D01*
X-0079255Y0044293D01*
Y0034726D01*
X-0078664Y0034135D01*
X-0078565D01*
Y0034079D01*
X-0110455Y0031315D02*
X-0111061Y0030710D01*
X-0111146D01*
Y0027875D01*
X-0110910Y0027639D01*
X-0104650D01*
X-0104413Y0027875D01*
Y0033781D01*
X-0098508Y0039686D01*
Y0042049D01*
X-0098271Y0042285D01*
X-0094374D01*
X-0093429Y0043230D01*
X-0093044D01*
Y0043936D01*
X-0130413Y0032317D02*
X-0130294Y0032435D01*
Y0033190D01*
X-0130413Y0033308D01*
Y0033317D01*
X-0056725Y0047988D02*
Y0048663D01*
X-0056813D01*
X-0059175Y0051025D01*
Y0052915D01*
X-0056813Y0055278D01*
X-0053033D01*
X-0052797Y0055514D01*
Y0077129D01*
X-0053033Y0077365D01*
X-0053860D01*
Y0077461D01*
X-0054003D01*
X-0127227Y0031197D02*
Y0031891D01*
X-0127209D01*
X-0126973Y0032127D01*
Y0032197D01*
X-0127227D01*
X-0072537Y0069030D02*
X-0073113D01*
X-0073231Y0069148D01*
Y0069451D01*
X-0075239Y0071459D01*
Y0071505D01*
X-0075969D01*
X-0104312Y0071387D02*
Y0070633D01*
X-0104886D01*
X-0105122Y0070869D01*
Y0080318D01*
X-0105358Y0080554D01*
X-0107366D01*
X-0107602Y0080318D01*
Y0075830D01*
X-0106185Y0074412D01*
Y0069569D01*
X-0106163D01*
Y0068873D01*
X-0109152D02*
Y0069569D01*
X-0109138D01*
Y0072404D01*
X-0110201Y0073467D01*
Y0073949D01*
X-0110919D01*
X-0069547Y0069030D02*
Y0069688D01*
X-0069451D01*
Y0072759D01*
X-0069333Y0072877D01*
X-0069245D01*
Y0073673D01*
X-0110919Y0079770D02*
X-0111736D01*
Y0079727D01*
X-0114807D01*
X-0115044Y0079491D01*
Y0076656D01*
X-0115634Y0076066D01*
Y0051498D01*
X-0113508Y0049372D01*
Y0048781D01*
X-0113272Y0048545D01*
X-0111500D01*
X-0110883Y0047909D01*
X-0127227Y0034197D02*
Y0034135D01*
X-0127446D01*
X-0128391Y0035080D01*
Y0043466D01*
X-0128627Y0043702D01*
X-0131462D01*
X-0132155Y0044330D01*
X-0094044Y0043936D02*
X-0094728Y0043230D01*
X-0095200Y0042757D01*
X-0103941D01*
X-0104059Y0042639D01*
X-0104650D01*
X-0104886Y0042403D01*
Y0039450D01*
X-0105004Y0039332D01*
Y0033190D01*
X-0109847Y0028347D01*
Y0028315D01*
X-0110455D01*
X-0047404Y0073790D02*
Y0073113D01*
X-0047286Y0072995D01*
X-0047246D01*
Y0070396D01*
X-0047010Y0070160D01*
X-0046893D01*
Y0069463D01*
X-0095623Y0051487D02*
X-0094846D01*
Y0049608D01*
X-0093783Y0048545D01*
X-0093105D01*
Y0047909D01*
X-0120911Y0047869D02*
Y0048545D01*
X-0120831D01*
X-0120595Y0048781D01*
Y0049254D01*
X-0122012Y0050671D01*
Y0053742D01*
X-0120359Y0055396D01*
X-0116343D01*
X-0116107Y0055160D01*
Y0076656D01*
X-0116343Y0076893D01*
X-0117524D01*
Y0076972D01*
X-0118282D01*
X-0119614Y0068754D02*
Y0069333D01*
X-0119496Y0069451D01*
X-0119296D01*
X-0119059Y0069688D01*
Y0071151D01*
X-0118282D01*
X-0059833Y0069187D02*
X-0060475D01*
Y0070514D01*
X-0060711Y0070751D01*
X-0062970D01*
Y0071505D01*
X-0048820Y0054860D02*
Y0054096D01*
X-0048781D01*
Y0048073D01*
X-0048545Y0047836D01*
X-0044884D01*
Y0047600D01*
X-0044647Y0047364D01*
X-0042167D01*
X-0041931Y0047600D01*
Y0047836D01*
X-0041268Y0048463D01*
X-0054003Y0071640D02*
Y0070869D01*
X-0054215D01*
X-0054451Y0070633D01*
Y0070042D01*
X-0054687Y0069806D01*
X-0055742D01*
X-0055860Y0069688D01*
Y0069148D01*
X-0117470Y0013751D02*
X-0116697D01*
Y0014292D01*
X-0116461Y0014528D01*
X-0110319D01*
X-0108311Y0016536D01*
Y0017127D01*
X-0107698Y0017827D01*
X-0117569Y0017271D02*
X-0118351D01*
Y0016654D01*
X-0118469Y0016536D01*
Y0016381D01*
X-0119098D01*
X-0059833Y0063186D02*
Y0062601D01*
X-0059951Y0062483D01*
X-0060238D01*
X-0060475Y0062246D01*
Y0061420D01*
X-0060711Y0061183D01*
X-0062003D01*
Y0060461D01*
X-0088114Y0071640D02*
Y0070869D01*
X-0086460D01*
X-0086224Y0070633D01*
Y0069119D01*
X-0086106Y0069001D01*
X-0085530D01*
X-0045319Y0048463D02*
Y0049136D01*
X-0045238D01*
X-0045002Y0049372D01*
Y0057286D01*
X-0042049Y0060238D01*
Y0070160D01*
X-0040750Y0071459D01*
Y0072168D01*
X-0042994Y0074412D01*
Y0078546D01*
X-0043230Y0078782D01*
X-0043707D01*
Y0079493D01*
X-0093459Y0068833D02*
Y0069451D01*
X-0093074D01*
X-0092838Y0069688D01*
Y0070514D01*
X-0092602Y0070751D01*
X-0091510D01*
Y0071522D01*
X-0094432Y0062871D02*
Y0062246D01*
X-0094374D01*
X-0094137Y0062010D01*
Y0061301D01*
X-0093901Y0061065D01*
X-0092510D01*
Y0060343D01*
X-0056450Y0073435D02*
Y0072759D01*
X-0056568Y0072640D01*
X-0056577D01*
Y0070042D01*
X-0056813Y0069806D01*
X-0056843D01*
Y0069187D01*
X-0081557Y0068962D02*
Y0069569D01*
X-0080908D01*
X-0080672Y0069806D01*
Y0070633D01*
X-0080436Y0070869D01*
X-0079114D01*
Y0071640D01*
X-0072537Y0063029D02*
Y0062483D01*
X-0072655Y0062364D01*
X-0072995D01*
X-0073231Y0062128D01*
Y0061301D01*
X-0073467Y0061065D01*
X-0073969D01*
Y0060327D01*
X-0119845Y0043936D02*
X-0120438Y0044529D01*
X-0125674D01*
X-0125910Y0044293D01*
Y0034726D01*
X-0126146Y0034489D01*
Y0029056D01*
X-0126383Y0028820D01*
X-0126619D01*
X-0127227Y0028197D01*
X-0123586Y0068794D02*
X-0124138D01*
X-0124257Y0068912D01*
Y0070160D01*
X-0124493Y0070396D01*
X-0126282D01*
Y0071151D01*
X-0044876Y0063501D02*
X-0044175Y0064136D01*
X-0043466D01*
X-0043230Y0063900D01*
Y0061656D01*
X-0042994Y0061420D01*
X-0042820D01*
Y0060681D01*
X-0113641Y0031435D02*
X-0113036Y0032127D01*
Y0032245D01*
X-0112563Y0032718D01*
Y0039450D01*
X-0112327Y0039686D01*
X-0112091D01*
Y0042994D01*
X-0111855Y0043230D01*
X-0111787D01*
Y0043936D01*
X-0047876Y0063501D02*
Y0062955D01*
X-0047995Y0062837D01*
X-0048073D01*
Y0061656D01*
X-0048309Y0061420D01*
X-0048820D01*
Y0060681D01*
X-0071553Y0068991D02*
Y0069569D01*
X-0071672Y0069688D01*
X-0071814D01*
X-0073113Y0070987D01*
Y0072759D01*
X-0073231Y0072877D01*
X-0073245D01*
Y0073673D01*
X-0069245Y0079495D02*
Y0078782D01*
X-0069806D01*
X-0070042Y0078546D01*
Y0076184D01*
X-0070278Y0075948D01*
X-0076420D01*
X-0076656Y0075711D01*
Y0065790D01*
X-0076538Y0065672D01*
Y0060238D01*
X-0072168Y0055868D01*
Y0048427D01*
X-0072050Y0048309D01*
X-0072025D01*
X-0071671Y0047955D01*
Y0047870D01*
X-0057303Y0028962D02*
X-0057994Y0029647D01*
X-0058467Y0030119D01*
Y0035907D01*
X-0055278Y0039096D01*
Y0043112D01*
X-0055514Y0043348D01*
X-0055658D01*
Y0044054D01*
X-0084120Y0016821D02*
X-0083507Y0017481D01*
X-0083271D01*
X-0083035Y0017717D01*
Y0023741D01*
X-0083271Y0023977D01*
X-0092956D01*
X-0093192Y0023741D01*
Y0016182D01*
X-0093429Y0015945D01*
X-0103941D01*
Y0015832D01*
X-0104591D01*
X-0136535Y0073454D02*
Y0072640D01*
X-0136422D01*
Y0070042D01*
X-0136186Y0069806D01*
X-0135386D01*
X-0135268Y0069688D01*
Y0069109D01*
X-0084120Y0015821D02*
X-0084216D01*
Y0015827D01*
X-0084806Y0016418D01*
Y0017135D01*
X-0084120Y0017821D01*
X-0068003Y0060461D02*
Y0061183D01*
X-0067916D01*
Y0063428D01*
X-0068152Y0063664D01*
X-0068861D01*
X-0069537Y0063029D01*
X-0054117Y0029843D02*
X-0053506D01*
Y0030237D01*
X-0050553Y0033190D01*
Y0039450D01*
X-0050317Y0039686D01*
X-0048191D01*
Y0044529D01*
X-0060088Y0073319D02*
Y0072522D01*
X-0060002D01*
Y0070042D01*
X-0059766Y0069806D01*
X-0058968D01*
X-0058849Y0069688D01*
Y0069148D01*
X-0054117Y0033843D02*
Y0033781D01*
X-0054096D01*
X-0055041Y0034726D01*
Y0035671D01*
X-0056872Y0037501D01*
X-0055278Y0039096D01*
Y0043112D01*
X-0055514Y0043348D01*
X-0055658D01*
Y0044054D01*
X-0087188Y0014749D02*
X-0086578D01*
Y0013465D01*
X-0085869Y0012756D01*
X-0083389D01*
X-0082916Y0013229D01*
X-0077365D01*
X-0077011Y0013583D01*
X-0071932D01*
X-0071696Y0013819D01*
Y0015119D01*
X-0071038Y0015781D01*
X-0046876Y0063501D02*
Y0062955D01*
X-0046758Y0062837D01*
X-0046655D01*
X-0046419Y0062601D01*
Y0058939D01*
X-0046183Y0058703D01*
X-0045831D01*
X-0045713Y0058585D01*
Y0057899D01*
X-0072654Y0047909D02*
Y0048545D01*
X-0072640D01*
Y0055396D01*
X-0077601Y0060357D01*
Y0077011D01*
X-0077365Y0077247D01*
X-0076774D01*
Y0077327D01*
X-0075969D01*
X-0122586Y0062792D02*
Y0062246D01*
X-0122468Y0062128D01*
X-0122367D01*
X-0122130Y0061892D01*
Y0058939D01*
X-0121894Y0058703D01*
X-0121305D01*
Y0057938D01*
X-0124282Y0054151D02*
X-0124965D01*
X-0125083Y0054033D01*
Y0053506D01*
X-0125438Y0053152D01*
Y0047482D01*
X-0125201Y0047246D01*
X-0118587D01*
X-0117922Y0047869D01*
X-0068003Y0054640D02*
Y0053860D01*
X-0068743D01*
X-0068979Y0053624D01*
Y0048781D01*
X-0069215Y0048545D01*
X-0069626D01*
Y0047909D01*
X-0113641Y0032435D02*
X-0113036Y0033072D01*
Y0033435D01*
X-0113641D01*
X-0046303Y0048502D02*
Y0049136D01*
X-0046419D01*
Y0055514D01*
X-0049490Y0058585D01*
Y0061183D01*
X-0049372Y0061301D01*
Y0071223D01*
X-0049490Y0071341D01*
Y0076656D01*
X-0049726Y0076893D01*
X-0050381D01*
X-0050499Y0077011D01*
Y0077698D01*
X-0071003Y0051959D02*
Y0052679D01*
X-0070514D01*
X-0070278Y0052915D01*
Y0055160D01*
X-0070042Y0055396D01*
X-0067562D01*
X-0067325Y0055160D01*
Y0049372D01*
X-0068506Y0048191D01*
Y0047909D01*
X-0068603D01*
X-0083510Y0052195D02*
X-0082798D01*
Y0049726D01*
X-0081617Y0048545D01*
X-0080913D01*
Y0047909D01*
X-0092510Y0054522D02*
Y0053742D01*
X-0094374D01*
X-0096381Y0051734D01*
Y0051262D01*
X-0095555Y0050435D01*
Y0049254D01*
X-0094846Y0048545D01*
X-0094728D01*
X-0094128Y0047909D01*
X-0108484Y0051881D02*
Y0051144D01*
X-0107720D01*
X-0107484Y0050907D01*
Y0048781D01*
X-0107248Y0048545D01*
X-0106539D01*
X-0105848Y0047909D01*
X-0123940D02*
Y0048545D01*
X-0123784D01*
X-0123548Y0048781D01*
Y0055632D01*
X-0122012Y0057167D01*
X-0117760D01*
X-0117524Y0057404D01*
Y0071577D01*
X-0123430Y0077483D01*
Y0078192D01*
X-0123666Y0078428D01*
X-0123822D01*
Y0079178D01*
X-0107146Y0068912D02*
Y0069451D01*
X-0107028Y0069569D01*
X-0107012D01*
Y0073231D01*
X-0106919D01*
Y0073949D01*
X-0047191Y0044529D02*
Y0043939D01*
X-0047128D01*
Y0039686D01*
X-0048309Y0038505D01*
Y0029174D01*
X-0048545Y0028938D01*
X-0053506D01*
Y0028843D01*
X-0054117D01*
X-0127227Y0030197D02*
X-0127918Y0029529D01*
Y0027993D01*
X-0126855Y0026930D01*
X-0126146D01*
X-0125910Y0027166D01*
Y0027521D01*
X-0125674Y0027757D01*
Y0034017D01*
X-0125438Y0034253D01*
Y0043936D01*
X-0124845D01*
X-0098140Y0047909D02*
Y0048545D01*
X-0098153D01*
X-0098271Y0048663D01*
Y0053506D01*
X-0097799Y0053978D01*
Y0054687D01*
X-0102642Y0059530D01*
Y0077365D01*
X-0100516Y0079491D01*
X-0098271D01*
Y0079511D01*
X-0097510D01*
X-0111312Y0054387D02*
X-0110555D01*
Y0054333D01*
X-0107957D01*
X-0105004Y0051380D01*
Y0048663D01*
X-0104886Y0048545D01*
X-0104865D01*
Y0047870D01*
X-0137259Y0054505D02*
Y0053742D01*
X-0137603D01*
X-0137840Y0053506D01*
Y0047836D01*
X-0137603Y0047600D01*
X-0130871D01*
X-0130232Y0048263D01*
X-0131259Y0054505D02*
Y0054333D01*
X-0131343D01*
X-0131580Y0054096D01*
Y0049136D01*
X-0131816Y0048899D01*
X-0132238D01*
Y0048302D01*
X-0084120Y0018821D02*
X-0084806Y0018190D01*
X-0085042D01*
X-0085279Y0017953D01*
Y0015709D01*
X-0085042Y0015473D01*
X-0084806D01*
X-0084120Y0014821D01*
X-0132155Y0044330D02*
X-0131462Y0043702D01*
X-0128627D01*
X-0128391Y0043466D01*
Y0035080D01*
X-0129335Y0036025D01*
X-0130871D01*
X-0131107Y0035789D01*
Y0030001D01*
X-0130413Y0029317D01*
X-0069542Y0043937D02*
Y0043230D01*
X-0069451D01*
Y0039686D01*
X-0069924D01*
X-0073231Y0036379D01*
Y0028584D01*
X-0073467Y0028347D01*
X-0077719D01*
X-0077956Y0028111D01*
Y0028079D01*
X-0078565D01*
X-0073969Y0054505D02*
X-0074648D01*
X-0074767Y0054387D01*
Y0053978D01*
X-0075239Y0053506D01*
Y0047482D01*
X-0075003Y0047246D01*
X-0068270D01*
X-0067620Y0047870D01*
X-0043191Y0044529D02*
Y0043939D01*
X-0043112D01*
Y0039686D01*
X-0043584D01*
X-0046891Y0036379D01*
Y0028229D01*
X-0047128Y0027993D01*
X-0053388D01*
X-0053506Y0027875D01*
Y0027843D01*
X-0054117D01*
X-0136250Y0048302D02*
Y0048899D01*
X-0136304D01*
Y0049608D01*
X-0136540Y0049844D01*
Y0055041D01*
X-0140438Y0058939D01*
Y0076420D01*
X-0139966Y0076893D01*
Y0079019D01*
X-0139730Y0079255D01*
X-0137249D01*
Y0079275D01*
X-0136535D01*
X-0120586Y0062792D02*
X-0119886Y0063428D01*
X-0119178D01*
X-0118941Y0063191D01*
Y0060238D01*
X-0118705Y0060002D01*
X-0118282D01*
Y0059972D01*
X-0060658Y0044054D02*
Y0043348D01*
X-0060711D01*
Y0033663D01*
X-0059175Y0032127D01*
Y0029883D01*
X-0058112Y0028820D01*
Y0027639D01*
X-0057758Y0027284D01*
X-0056459D01*
X-0056223Y0027521D01*
Y0029824D01*
X-0056695Y0030296D01*
Y0030355D01*
X-0057303Y0030962D01*
X-0081751Y0035198D02*
X-0082444D01*
X-0083271D01*
X-0085515Y0032954D01*
X-0090830D01*
X-0091066Y0033190D01*
Y0044293D01*
X-0091303Y0044529D01*
X-0093429D01*
X-0094044Y0043936D01*
X-0131215Y0048302D02*
Y0048427D01*
X-0131107D01*
Y0053506D01*
X-0130517Y0054096D01*
Y0055041D01*
X-0130753Y0055278D01*
X-0132406D01*
X-0132643Y0055041D01*
Y0052915D01*
X-0132879Y0052679D01*
X-0133942D01*
Y0052589D01*
X-0134009D01*
X-0054117Y0030843D02*
X-0054722Y0030237D01*
X-0054805D01*
Y0027403D01*
X-0054569Y0027166D01*
X-0043584D01*
X-0043348Y0027403D01*
Y0037915D01*
X-0042049Y0039214D01*
Y0043821D01*
X-0042167Y0043939D01*
X-0042191D01*
Y0044529D01*
X-0120597Y0068794D02*
Y0069333D01*
X-0120479Y0069451D01*
X-0120477D01*
Y0072759D01*
X-0120518D01*
Y0073474D01*
X-0111229Y0020890D02*
X-0110555D01*
Y0020906D01*
X-0107248D01*
X-0107012Y0020670D01*
Y0017481D01*
X-0107045D01*
X-0107698Y0016827D01*
X-0059754Y0048027D02*
Y0048663D01*
X-0060475D01*
X-0060711Y0048899D01*
Y0055632D01*
X-0060947Y0055868D01*
X-0062010D01*
X-0064136Y0057994D01*
Y0076538D01*
X-0063664Y0077011D01*
Y0078901D01*
X-0063428Y0079137D01*
X-0060829D01*
Y0079141D01*
X-0060088D01*
X-0124282Y0059972D02*
Y0060711D01*
X-0123902D01*
X-0123666Y0060947D01*
Y0062128D01*
X-0123586D01*
Y0062792D01*
X-0136251Y0063147D02*
Y0062601D01*
X-0136369Y0062483D01*
X-0136422D01*
X-0136659Y0062246D01*
Y0061301D01*
X-0136895Y0061065D01*
X-0137259D01*
Y0060327D01*
X-0067003Y0071640D02*
Y0070869D01*
X-0067562D01*
X-0067798Y0070633D01*
Y0069924D01*
X-0068034Y0069688D01*
X-0068446D01*
X-0068564Y0069569D01*
Y0068991D01*
X-0081751Y0033198D02*
X-0081145Y0033805D01*
Y0033899D01*
X-0081027Y0034017D01*
Y0039214D01*
X-0080672Y0039568D01*
Y0043112D01*
X-0080790Y0043230D01*
X-0080853D01*
Y0043936D01*
X-0091510Y0077343D02*
X-0092247D01*
Y0077247D01*
X-0096027D01*
X-0101224Y0072050D01*
Y0061892D01*
X-0096381Y0057049D01*
Y0052561D01*
X-0096854Y0052089D01*
Y0050789D01*
X-0096027Y0049962D01*
Y0048781D01*
X-0095200Y0047955D01*
Y0047870D01*
X-0095111D01*
X-0062003Y0054640D02*
Y0053860D01*
X-0061892D01*
X-0061774Y0053742D01*
Y0047128D01*
X-0061538Y0046891D01*
X-0054569D01*
X-0054333Y0047128D01*
Y0047364D01*
X-0053736Y0047988D01*
X-0073245Y0079495D02*
X-0074058D01*
Y0079491D01*
X-0075830D01*
X-0078074Y0077247D01*
Y0056931D01*
X-0077838Y0056695D01*
X-0074885D01*
X-0073231Y0055041D01*
Y0048781D01*
X-0073467Y0048545D01*
X-0073638D01*
Y0047909D01*
X-0133221Y0048263D02*
Y0048899D01*
X-0133115D01*
Y0050317D01*
X-0134769Y0051970D01*
Y0053033D01*
X-0134533Y0053270D01*
X-0133351D01*
X-0133115Y0053506D01*
Y0055514D01*
X-0129099Y0059530D01*
Y0077011D01*
X-0129335Y0077247D01*
X-0130162D01*
Y0077327D01*
X-0130259D01*
X-0096432Y0062871D02*
Y0062246D01*
X-0096263D01*
X-0096027Y0062010D01*
Y0058349D01*
X-0095791Y0058112D01*
X-0095741D01*
X-0095623Y0057994D01*
Y0057309D01*
X-0126282Y0076972D02*
Y0077719D01*
X-0125792D01*
X-0125556Y0077956D01*
Y0079727D01*
X-0125320Y0079964D01*
X-0123194D01*
X-0119532Y0076302D01*
Y0074648D01*
X-0117052Y0072168D01*
Y0056931D01*
X-0117288Y0056695D01*
X-0121422D01*
X-0122957Y0055160D01*
Y0048545D01*
Y0047909D01*
X-0104312Y0077209D02*
X-0104177D01*
Y0077247D01*
X-0103823D01*
X-0103586Y0077011D01*
Y0068034D01*
X-0103823Y0067798D01*
X-0111264D01*
X-0112091Y0068625D01*
Y0053624D01*
X-0108784Y0050317D01*
Y0048781D01*
X-0108547Y0048545D01*
X-0107854Y0047870D01*
X-0081936Y0047909D02*
X-0082562Y0048545D01*
X-0082680D01*
X-0083271Y0049136D01*
Y0050907D01*
X-0084216Y0051852D01*
Y0052443D01*
X-0082798Y0053860D01*
X-0081145D01*
X-0080908Y0054096D01*
Y0054522D01*
X-0080790Y0054640D01*
X-0080114D01*
X-0087188Y0018800D02*
X-0086578Y0018190D01*
X-0086342D01*
X-0086106Y0017953D01*
Y0013938D01*
X-0085397Y0013229D01*
X-0083861D01*
X-0082562Y0014528D01*
Y0021143D01*
X-0082326Y0021379D01*
X-0071932D01*
X-0071696Y0021143D01*
Y0020781D01*
X-0071011D01*
X-0097432Y0062871D02*
Y0062246D01*
X-0097445D01*
X-0097563Y0062128D01*
Y0061183D01*
X-0097799Y0060947D01*
X-0098477D01*
Y0060209D01*
X-0096173Y0047870D02*
Y0047955D01*
X-0096263D01*
X-0096500Y0048191D01*
Y0049490D01*
X-0097326Y0050317D01*
Y0052561D01*
X-0096854Y0053033D01*
Y0055750D01*
X-0101697Y0060593D01*
Y0072404D01*
X-0095318Y0078782D01*
X-0094492D01*
X-0094255Y0079019D01*
Y0079511D01*
X-0093510D01*
X-0118905Y0047909D02*
X-0118233Y0048545D01*
X-0117760D01*
X-0117524Y0048781D01*
Y0054687D01*
X-0117760Y0054923D01*
X-0118469D01*
X-0120241Y0053152D01*
Y0052443D01*
X-0120477Y0052207D01*
X-0120595D01*
Y0052116D01*
X-0121305D01*
X-0062970Y0077327D02*
Y0076656D01*
X-0063088Y0076538D01*
X-0063191D01*
X-0063664Y0076066D01*
Y0060002D01*
X-0059175Y0055514D01*
Y0054805D01*
X-0060120Y0053860D01*
Y0049844D01*
X-0058939Y0048663D01*
X-0058770D01*
Y0048027D01*
X-0054970Y0054505D02*
X-0054215D01*
Y0053978D01*
X-0053978Y0053742D01*
X-0053270D01*
X-0053033Y0053506D01*
Y0046655D01*
X-0053270Y0046419D01*
X-0062483D01*
X-0062719Y0046655D01*
Y0055160D01*
X-0062483Y0055396D01*
X-0061538D01*
X-0061301Y0055160D01*
Y0047600D01*
X-0061065Y0047364D01*
X-0056341D01*
X-0055742Y0048027D01*
X-0132535Y0079275D02*
Y0078546D01*
X-0132052D01*
X-0131816Y0078310D01*
Y0074294D01*
X-0129572Y0072050D01*
Y0061065D01*
X-0133233Y0057404D01*
X-0135005D01*
X-0135241Y0057167D01*
Y0049608D01*
X-0134533Y0048899D01*
X-0134283D01*
Y0048263D01*
X-0110455Y0034315D02*
X-0111108Y0033663D01*
X-0111146D01*
Y0033545D01*
X-0111618Y0033072D01*
Y0032009D01*
X-0112091Y0031537D01*
Y0030946D01*
X-0113036Y0030001D01*
Y0029435D01*
X-0113641D01*
X-0087114Y0054640D02*
Y0053860D01*
X-0087287D01*
X-0087523Y0053624D01*
Y0047482D01*
X-0087287Y0047246D01*
X-0080554D01*
X-0079930Y0047870D01*
X-0118282Y0054151D02*
Y0053388D01*
X-0118587D01*
X-0118823Y0053152D01*
Y0048781D01*
X-0119059Y0048545D01*
X-0119928D01*
Y0047909D01*
X-0127227Y0031197D02*
X-0127832Y0030592D01*
X-0128154D01*
X-0128391Y0030355D01*
Y0026694D01*
X-0128154Y0026458D01*
X-0124493D01*
X-0124257Y0026694D01*
Y0042403D01*
X-0123430Y0043230D01*
X-0119532D01*
X-0118845Y0043936D01*
X-0137155Y0044330D02*
Y0043702D01*
X-0137131D01*
Y0039568D01*
X-0137013Y0039450D01*
Y0027403D01*
X-0136777Y0027166D01*
X-0129572D01*
X-0129335Y0027403D01*
Y0030592D01*
X-0129572Y0030828D01*
X-0129926D01*
X-0130413Y0031317D01*
X-0056450Y0079257D02*
Y0078546D01*
X-0055868D01*
X-0055632Y0078310D01*
Y0074648D01*
X-0053270Y0072286D01*
Y0060002D01*
X-0054333Y0058939D01*
X-0055986D01*
X-0056223Y0058703D01*
Y0056813D01*
X-0059648Y0053388D01*
Y0050317D01*
X-0057994Y0048663D01*
X-0057787D01*
Y0047988D01*
X-0084546Y0068962D02*
Y0069569D01*
X-0084570D01*
X-0084806Y0069806D01*
Y0072877D01*
X-0085042Y0073113D01*
X-0085350D01*
Y0073847D01*
X-0047404Y0079611D02*
X-0048191D01*
Y0079609D01*
X-0051498D01*
X-0051734Y0079373D01*
Y0067325D01*
X-0049844Y0065435D01*
Y0061538D01*
X-0049962Y0061420D01*
Y0057286D01*
X-0048073Y0055396D01*
Y0050199D01*
X-0047246Y0049372D01*
Y0049136D01*
X-0047286D01*
Y0048502D01*
X-0067003Y0077461D02*
X-0066853D01*
Y0077483D01*
X-0066499D01*
X-0066262Y0077247D01*
Y0068625D01*
X-0066499Y0068388D01*
X-0074412D01*
X-0074648Y0068152D01*
Y0059175D01*
X-0071696Y0056223D01*
Y0049018D01*
X-0071223Y0048545D01*
X-0070609D01*
Y0047870D01*
X-0084530Y0063000D02*
Y0062364D01*
X-0084452D01*
X-0084216Y0062128D01*
Y0059057D01*
X-0083979Y0058821D01*
X-0083628D01*
X-0083510Y0058703D01*
Y0058017D01*
X-0135251Y0063147D02*
Y0062601D01*
X-0135133Y0062483D01*
X-0135005D01*
X-0134769Y0062246D01*
Y0059412D01*
X-0134533Y0059175D01*
X-0134009D01*
Y0058410D01*
X-0097156Y0047909D02*
Y0048545D01*
X-0097326D01*
X-0097799Y0049018D01*
Y0053033D01*
X-0097326Y0053506D01*
Y0055160D01*
X-0102169Y0060002D01*
Y0076774D01*
X-0101933Y0077011D01*
X-0101460D01*
X-0101224Y0077247D01*
Y0077343D01*
X-0100510D01*
X-0083981Y0047870D02*
Y0047836D01*
X-0084098D01*
X-0084216Y0047955D01*
Y0048191D01*
X-0084924Y0048899D01*
Y0051144D01*
X-0085161Y0051380D01*
Y0055868D01*
X-0089295Y0060002D01*
Y0072640D01*
X-0081617Y0080318D01*
X-0080082D01*
X-0079845Y0080082D01*
Y0077461D01*
X-0079114D01*
X-0056833Y0063186D02*
X-0056223Y0063782D01*
X-0055514D01*
X-0055278Y0063546D01*
Y0061301D01*
X-0055041Y0061065D01*
X-0054970D01*
Y0060327D01*
X-0109136Y0062911D02*
Y0062246D01*
X-0109020D01*
X-0108784Y0062010D01*
Y0058703D01*
X-0108547Y0058467D01*
X-0108484D01*
Y0057702D01*
X-0094443Y0068873D02*
Y0069569D01*
X-0094374D01*
Y0072640D01*
X-0094137Y0072877D01*
X-0093628D01*
X-0093510Y0072995D01*
Y0073690D01*
X-0081316Y0079534D02*
Y0078782D01*
X-0082208D01*
X-0088822Y0072168D01*
Y0060947D01*
X-0084688Y0056813D01*
Y0051616D01*
X-0084452Y0051380D01*
Y0049136D01*
X-0083861Y0048545D01*
X-0083625D01*
X-0082919Y0047870D01*
X-0059658Y0044054D02*
X-0060357Y0044647D01*
X-0061065D01*
X-0061301Y0044411D01*
Y0033426D01*
X-0061183Y0033308D01*
Y0028820D01*
X-0060947Y0028584D01*
X-0058585D01*
X-0056931Y0028466D02*
X-0056695Y0028702D01*
Y0029292D01*
X-0057303Y0029962D01*
X-0106871Y0047909D02*
X-0106185Y0047246D01*
X-0104413D01*
X-0104177Y0047482D01*
Y0053388D01*
X-0104531Y0053742D01*
Y0054387D01*
X-0105312D01*
X-0096449Y0068833D02*
Y0069451D01*
X-0096618D01*
X-0097445Y0070278D01*
Y0072877D01*
X-0097510D01*
Y0073690D01*
X-0078565Y0034079D02*
Y0034135D01*
X-0078664D01*
X-0079137Y0034608D01*
X-0081145Y0032600D01*
Y0029883D01*
X-0081751Y0029198D01*
X-0121973Y0047869D02*
Y0048545D01*
X-0122012D01*
Y0048781D01*
X-0122485Y0049254D01*
Y0054569D01*
X-0121186Y0055868D01*
X-0116815D01*
X-0116579Y0056104D01*
Y0074058D01*
X-0119768Y0077247D01*
Y0079296D01*
X-0120518D01*
X-0047876Y0069502D02*
Y0070042D01*
X-0047995Y0070160D01*
X-0048663D01*
X-0048899Y0070396D01*
Y0078192D01*
X-0049136Y0078428D01*
X-0051025D01*
X-0051262Y0078192D01*
Y0072877D01*
X-0051025Y0072640D01*
X-0050499D01*
Y0071876D01*
X-0045713Y0052078D02*
Y0051262D01*
X-0045710D01*
Y0049490D01*
X-0044411Y0047836D02*
X-0042876D01*
X-0042251Y0048502D01*
X-0100510Y0071522D02*
X-0099807D01*
X-0099689Y0071404D01*
Y0070987D01*
X-0098271Y0069569D01*
X-0097550D01*
X-0097432Y0069451D01*
Y0068873D01*
X-0085530Y0063000D02*
Y0062364D01*
X-0086106D01*
X-0086342Y0062128D01*
Y0060461D01*
X-0087114D01*
X-0123822Y0073356D02*
Y0072640D01*
X-0123666D01*
X-0123430Y0072404D01*
Y0069688D01*
X-0123194Y0069451D01*
X-0122721D01*
X-0122603Y0069333D01*
Y0068754D01*
X-0135267Y0048302D02*
Y0048899D01*
X-0135477D01*
X-0135714Y0049136D01*
Y0055868D01*
X-0139966Y0060120D01*
Y0075948D01*
X-0139730Y0076184D01*
X-0139614D01*
X-0139259Y0076538D01*
Y0077327D01*
X-0107136Y0062911D02*
X-0106539Y0063546D01*
X-0105831D01*
X-0105594Y0063309D01*
Y0061183D01*
X-0105358Y0060947D01*
X-0105312D01*
Y0060209D01*
X-0071011Y0018775D02*
X-0070869D01*
Y0018780D01*
X-0070633D01*
X-0070396Y0018544D01*
Y0013347D01*
X-0070633Y0013111D01*
X-0076538D01*
X-0076893Y0012756D01*
X-0082444D01*
X-0082916Y0012284D01*
X-0086460D01*
X-0086932Y0012756D01*
X-0087169D01*
X-0087877Y0013465D01*
Y0015119D01*
X-0087188Y0015811D01*
X-0114312Y0071387D02*
X-0113390D01*
Y0071341D01*
X-0112327D01*
X-0110555Y0069569D01*
X-0110254D01*
X-0110136Y0069451D01*
Y0068912D01*
G54D10*
X-0141790Y0020393D03*
X-0140295D03*
G54D11*
X-0084120Y0013821D03*
Y0014821D03*
Y0015821D03*
Y0016821D03*
Y0017821D03*
Y0018821D03*
Y0019821D03*
X-0087188Y0019800D03*
Y0018800D03*
X-0087228Y0017817D03*
Y0016794D03*
X-0087188Y0015811D03*
Y0014749D03*
X-0087228Y0013765D03*
X-0067038Y0013781D03*
Y0014781D03*
Y0015781D03*
Y0016781D03*
Y0017781D03*
Y0018781D03*
Y0019781D03*
X-0066999Y0020821D03*
X-0071011Y0020781D03*
X-0071038Y0019781D03*
X-0071011Y0018775D03*
X-0071038Y0017781D03*
Y0016781D03*
Y0015781D03*
Y0014781D03*
Y0013781D03*
X-0041691Y0015150D03*
Y0016150D03*
Y0017150D03*
Y0018150D03*
Y0019150D03*
Y0020150D03*
Y0021150D03*
X-0041652Y0022189D03*
X-0045664Y0022150D03*
X-0045691Y0021150D03*
X-0045664Y0020144D03*
X-0045691Y0019150D03*
Y0018150D03*
Y0017150D03*
Y0016150D03*
Y0015150D03*
X-0107698Y0019827D03*
Y0018827D03*
Y0017827D03*
Y0016827D03*
Y0015827D03*
Y0014827D03*
Y0013827D03*
X-0104630Y0013849D03*
Y0014849D03*
X-0104591Y0015832D03*
Y0016855D03*
X-0104630Y0017838D03*
Y0018900D03*
X-0104591Y0019883D03*
X-0057303Y0034962D03*
Y0033962D03*
Y0032962D03*
Y0031962D03*
Y0030962D03*
Y0029962D03*
Y0028962D03*
Y0027962D03*
X-0054117Y0027843D03*
Y0028843D03*
Y0029843D03*
Y0030843D03*
Y0031843D03*
Y0032843D03*
Y0033843D03*
Y0034843D03*
X-0081751Y0035198D03*
Y0034198D03*
Y0033198D03*
Y0032198D03*
Y0031198D03*
Y0030198D03*
Y0029198D03*
Y0028198D03*
X-0078565Y0028079D03*
Y0029079D03*
Y0030079D03*
Y0031079D03*
Y0032079D03*
Y0033079D03*
Y0034079D03*
Y0035079D03*
X-0113641Y0035435D03*
Y0034435D03*
Y0033435D03*
Y0032435D03*
Y0031435D03*
Y0030435D03*
Y0029435D03*
Y0028435D03*
X-0110455Y0028315D03*
Y0029315D03*
Y0030315D03*
Y0031315D03*
Y0032315D03*
Y0033315D03*
Y0034315D03*
Y0035315D03*
X-0130413Y0035317D03*
Y0034317D03*
Y0033317D03*
Y0032317D03*
Y0031317D03*
Y0030317D03*
Y0029317D03*
Y0028317D03*
X-0127227Y0028197D03*
Y0029197D03*
Y0030197D03*
Y0031197D03*
Y0032197D03*
Y0033197D03*
Y0034197D03*
Y0035197D03*
X-0048191Y0044529D03*
X-0047191D03*
X-0046191D03*
X-0045191D03*
X-0044191D03*
X-0043191D03*
X-0042191D03*
X-0041191D03*
X-0041268Y0048463D03*
X-0042251Y0048502D03*
X-0043274D03*
X-0044257Y0048463D03*
X-0045319D03*
X-0046303Y0048502D03*
X-0047286D03*
X-0048191Y0048463D03*
X-0060658Y0044054D03*
X-0059658D03*
X-0058658D03*
X-0057658D03*
X-0056658D03*
X-0055658D03*
X-0054658D03*
X-0053658D03*
X-0053736Y0047988D03*
X-0054719Y0048027D03*
X-0055742D03*
X-0056725Y0047988D03*
X-0057787D03*
X-0058770Y0048027D03*
X-0059754D03*
X-0060658Y0047988D03*
X-0074542Y0043937D03*
X-0073542D03*
X-0072542D03*
X-0071542D03*
X-0070542D03*
X-0069542D03*
X-0068542D03*
X-0067542D03*
X-0067620Y0047870D03*
X-0068603Y0047909D03*
X-0069626D03*
X-0070609Y0047870D03*
X-0071671D03*
X-0072654Y0047909D03*
X-0073638D03*
X-0074542Y0047870D03*
X-0086853Y0043936D03*
X-0085853D03*
X-0084853D03*
X-0083853D03*
X-0082853D03*
X-0081853D03*
X-0080853D03*
X-0079853D03*
X-0079930Y0047870D03*
X-0080913Y0047909D03*
X-0081936D03*
X-0082919Y0047870D03*
X-0083981D03*
X-0084965Y0047909D03*
X-0085948D03*
X-0086853Y0047870D03*
X-0099044Y0043936D03*
X-0098044D03*
X-0097044D03*
X-0096044D03*
X-0095044D03*
X-0094044D03*
X-0093044D03*
X-0092044D03*
X-0092122Y0047870D03*
X-0093105Y0047909D03*
X-0094128D03*
X-0095111Y0047870D03*
X-0096173D03*
X-0097156Y0047909D03*
X-0098140D03*
X-0099044Y0047870D03*
X-0111787Y0043936D03*
X-0110787D03*
X-0109787D03*
X-0108787D03*
X-0107787D03*
X-0106787D03*
X-0105787D03*
X-0104787D03*
X-0104865Y0047870D03*
X-0105848Y0047909D03*
X-0106871D03*
X-0107854Y0047870D03*
X-0108916D03*
X-0109899Y0047909D03*
X-0110883D03*
X-0111787Y0047870D03*
X-0124845Y0043936D03*
X-0123845D03*
X-0122845D03*
X-0121845D03*
X-0120845D03*
X-0119845D03*
X-0118845D03*
X-0117845D03*
X-0117922Y0047869D03*
X-0118905Y0047909D03*
X-0119928D03*
X-0120911Y0047869D03*
X-0121973D03*
X-0122957Y0047909D03*
X-0123940D03*
X-0124845Y0047869D03*
X-0137155Y0044330D03*
X-0136155D03*
X-0135155D03*
X-0134155D03*
X-0133155D03*
X-0132155D03*
X-0131155D03*
X-0130155D03*
X-0130232Y0048263D03*
X-0131215Y0048302D03*
X-0132238D03*
X-0133221Y0048263D03*
X-0134283D03*
X-0135267Y0048302D03*
X-0136250D03*
X-0137155Y0048263D03*
X-0119098Y0014414D03*
Y0016381D03*
X-0133128Y0020354D03*
Y0019354D03*
Y0018354D03*
Y0017354D03*
Y0016354D03*
Y0015354D03*
Y0014354D03*
X-0130060Y0014376D03*
Y0015376D03*
X-0130021Y0016359D03*
Y0017382D03*
X-0130060Y0018365D03*
Y0019427D03*
X-0130021Y0020410D03*
G54D12*
X-0141776Y0031891D03*
X-0140754D03*
X-0142171Y0054333D03*
X-0143194D03*
X-0143352Y0061892D03*
X-0144375D03*
X-0143707Y0068506D03*
X-0144729D03*
X-0047876Y0063501D03*
X-0046876D03*
X-0045876D03*
X-0044876D03*
X-0043876D03*
X-0043904Y0069463D03*
X-0044887Y0069502D03*
X-0045870Y0069463D03*
X-0046893D03*
X-0047876Y0069502D03*
X-0059833Y0063186D03*
X-0058833D03*
X-0057833D03*
X-0056833D03*
X-0055833D03*
X-0055860Y0069148D03*
X-0056843Y0069187D03*
X-0057827Y0069148D03*
X-0058849D03*
X-0059833Y0069187D03*
X-0072537Y0063029D03*
X-0071537D03*
X-0070537D03*
X-0069537D03*
X-0068537D03*
X-0068564Y0068991D03*
X-0069547Y0069030D03*
X-0070531Y0068991D03*
X-0071553D03*
X-0072537Y0069030D03*
X-0085530Y0063000D03*
X-0084530D03*
X-0083530D03*
X-0082530D03*
X-0081530D03*
X-0081557Y0068962D03*
X-0082540Y0069001D03*
X-0083524Y0068962D03*
X-0084546D03*
X-0085530Y0069001D03*
X-0097432Y0062871D03*
X-0096432D03*
X-0095432D03*
X-0094432D03*
X-0093432D03*
X-0093459Y0068833D03*
X-0094443Y0068873D03*
X-0095426Y0068833D03*
X-0096449D03*
X-0097432Y0068873D03*
X-0110136Y0062911D03*
X-0109136D03*
X-0108136D03*
X-0107136D03*
X-0106136D03*
X-0106163Y0068873D03*
X-0107146Y0068912D03*
X-0108130Y0068873D03*
X-0109152D03*
X-0110136Y0068912D03*
X-0123586Y0062792D03*
X-0122586D03*
X-0121586D03*
X-0120586D03*
X-0119586D03*
X-0119614Y0068754D03*
X-0120597Y0068794D03*
X-0121580Y0068754D03*
X-0122603D03*
X-0123586Y0068794D03*
X-0136251Y0063147D03*
X-0135251D03*
X-0134251D03*
X-0133251D03*
X-0132251D03*
X-0132279Y0069109D03*
X-0133262Y0069148D03*
X-0134245Y0069109D03*
X-0135268D03*
X-0136251Y0069148D03*
G54D13*
X-0086019Y0022643D03*
X-0084996D03*
X-0068448Y0023034D03*
X-0067425D03*
X-0044818Y0013181D03*
X-0043795D03*
X-0126449Y0014412D03*
X-0125426D03*
X-0126331Y0017011D03*
X-0125308D03*
X-0126449Y0019609D03*
X-0125426D03*
X-0100066Y0023073D03*
X-0099043D03*
X-0103268Y0023074D03*
X-0102245D03*
X-0106415Y0023114D03*
X-0105392D03*
X-0142605Y0037954D03*
X-0143628D03*
X-0143705Y0040475D03*
X-0142682D03*
X-0143746Y0043269D03*
X-0142723D03*
G54D14*
X-0145753Y0074648D03*
X-0143905Y0073468D03*
Y0075828D03*
G54D16*
X-0117470Y0013751D03*
X-0111649Y0013711D03*
X-0117569Y0017271D03*
X-0111747Y0017232D03*
X-0106919Y0073949D03*
Y0079770D03*
X-0104312Y0071387D03*
Y0077209D03*
X-0110919Y0073949D03*
Y0079770D03*
X-0114312Y0071387D03*
Y0077209D03*
X-0105312Y0054387D03*
Y0060209D03*
X-0108484Y0051881D03*
Y0057702D03*
X-0111312Y0054387D03*
Y0060209D03*
X-0093510Y0073690D03*
Y0079511D03*
X-0091510Y0071522D03*
Y0077343D03*
X-0097510Y0073690D03*
Y0079511D03*
X-0100510Y0071522D03*
Y0077343D03*
X-0092510Y0054522D03*
Y0060343D03*
X-0095623Y0051487D03*
Y0057309D03*
X-0098477Y0054387D03*
Y0060209D03*
X-0081316Y0073713D03*
Y0079534D03*
X-0079114Y0071640D03*
Y0077461D03*
X-0085350Y0073847D03*
Y0079669D03*
X-0088114Y0071640D03*
Y0077461D03*
X-0080114Y0054640D03*
Y0060461D03*
X-0083510Y0052195D03*
Y0058017D03*
X-0087114Y0054640D03*
Y0060461D03*
X-0069245Y0073673D03*
Y0079495D03*
X-0067003Y0071640D03*
Y0077461D03*
X-0073245Y0073673D03*
Y0079495D03*
X-0075969Y0071505D03*
Y0077327D03*
X-0068003Y0054640D03*
Y0060461D03*
X-0071003Y0051959D03*
Y0057781D03*
X-0073969Y0054505D03*
Y0060327D03*
X-0056450Y0073435D03*
Y0079257D03*
X-0054003Y0071640D03*
Y0077461D03*
X-0060088Y0073319D03*
Y0079141D03*
X-0062970Y0071505D03*
Y0077327D03*
X-0054970Y0054505D03*
Y0060327D03*
X-0058417Y0052353D03*
Y0058174D03*
X-0062003Y0054640D03*
Y0060461D03*
X-0043707Y0073672D03*
Y0079493D03*
X-0041466Y0071742D03*
Y0077563D03*
X-0047404Y0073790D03*
Y0079611D03*
X-0050499Y0071876D03*
Y0077698D03*
X-0042820Y0054860D03*
Y0060681D03*
X-0045713Y0052078D03*
Y0057899D03*
X-0048820Y0054860D03*
Y0060681D03*
X-0120518Y0073474D03*
Y0079296D03*
X-0118282Y0071151D03*
Y0076972D03*
X-0123822Y0073356D03*
Y0079178D03*
X-0126282Y0071151D03*
Y0076972D03*
X-0118282Y0054151D03*
Y0059972D03*
X-0121305Y0052116D03*
Y0057938D03*
X-0124282Y0054151D03*
Y0059972D03*
X-0131259Y0054505D03*
Y0060327D03*
X-0134009Y0052589D03*
Y0058410D03*
X-0137259Y0054505D03*
Y0060327D03*
X-0132535Y0073454D03*
Y0079275D03*
X-0130259Y0071505D03*
Y0077327D03*
X-0136535Y0073454D03*
Y0079275D03*
X-0139259Y0071505D03*
Y0077327D03*
G54D17*
X-0111937Y0020890D03*
X-0111229D03*
M02*
