*
G04 Mass Parameters ***
*
G04 Image ***
*
%INC:\USERS\DATOR\ONEDRIVE\DESKTOP\2024_DIZERTATIE_BALTAG_A_FRECVENTMETRU\DISERTATIE_6_IUNIE\SCHEMA_DISERTATIE_CAPTURE_LAYOUT\SWEEP5.DRD*%
%ICAS*%
%MOIN*%
%IPPOS*%
%ASAXBY*%
G74*%FSLAN2X34Y34*%
*
G04 Aperture Definitions ***
*
%ADD10C,0.0709*%
%ADD11C,0.0472*%
%ADD12C,0.0354*%
%ADD13C,0.0394*%
%ADD14C,0.0984*%
%ADD15C,0.0472*%
%ADD16C,0.0630*%
%ADD17C,0.0276*%
%ADD18C,0.0236*%
%ADD19C,0.0500*%
%ADD20C,0.0039*%
%ADD21C,0.0100*%
*
G04 Plot Data ***
*
G54D19*
G01X-0151416Y0083385D02*
Y0009331D01*
X-0035905D01*
Y0083385D01*
X-0151416D01*
G54D21*
G01X0024708Y-0014000D02*
X0024042D01*
X0024375Y-0013333D01*
X0024542D01*
Y-0014333D01*
X0023342D02*
X0023175Y-0014167D01*
X0023092Y-0014000D01*
Y-0013667D01*
X0023175Y-0013500D01*
X0023342Y-0013333D01*
X0023508D01*
X0023675Y-0013500D01*
X0023758Y-0013667D01*
Y-0014000D01*
X0023675Y-0014167D01*
X0023508Y-0014333D01*
X0023342D01*
X0022142Y-0014167D02*
X0022225Y-0014333D01*
X0022725D01*
X0022808Y-0014167D01*
Y-0013833D01*
X0022642Y-0013667D01*
X0022142D01*
Y-0013333D01*
X0022808D01*
X0012312Y-0014333D02*
X0011729D01*
Y-0013333D01*
X0011446Y-0014000D02*
X0010779D01*
X0011446Y-0014333D02*
Y-0013833D01*
X0011196Y-0013333D01*
X0011029D01*
X0010779Y-0013833D01*
Y-0014333D01*
X0010162D02*
Y-0013333D01*
X0010496D02*
X0009829D01*
X0008962Y-0014333D02*
X0008879Y-0014167D01*
Y-0013500D01*
X0008962Y-0013333D01*
X0009462D01*
X0009546Y-0013500D01*
Y-0014167D01*
X0009462Y-0014333D01*
X0008962D01*
X0008262D02*
Y-0013333D01*
X0008596D02*
X0007929D01*
X0024264Y-0012361D02*
X0024375Y-0012472D01*
X0024597D01*
X0024708Y-0012361D01*
Y-0012250D01*
X0024486Y-0012028D01*
X0024708Y-0011806D01*
X0024264D01*
X0010869Y-0012472D02*
Y-0012139D01*
X0011092Y-0012472D02*
Y-0012139D01*
X0011036Y-0012028D01*
X0010925D01*
X0010869Y-0012139D01*
X0010814Y-0012028D01*
X0010703D01*
X0010647Y-0012139D01*
Y-0012472D01*
X0010169D02*
Y-0012139D01*
X0010392Y-0012472D02*
Y-0012139D01*
X0010336Y-0012028D01*
X0010225D01*
X0010169Y-0012139D01*
X0010114Y-0012028D01*
X0010003D01*
X0009947Y-0012139D01*
Y-0012472D01*
X0008464D02*
X0008353Y-0012361D01*
X0008297Y-0012250D01*
Y-0012028D01*
X0008353Y-0011917D01*
X0008464Y-0011806D01*
X0008575D01*
X0008686Y-0011917D01*
X0008742Y-0012028D01*
Y-0012250D01*
X0008686Y-0012361D01*
X0008575Y-0012472D01*
X0008464D01*
X0007764D02*
X0007653Y-0012361D01*
X0007597Y-0012250D01*
Y-0012028D01*
X0007653Y-0011917D01*
X0007764Y-0011806D01*
X0007875D01*
X0007986Y-0011917D01*
X0008042Y-0012028D01*
Y-0012250D01*
X0007986Y-0012361D01*
X0007875Y-0012472D01*
X0007764D01*
X0007064D02*
X0006953Y-0012361D01*
X0006897Y-0012250D01*
Y-0012028D01*
X0006953Y-0011917D01*
X0007064Y-0011806D01*
X0007175D01*
X0007286Y-0011917D01*
X0007342Y-0012028D01*
Y-0012250D01*
X0007286Y-0012361D01*
X0007175Y-0012472D01*
X0007064D01*
X0006531D02*
X0006642D01*
Y-0012361D01*
X0006531D01*
Y-0012472D01*
X0006164D02*
X0005719D01*
X0006164Y-0012028D01*
Y-0011917D01*
X0006108Y-0011806D01*
X0005775D01*
X0005719Y-0011917D01*
X0024653Y-0010639D02*
X0024319D01*
X0024264Y-0010528D01*
Y-0010417D01*
X0024319Y-0010306D01*
X0024653D01*
X0024708Y-0010417D01*
Y-0010528D01*
X0024486Y-0010972D01*
X0024008D02*
X0023786D01*
X0023897D02*
Y-0010306D01*
X0023786Y-0010417D01*
X0023419Y-0010972D02*
X0023197D01*
X0023308D02*
Y-0010306D01*
X0023197Y-0010417D01*
X0010869Y-0010972D02*
Y-0010639D01*
X0011092Y-0010972D02*
Y-0010639D01*
X0011036Y-0010528D01*
X0010925D01*
X0010869Y-0010639D01*
X0010814Y-0010528D01*
X0010703D01*
X0010647Y-0010639D01*
Y-0010972D01*
X0010169D02*
Y-0010639D01*
X0010392Y-0010972D02*
Y-0010639D01*
X0010336Y-0010528D01*
X0010225D01*
X0010169Y-0010639D01*
X0010114Y-0010528D01*
X0010003D01*
X0009947Y-0010639D01*
Y-0010972D01*
X0008464D02*
X0008353Y-0010861D01*
X0008297Y-0010750D01*
Y-0010528D01*
X0008353Y-0010417D01*
X0008464Y-0010306D01*
X0008575D01*
X0008686Y-0010417D01*
X0008742Y-0010528D01*
Y-0010750D01*
X0008686Y-0010861D01*
X0008575Y-0010972D01*
X0008464D01*
X0007764D02*
X0007653Y-0010861D01*
X0007597Y-0010750D01*
Y-0010528D01*
X0007653Y-0010417D01*
X0007764Y-0010306D01*
X0007875D01*
X0007986Y-0010417D01*
X0008042Y-0010528D01*
Y-0010750D01*
X0007986Y-0010861D01*
X0007875Y-0010972D01*
X0007764D01*
X0007064D02*
X0006953Y-0010861D01*
X0006897Y-0010750D01*
Y-0010528D01*
X0006953Y-0010417D01*
X0007064Y-0010306D01*
X0007175D01*
X0007286Y-0010417D01*
X0007342Y-0010528D01*
Y-0010750D01*
X0007286Y-0010861D01*
X0007175Y-0010972D01*
X0007064D01*
X0006531D02*
X0006642D01*
Y-0010861D01*
X0006531D01*
Y-0010972D01*
X0006164D02*
X0005942D01*
X0006053D02*
Y-0010306D01*
X0005942Y-0010417D01*
X0024653Y-0009139D02*
X0024708Y-0009028D01*
Y-0008917D01*
X0024653Y-0008806D01*
X0024319D01*
X0024264Y-0008917D01*
Y-0009028D01*
X0024319Y-0009139D01*
X0024653D01*
X0024708Y-0009250D01*
Y-0009361D01*
X0024653Y-0009472D01*
X0024319D01*
X0024264Y-0009361D01*
Y-0009250D01*
X0024319Y-0009139D01*
X0023619D02*
X0023953D01*
X0024008Y-0009250D01*
Y-0009361D01*
X0023953Y-0009472D01*
X0023619D01*
X0023564Y-0009361D01*
Y-0009250D01*
X0023786Y-0008806D01*
X0023308Y-0009472D02*
X0022864D01*
X0023308Y-0009028D01*
Y-0008917D01*
X0023253Y-0008806D01*
X0022919D01*
X0022864Y-0008917D01*
X0010869Y-0009472D02*
Y-0009139D01*
X0011092Y-0009472D02*
Y-0009139D01*
X0011036Y-0009028D01*
X0010925D01*
X0010869Y-0009139D01*
X0010814Y-0009028D01*
X0010703D01*
X0010647Y-0009139D01*
Y-0009472D01*
X0010169D02*
Y-0009139D01*
X0010392Y-0009472D02*
Y-0009139D01*
X0010336Y-0009028D01*
X0010225D01*
X0010169Y-0009139D01*
X0010114Y-0009028D01*
X0010003D01*
X0009947Y-0009139D01*
Y-0009472D01*
X0008464D02*
X0008353Y-0009361D01*
X0008297Y-0009250D01*
Y-0009028D01*
X0008353Y-0008917D01*
X0008464Y-0008806D01*
X0008575D01*
X0008686Y-0008917D01*
X0008742Y-0009028D01*
Y-0009250D01*
X0008686Y-0009361D01*
X0008575Y-0009472D01*
X0008464D01*
X0007764D02*
X0007653Y-0009361D01*
X0007597Y-0009250D01*
Y-0009028D01*
X0007653Y-0008917D01*
X0007764Y-0008806D01*
X0007875D01*
X0007986Y-0008917D01*
X0008042Y-0009028D01*
Y-0009250D01*
X0007986Y-0009361D01*
X0007875Y-0009472D01*
X0007764D01*
X0007286Y-0009139D02*
X0007342Y-0009028D01*
Y-0008917D01*
X0007286Y-0008806D01*
X0006953D01*
X0006897Y-0008917D01*
Y-0009028D01*
X0006953Y-0009139D01*
X0007286D01*
X0007342Y-0009250D01*
Y-0009361D01*
X0007286Y-0009472D01*
X0006953D01*
X0006897Y-0009361D01*
Y-0009250D01*
X0006953Y-0009139D01*
X0006531Y-0009472D02*
X0006642D01*
Y-0009361D01*
X0006531D01*
Y-0009472D01*
X0005886D02*
X0005775Y-0009361D01*
X0005719Y-0009250D01*
Y-0009028D01*
X0005775Y-0008917D01*
X0005886Y-0008806D01*
X0005997D01*
X0006108Y-0008917D01*
X0006164Y-0009028D01*
Y-0009250D01*
X0006108Y-0009361D01*
X0005997Y-0009472D01*
X0005886D01*
X0024708Y-0007972D02*
X0024264D01*
X0024708Y-0007528D01*
Y-0007417D01*
X0024653Y-0007306D01*
X0024319D01*
X0024264Y-0007417D01*
X0023564Y-0007861D02*
X0023675Y-0007972D01*
X0023897D01*
X0024008Y-0007861D01*
Y-0007750D01*
X0023786Y-0007528D01*
X0024008Y-0007306D01*
X0023564D01*
X0010869Y-0007972D02*
Y-0007639D01*
X0011092Y-0007972D02*
Y-0007639D01*
X0011036Y-0007528D01*
X0010925D01*
X0010869Y-0007639D01*
X0010814Y-0007528D01*
X0010703D01*
X0010647Y-0007639D01*
Y-0007972D01*
X0010169D02*
Y-0007639D01*
X0010392Y-0007972D02*
Y-0007639D01*
X0010336Y-0007528D01*
X0010225D01*
X0010169Y-0007639D01*
X0010114Y-0007528D01*
X0010003D01*
X0009947Y-0007639D01*
Y-0007972D01*
X0008464D02*
X0008353Y-0007861D01*
X0008297Y-0007750D01*
Y-0007528D01*
X0008353Y-0007417D01*
X0008464Y-0007306D01*
X0008575D01*
X0008686Y-0007417D01*
X0008742Y-0007528D01*
Y-0007750D01*
X0008686Y-0007861D01*
X0008575Y-0007972D01*
X0008464D01*
X0007764D02*
X0007653Y-0007861D01*
X0007597Y-0007750D01*
Y-0007528D01*
X0007653Y-0007417D01*
X0007764Y-0007306D01*
X0007875D01*
X0007986Y-0007417D01*
X0008042Y-0007528D01*
Y-0007750D01*
X0007986Y-0007861D01*
X0007875Y-0007972D01*
X0007764D01*
X0007008D02*
X0007342Y-0007306D01*
X0006897D01*
X0006531Y-0007972D02*
X0006642D01*
Y-0007861D01*
X0006531D01*
Y-0007972D01*
X0005886D02*
X0005775Y-0007861D01*
X0005719Y-0007750D01*
Y-0007528D01*
X0005775Y-0007417D01*
X0005886Y-0007306D01*
X0005997D01*
X0006108Y-0007417D01*
X0006164Y-0007528D01*
Y-0007750D01*
X0006108Y-0007861D01*
X0005997Y-0007972D01*
X0005886D01*
X0024431Y-0006472D02*
X0024319Y-0006361D01*
X0024264Y-0006250D01*
Y-0006028D01*
X0024319Y-0005917D01*
X0024431Y-0005806D01*
X0024542D01*
X0024653Y-0005917D01*
X0024708Y-0006028D01*
Y-0006250D01*
X0024653Y-0006361D01*
X0024542Y-0006472D01*
X0024431D01*
X0023953Y-0006139D02*
X0024008Y-0006028D01*
Y-0005917D01*
X0023953Y-0005806D01*
X0023619D01*
X0023564Y-0005917D01*
Y-0006028D01*
X0023619Y-0006139D01*
X0023953D01*
X0024008Y-0006250D01*
Y-0006361D01*
X0023953Y-0006472D01*
X0023619D01*
X0023564Y-0006361D01*
Y-0006250D01*
X0023619Y-0006139D01*
X0010869Y-0006472D02*
Y-0006139D01*
X0011092Y-0006472D02*
Y-0006139D01*
X0011036Y-0006028D01*
X0010925D01*
X0010869Y-0006139D01*
X0010814Y-0006028D01*
X0010703D01*
X0010647Y-0006139D01*
Y-0006472D01*
X0010169D02*
Y-0006139D01*
X0010392Y-0006472D02*
Y-0006139D01*
X0010336Y-0006028D01*
X0010225D01*
X0010169Y-0006139D01*
X0010114Y-0006028D01*
X0010003D01*
X0009947Y-0006139D01*
Y-0006472D01*
X0008686Y-0006139D02*
X0008353D01*
X0008297Y-0006028D01*
Y-0005917D01*
X0008353Y-0005806D01*
X0008686D01*
X0008742Y-0005917D01*
Y-0006028D01*
X0008519Y-0006472D01*
X0007986Y-0006139D02*
X0007653D01*
X0007597Y-0006028D01*
Y-0005917D01*
X0007653Y-0005806D01*
X0007986D01*
X0008042Y-0005917D01*
Y-0006028D01*
X0007819Y-0006472D01*
X0006897Y-0006361D02*
X0006953Y-0006472D01*
X0007286D01*
X0007342Y-0006361D01*
Y-0006139D01*
X0007231Y-0006028D01*
X0006897D01*
Y-0005806D01*
X0007342D01*
X0006531Y-0006472D02*
X0006642D01*
Y-0006361D01*
X0006531D01*
Y-0006472D01*
X0005886D02*
X0005775Y-0006361D01*
X0005719Y-0006250D01*
Y-0006028D01*
X0005775Y-0005917D01*
X0005886Y-0005806D01*
X0005997D01*
X0006108Y-0005917D01*
X0006164Y-0006028D01*
Y-0006250D01*
X0006108Y-0006361D01*
X0005997Y-0006472D01*
X0005886D01*
X0024708Y-0004972D02*
X0024264D01*
X0024708Y-0004528D01*
Y-0004417D01*
X0024653Y-0004306D01*
X0024319D01*
X0024264Y-0004417D01*
X0010869Y-0004972D02*
Y-0004639D01*
X0011092Y-0004972D02*
Y-0004639D01*
X0011036Y-0004528D01*
X0010925D01*
X0010869Y-0004639D01*
X0010814Y-0004528D01*
X0010703D01*
X0010647Y-0004639D01*
Y-0004972D01*
X0010169D02*
Y-0004639D01*
X0010392Y-0004972D02*
Y-0004639D01*
X0010336Y-0004528D01*
X0010225D01*
X0010169Y-0004639D01*
X0010114Y-0004528D01*
X0010003D01*
X0009947Y-0004639D01*
Y-0004972D01*
X0008686Y-0004639D02*
X0008353D01*
X0008297Y-0004528D01*
Y-0004417D01*
X0008353Y-0004306D01*
X0008686D01*
X0008742Y-0004417D01*
Y-0004528D01*
X0008519Y-0004972D01*
X0008042Y-0004750D02*
X0007597D01*
X0007819Y-0004306D01*
X0007931D01*
Y-0004972D01*
X0006897Y-0004861D02*
X0006953Y-0004972D01*
X0007286D01*
X0007342Y-0004861D01*
Y-0004639D01*
X0007231Y-0004528D01*
X0006897D01*
Y-0004306D01*
X0007342D01*
X0006531Y-0004972D02*
X0006642D01*
Y-0004861D01*
X0006531D01*
Y-0004972D01*
X0005886D02*
X0005775Y-0004861D01*
X0005719Y-0004750D01*
Y-0004528D01*
X0005775Y-0004417D01*
X0005886Y-0004306D01*
X0005997D01*
X0006108Y-0004417D01*
X0006164Y-0004528D01*
Y-0004750D01*
X0006108Y-0004861D01*
X0005997Y-0004972D01*
X0005886D01*
X0033112Y-0002833D02*
X0032612D01*
X0033279Y-0003333D02*
X0032612D01*
Y-0002333D01*
X0033279D01*
X0031996Y-0003333D02*
Y-0002333D01*
X0032329D02*
X0031662D01*
X0030796Y-0003333D02*
X0030712Y-0003167D01*
Y-0002500D01*
X0030796Y-0002333D01*
X0031296D01*
X0031379Y-0002500D01*
Y-0003167D01*
X0031296Y-0003333D01*
X0030796D01*
X0030429Y-0002333D02*
Y-0003333D01*
X0030262Y-0003167D01*
X0029929Y-0002500D01*
X0029762Y-0002333D01*
Y-0003333D01*
X0023925D02*
Y-0002833D01*
X0024258Y-0002333D02*
X0024008Y-0002833D01*
X0023842D01*
X0023592Y-0002333D01*
X0022975Y-0003333D02*
Y-0002333D01*
X0023308D02*
X0022642D01*
X0022025Y-0003000D02*
X0022358Y-0003333D01*
X0021692Y-0003167D02*
X0021775Y-0003333D01*
X0022108D01*
X0022192Y-0003167D01*
X0022358Y-0003000D01*
Y-0002500D01*
X0022275Y-0002333D01*
X0021775D01*
X0021692Y-0002500D01*
Y-0003167D01*
X0017408Y-0003333D02*
X0016825D01*
Y-0002333D01*
X0015958Y-0003333D02*
X0015875Y-0003167D01*
Y-0002500D01*
X0015958Y-0002333D01*
X0016458D01*
X0016542Y-0002500D01*
Y-0003167D01*
X0016458Y-0003333D01*
X0015958D01*
X0015258D02*
Y-0002333D01*
X0015592D02*
X0014925D01*
X0009587Y-0003333D02*
Y-0002333D01*
X0009421Y-0002500D01*
X0009254Y-0002833D01*
X0009087Y-0002500D01*
X0008921Y-0002333D01*
Y-0003333D01*
X0008637Y-0003000D02*
X0007971D01*
X0008637Y-0003333D02*
Y-0002833D01*
X0008387Y-0002333D01*
X0008221D01*
X0007971Y-0002833D01*
Y-0003333D01*
X0007687D02*
X0007354D01*
X0007521D02*
Y-0002333D01*
X0007687D02*
X0007354D01*
X0006321Y-0003333D02*
Y-0002333D01*
X0006237Y-0003333D02*
X0006737D01*
X0006904Y-0003000D01*
Y-0002667D01*
X0006737Y-0002333D01*
X0006237D01*
X0003150Y-0003333D02*
Y-0002333D01*
X0002983Y-0002500D01*
X0002817Y-0002833D01*
X0002650Y-0002500D01*
X0002483Y-0002333D01*
Y-0003333D01*
X0001867D02*
Y-0002833D01*
X0002200Y-0002333D02*
X0001950Y-0002833D01*
X0001783D01*
X0001533Y-0002333D01*
X0001250Y-0002500D02*
X0001167Y-0002333D01*
X0000667D01*
X0000583Y-0002500D01*
Y-0002667D01*
X0000667Y-0002833D01*
X0001167D01*
X0001250Y-0003000D01*
Y-0003167D01*
X0001167Y-0003333D01*
X0000667D01*
X0000583Y-0003167D01*
X0023437Y-0001333D02*
Y-0000333D01*
X0023771D02*
X0023104D01*
X0022571Y-0000833D02*
X0022821Y-0001333D01*
X0022154Y-0000833D02*
X0022654D01*
X0022821Y-0000667D01*
Y-0000500D01*
X0022654Y-0000333D01*
X0022154D01*
Y-0001333D01*
X0021871Y-0001000D02*
X0021204D01*
X0021871Y-0001333D02*
Y-0000833D01*
X0021621Y-0000333D01*
X0021454D01*
X0021204Y-0000833D01*
Y-0001333D01*
X0020921Y-0000833D02*
X0020254D01*
X0020921Y-0001333D02*
Y-0000333D01*
X0020254Y-0001333D02*
Y-0000333D01*
X0019971Y-0001167D02*
X0019887Y-0001333D01*
X0019387D01*
X0019304Y-0001167D01*
Y-0000500D01*
X0019387Y-0000333D01*
X0019887D01*
X0019971Y-0000500D01*
X0017696Y-0001333D02*
X0017112D01*
Y-0000333D01*
X0016829Y-0001333D02*
X0016246D01*
Y-0000333D01*
X0015962Y-0001333D02*
X0015629D01*
X0015796D02*
Y-0000333D01*
X0015962D02*
X0015629D01*
X0014929Y-0000833D02*
X0015179Y-0001333D01*
X0014512Y-0000833D02*
X0015012D01*
X0015179Y-0000667D01*
Y-0000500D01*
X0015012Y-0000333D01*
X0014512D01*
Y-0001333D01*
X0013646D02*
Y-0000333D01*
X0013562Y-0001333D02*
X0014062D01*
X0014229Y-0001000D01*
Y-0000667D01*
X0014062Y-0000333D01*
X0013562D01*
X0001575Y-0012000D02*
Y-0012500D01*
X0002075Y-0012000D02*
X0001575D01*
X0002075Y-0012500D02*
Y-0012000D01*
X0001575Y-0012500D02*
X0002075D01*
Y-0012250D02*
X0001575D01*
X0001825Y-0012000D02*
Y-0012500D01*
Y-0010600D02*
X0001575Y-0010850D01*
X0002075D02*
X0001825Y-0010600D01*
X0001575Y-0010850D02*
X0002075D01*
X0001575Y-0009150D02*
Y-0009350D01*
X0001725Y-0009000D02*
X0001575Y-0009150D01*
X0001925Y-0009000D02*
X0001725D01*
X0002075Y-0009150D02*
X0001925Y-0009000D01*
X0002075Y-0009350D02*
Y-0009150D01*
X0001925Y-0009500D02*
X0002075Y-0009350D01*
X0001725Y-0009500D02*
X0001925D01*
X0001575Y-0009350D02*
X0001725Y-0009500D01*
X0002075Y-0007500D02*
X0001575Y-0008000D01*
X0002075D02*
X0001575Y-0007500D01*
Y-0006000D02*
Y-0006250D01*
X0001825Y-0006000D02*
X0001575D01*
X0001825Y-0006500D02*
Y-0006000D01*
X0002075Y-0006500D02*
X0001825D01*
X0002075Y-0006250D02*
Y-0006500D01*
X0001575Y-0006250D02*
X0002075D01*
Y-0004750D02*
X0001575D01*
X0001825Y-0004500D02*
Y-0005000D01*
X0037300Y-0015050D02*
X-0000050D01*
X0037250Y-0015000D02*
X0000000D01*
X0037250Y-0013000D02*
X0000000D01*
X0037250Y-0011500D02*
X0000000D01*
X0037250Y-0010000D02*
X0000000D01*
X0037250Y-0008500D02*
X0000000D01*
X0037250Y-0007000D02*
X0000000D01*
X0037250Y-0005500D02*
X0000000D01*
X0037250Y-0004000D02*
X0000000D01*
X0037250Y-0003950D02*
X0000000D01*
X0037250Y-0002000D02*
X0000000D01*
X0037250Y-0001950D02*
X0000000D01*
X0037250Y0000000D02*
X0000000D01*
X0037300Y0000050D02*
X-0000050D01*
X0037300Y-0015000D02*
Y0000000D01*
X0037250Y-0015000D02*
Y0000000D01*
X0025708Y-0015000D02*
Y-0002000D01*
X0020158Y-0015000D02*
Y-0002000D01*
X0012092Y-0013000D02*
Y-0002000D01*
X0003700Y-0013000D02*
Y-0002000D01*
X0003650Y-0013000D02*
Y-0002000D01*
X-0000050Y-0015000D02*
Y0000000D01*
X0000000Y-0015000D02*
Y0000000D01*
X-0111687Y0020890D02*
X-0112187D01*
X-0111937Y0021140D02*
Y0020640D01*
X-0110979Y0020890D02*
X-0111479D01*
X-0111229Y0021140D02*
Y0020640D01*
X-0084370Y0013921D02*
Y0013721D01*
X-0084220Y0014071D02*
X-0084370Y0013921D01*
X-0084020Y0014071D02*
X-0084220D01*
X-0083870Y0013921D02*
X-0084020Y0014071D01*
X-0083870Y0013721D02*
Y0013921D01*
X-0084020Y0013571D02*
X-0083870Y0013721D01*
X-0084220Y0013571D02*
X-0084020D01*
X-0084370Y0013721D02*
X-0084220Y0013571D01*
X-0084370Y0014921D02*
Y0014721D01*
X-0084220Y0015071D02*
X-0084370Y0014921D01*
X-0084020Y0015071D02*
X-0084220D01*
X-0083870Y0014921D02*
X-0084020Y0015071D01*
X-0083870Y0014721D02*
Y0014921D01*
X-0084020Y0014571D02*
X-0083870Y0014721D01*
X-0084220Y0014571D02*
X-0084020D01*
X-0084370Y0014721D02*
X-0084220Y0014571D01*
X-0084370Y0015921D02*
Y0015721D01*
X-0084220Y0016071D02*
X-0084370Y0015921D01*
X-0084020Y0016071D02*
X-0084220D01*
X-0083870Y0015921D02*
X-0084020Y0016071D01*
X-0083870Y0015721D02*
Y0015921D01*
X-0084020Y0015571D02*
X-0083870Y0015721D01*
X-0084220Y0015571D02*
X-0084020D01*
X-0084370Y0015721D02*
X-0084220Y0015571D01*
X-0084370Y0016921D02*
Y0016721D01*
X-0084220Y0017071D02*
X-0084370Y0016921D01*
X-0084020Y0017071D02*
X-0084220D01*
X-0083870Y0016921D02*
X-0084020Y0017071D01*
X-0083870Y0016721D02*
Y0016921D01*
X-0084020Y0016571D02*
X-0083870Y0016721D01*
X-0084220Y0016571D02*
X-0084020D01*
X-0084370Y0016721D02*
X-0084220Y0016571D01*
X-0084370Y0017921D02*
Y0017721D01*
X-0084220Y0018071D02*
X-0084370Y0017921D01*
X-0084020Y0018071D02*
X-0084220D01*
X-0083870Y0017921D02*
X-0084020Y0018071D01*
X-0083870Y0017721D02*
Y0017921D01*
X-0084020Y0017571D02*
X-0083870Y0017721D01*
X-0084220Y0017571D02*
X-0084020D01*
X-0084370Y0017721D02*
X-0084220Y0017571D01*
X-0084370Y0018921D02*
Y0018721D01*
X-0084220Y0019071D02*
X-0084370Y0018921D01*
X-0084020Y0019071D02*
X-0084220D01*
X-0083870Y0018921D02*
X-0084020Y0019071D01*
X-0083870Y0018721D02*
Y0018921D01*
X-0084020Y0018571D02*
X-0083870Y0018721D01*
X-0084220Y0018571D02*
X-0084020D01*
X-0084370Y0018721D02*
X-0084220Y0018571D01*
X-0084370Y0019921D02*
Y0019721D01*
X-0084220Y0020071D02*
X-0084370Y0019921D01*
X-0084020Y0020071D02*
X-0084220D01*
X-0083870Y0019921D02*
X-0084020Y0020071D01*
X-0083870Y0019721D02*
Y0019921D01*
X-0084020Y0019571D02*
X-0083870Y0019721D01*
X-0084220Y0019571D02*
X-0084020D01*
X-0084370Y0019721D02*
X-0084220Y0019571D01*
X-0087438Y0019900D02*
Y0019700D01*
X-0087288Y0020050D02*
X-0087438Y0019900D01*
X-0087088Y0020050D02*
X-0087288D01*
X-0086938Y0019900D02*
X-0087088Y0020050D01*
X-0086938Y0019700D02*
Y0019900D01*
X-0087088Y0019550D02*
X-0086938Y0019700D01*
X-0087288Y0019550D02*
X-0087088D01*
X-0087438Y0019700D02*
X-0087288Y0019550D01*
X-0087438Y0018900D02*
Y0018700D01*
X-0087288Y0019050D02*
X-0087438Y0018900D01*
X-0087088Y0019050D02*
X-0087288D01*
X-0086938Y0018900D02*
X-0087088Y0019050D01*
X-0086938Y0018700D02*
Y0018900D01*
X-0087088Y0018550D02*
X-0086938Y0018700D01*
X-0087288Y0018550D02*
X-0087088D01*
X-0087438Y0018700D02*
X-0087288Y0018550D01*
X-0087478Y0017917D02*
Y0017717D01*
X-0087328Y0018067D02*
X-0087478Y0017917D01*
X-0087128Y0018067D02*
X-0087328D01*
X-0086978Y0017917D02*
X-0087128Y0018067D01*
X-0086978Y0017717D02*
Y0017917D01*
X-0087128Y0017567D02*
X-0086978Y0017717D01*
X-0087328Y0017567D02*
X-0087128D01*
X-0087478Y0017717D02*
X-0087328Y0017567D01*
X-0087478Y0016894D02*
Y0016694D01*
X-0087328Y0017044D02*
X-0087478Y0016894D01*
X-0087128Y0017044D02*
X-0087328D01*
X-0086978Y0016894D02*
X-0087128Y0017044D01*
X-0086978Y0016694D02*
Y0016894D01*
X-0087128Y0016544D02*
X-0086978Y0016694D01*
X-0087328Y0016544D02*
X-0087128D01*
X-0087478Y0016694D02*
X-0087328Y0016544D01*
X-0087438Y0015911D02*
Y0015711D01*
X-0087288Y0016061D02*
X-0087438Y0015911D01*
X-0087088Y0016061D02*
X-0087288D01*
X-0086938Y0015911D02*
X-0087088Y0016061D01*
X-0086938Y0015711D02*
Y0015911D01*
X-0087088Y0015561D02*
X-0086938Y0015711D01*
X-0087288Y0015561D02*
X-0087088D01*
X-0087438Y0015711D02*
X-0087288Y0015561D01*
X-0087438Y0014849D02*
Y0014649D01*
X-0087288Y0014999D02*
X-0087438Y0014849D01*
X-0087088Y0014999D02*
X-0087288D01*
X-0086938Y0014849D02*
X-0087088Y0014999D01*
X-0086938Y0014649D02*
Y0014849D01*
X-0087088Y0014499D02*
X-0086938Y0014649D01*
X-0087288Y0014499D02*
X-0087088D01*
X-0087438Y0014649D02*
X-0087288Y0014499D01*
X-0087478Y0013865D02*
Y0013665D01*
X-0087328Y0014015D02*
X-0087478Y0013865D01*
X-0087128Y0014015D02*
X-0087328D01*
X-0086978Y0013865D02*
X-0087128Y0014015D01*
X-0086978Y0013665D02*
Y0013865D01*
X-0087128Y0013515D02*
X-0086978Y0013665D01*
X-0087328Y0013515D02*
X-0087128D01*
X-0087478Y0013665D02*
X-0087328Y0013515D01*
X-0067288Y0013881D02*
Y0013681D01*
X-0067138Y0014031D02*
X-0067288Y0013881D01*
X-0066938Y0014031D02*
X-0067138D01*
X-0066788Y0013881D02*
X-0066938Y0014031D01*
X-0066788Y0013681D02*
Y0013881D01*
X-0066938Y0013531D02*
X-0066788Y0013681D01*
X-0067138Y0013531D02*
X-0066938D01*
X-0067288Y0013681D02*
X-0067138Y0013531D01*
X-0067288Y0014881D02*
Y0014681D01*
X-0067138Y0015031D02*
X-0067288Y0014881D01*
X-0066938Y0015031D02*
X-0067138D01*
X-0066788Y0014881D02*
X-0066938Y0015031D01*
X-0066788Y0014681D02*
Y0014881D01*
X-0066938Y0014531D02*
X-0066788Y0014681D01*
X-0067138Y0014531D02*
X-0066938D01*
X-0067288Y0014681D02*
X-0067138Y0014531D01*
X-0067288Y0015881D02*
Y0015681D01*
X-0067138Y0016031D02*
X-0067288Y0015881D01*
X-0066938Y0016031D02*
X-0067138D01*
X-0066788Y0015881D02*
X-0066938Y0016031D01*
X-0066788Y0015681D02*
Y0015881D01*
X-0066938Y0015531D02*
X-0066788Y0015681D01*
X-0067138Y0015531D02*
X-0066938D01*
X-0067288Y0015681D02*
X-0067138Y0015531D01*
X-0067288Y0016881D02*
Y0016681D01*
X-0067138Y0017031D02*
X-0067288Y0016881D01*
X-0066938Y0017031D02*
X-0067138D01*
X-0066788Y0016881D02*
X-0066938Y0017031D01*
X-0066788Y0016681D02*
Y0016881D01*
X-0066938Y0016531D02*
X-0066788Y0016681D01*
X-0067138Y0016531D02*
X-0066938D01*
X-0067288Y0016681D02*
X-0067138Y0016531D01*
X-0067288Y0017881D02*
Y0017681D01*
X-0067138Y0018031D02*
X-0067288Y0017881D01*
X-0066938Y0018031D02*
X-0067138D01*
X-0066788Y0017881D02*
X-0066938Y0018031D01*
X-0066788Y0017681D02*
Y0017881D01*
X-0066938Y0017531D02*
X-0066788Y0017681D01*
X-0067138Y0017531D02*
X-0066938D01*
X-0067288Y0017681D02*
X-0067138Y0017531D01*
X-0067288Y0018881D02*
Y0018681D01*
X-0067138Y0019031D02*
X-0067288Y0018881D01*
X-0066938Y0019031D02*
X-0067138D01*
X-0066788Y0018881D02*
X-0066938Y0019031D01*
X-0066788Y0018681D02*
Y0018881D01*
X-0066938Y0018531D02*
X-0066788Y0018681D01*
X-0067138Y0018531D02*
X-0066938D01*
X-0067288Y0018681D02*
X-0067138Y0018531D01*
X-0067288Y0019881D02*
Y0019681D01*
X-0067138Y0020031D02*
X-0067288Y0019881D01*
X-0066938Y0020031D02*
X-0067138D01*
X-0066788Y0019881D02*
X-0066938Y0020031D01*
X-0066788Y0019681D02*
Y0019881D01*
X-0066938Y0019531D02*
X-0066788Y0019681D01*
X-0067138Y0019531D02*
X-0066938D01*
X-0067288Y0019681D02*
X-0067138Y0019531D01*
X-0067249Y0020921D02*
Y0020721D01*
X-0067099Y0021071D02*
X-0067249Y0020921D01*
X-0066899Y0021071D02*
X-0067099D01*
X-0066749Y0020921D02*
X-0066899Y0021071D01*
X-0066749Y0020721D02*
Y0020921D01*
X-0066899Y0020571D02*
X-0066749Y0020721D01*
X-0067099Y0020571D02*
X-0066899D01*
X-0067249Y0020721D02*
X-0067099Y0020571D01*
X-0071261Y0020881D02*
Y0020681D01*
X-0071111Y0021031D02*
X-0071261Y0020881D01*
X-0070911Y0021031D02*
X-0071111D01*
X-0070761Y0020881D02*
X-0070911Y0021031D01*
X-0070761Y0020681D02*
Y0020881D01*
X-0070911Y0020531D02*
X-0070761Y0020681D01*
X-0071111Y0020531D02*
X-0070911D01*
X-0071261Y0020681D02*
X-0071111Y0020531D01*
X-0071288Y0019881D02*
Y0019681D01*
X-0071138Y0020031D02*
X-0071288Y0019881D01*
X-0070938Y0020031D02*
X-0071138D01*
X-0070788Y0019881D02*
X-0070938Y0020031D01*
X-0070788Y0019681D02*
Y0019881D01*
X-0070938Y0019531D02*
X-0070788Y0019681D01*
X-0071138Y0019531D02*
X-0070938D01*
X-0071288Y0019681D02*
X-0071138Y0019531D01*
X-0071261Y0018875D02*
Y0018675D01*
X-0071111Y0019025D02*
X-0071261Y0018875D01*
X-0070911Y0019025D02*
X-0071111D01*
X-0070761Y0018875D02*
X-0070911Y0019025D01*
X-0070761Y0018675D02*
Y0018875D01*
X-0070911Y0018525D02*
X-0070761Y0018675D01*
X-0071111Y0018525D02*
X-0070911D01*
X-0071261Y0018675D02*
X-0071111Y0018525D01*
X-0071288Y0017881D02*
Y0017681D01*
X-0071138Y0018031D02*
X-0071288Y0017881D01*
X-0070938Y0018031D02*
X-0071138D01*
X-0070788Y0017881D02*
X-0070938Y0018031D01*
X-0070788Y0017681D02*
Y0017881D01*
X-0070938Y0017531D02*
X-0070788Y0017681D01*
X-0071138Y0017531D02*
X-0070938D01*
X-0071288Y0017681D02*
X-0071138Y0017531D01*
X-0071288Y0016881D02*
Y0016681D01*
X-0071138Y0017031D02*
X-0071288Y0016881D01*
X-0070938Y0017031D02*
X-0071138D01*
X-0070788Y0016881D02*
X-0070938Y0017031D01*
X-0070788Y0016681D02*
Y0016881D01*
X-0070938Y0016531D02*
X-0070788Y0016681D01*
X-0071138Y0016531D02*
X-0070938D01*
X-0071288Y0016681D02*
X-0071138Y0016531D01*
X-0071288Y0015881D02*
Y0015681D01*
X-0071138Y0016031D02*
X-0071288Y0015881D01*
X-0070938Y0016031D02*
X-0071138D01*
X-0070788Y0015881D02*
X-0070938Y0016031D01*
X-0070788Y0015681D02*
Y0015881D01*
X-0070938Y0015531D02*
X-0070788Y0015681D01*
X-0071138Y0015531D02*
X-0070938D01*
X-0071288Y0015681D02*
X-0071138Y0015531D01*
X-0071288Y0014881D02*
Y0014681D01*
X-0071138Y0015031D02*
X-0071288Y0014881D01*
X-0070938Y0015031D02*
X-0071138D01*
X-0070788Y0014881D02*
X-0070938Y0015031D01*
X-0070788Y0014681D02*
Y0014881D01*
X-0070938Y0014531D02*
X-0070788Y0014681D01*
X-0071138Y0014531D02*
X-0070938D01*
X-0071288Y0014681D02*
X-0071138Y0014531D01*
X-0071288Y0013881D02*
Y0013681D01*
X-0071138Y0014031D02*
X-0071288Y0013881D01*
X-0070938Y0014031D02*
X-0071138D01*
X-0070788Y0013881D02*
X-0070938Y0014031D01*
X-0070788Y0013681D02*
Y0013881D01*
X-0070938Y0013531D02*
X-0070788Y0013681D01*
X-0071138Y0013531D02*
X-0070938D01*
X-0071288Y0013681D02*
X-0071138Y0013531D01*
X-0041941Y0015250D02*
Y0015050D01*
X-0041791Y0015400D02*
X-0041941Y0015250D01*
X-0041591Y0015400D02*
X-0041791D01*
X-0041441Y0015250D02*
X-0041591Y0015400D01*
X-0041441Y0015050D02*
Y0015250D01*
X-0041591Y0014900D02*
X-0041441Y0015050D01*
X-0041791Y0014900D02*
X-0041591D01*
X-0041941Y0015050D02*
X-0041791Y0014900D01*
X-0041941Y0016250D02*
Y0016050D01*
X-0041791Y0016400D02*
X-0041941Y0016250D01*
X-0041591Y0016400D02*
X-0041791D01*
X-0041441Y0016250D02*
X-0041591Y0016400D01*
X-0041441Y0016050D02*
Y0016250D01*
X-0041591Y0015900D02*
X-0041441Y0016050D01*
X-0041791Y0015900D02*
X-0041591D01*
X-0041941Y0016050D02*
X-0041791Y0015900D01*
X-0041941Y0017250D02*
Y0017050D01*
X-0041791Y0017400D02*
X-0041941Y0017250D01*
X-0041591Y0017400D02*
X-0041791D01*
X-0041441Y0017250D02*
X-0041591Y0017400D01*
X-0041441Y0017050D02*
Y0017250D01*
X-0041591Y0016900D02*
X-0041441Y0017050D01*
X-0041791Y0016900D02*
X-0041591D01*
X-0041941Y0017050D02*
X-0041791Y0016900D01*
X-0041941Y0018250D02*
Y0018050D01*
X-0041791Y0018400D02*
X-0041941Y0018250D01*
X-0041591Y0018400D02*
X-0041791D01*
X-0041441Y0018250D02*
X-0041591Y0018400D01*
X-0041441Y0018050D02*
Y0018250D01*
X-0041591Y0017900D02*
X-0041441Y0018050D01*
X-0041791Y0017900D02*
X-0041591D01*
X-0041941Y0018050D02*
X-0041791Y0017900D01*
X-0041941Y0019250D02*
Y0019050D01*
X-0041791Y0019400D02*
X-0041941Y0019250D01*
X-0041591Y0019400D02*
X-0041791D01*
X-0041441Y0019250D02*
X-0041591Y0019400D01*
X-0041441Y0019050D02*
Y0019250D01*
X-0041591Y0018900D02*
X-0041441Y0019050D01*
X-0041791Y0018900D02*
X-0041591D01*
X-0041941Y0019050D02*
X-0041791Y0018900D01*
X-0041941Y0020250D02*
Y0020050D01*
X-0041791Y0020400D02*
X-0041941Y0020250D01*
X-0041591Y0020400D02*
X-0041791D01*
X-0041441Y0020250D02*
X-0041591Y0020400D01*
X-0041441Y0020050D02*
Y0020250D01*
X-0041591Y0019900D02*
X-0041441Y0020050D01*
X-0041791Y0019900D02*
X-0041591D01*
X-0041941Y0020050D02*
X-0041791Y0019900D01*
X-0041941Y0021250D02*
Y0021050D01*
X-0041791Y0021400D02*
X-0041941Y0021250D01*
X-0041591Y0021400D02*
X-0041791D01*
X-0041441Y0021250D02*
X-0041591Y0021400D01*
X-0041441Y0021050D02*
Y0021250D01*
X-0041591Y0020900D02*
X-0041441Y0021050D01*
X-0041791Y0020900D02*
X-0041591D01*
X-0041941Y0021050D02*
X-0041791Y0020900D01*
X-0041902Y0022289D02*
Y0022089D01*
X-0041752Y0022439D02*
X-0041902Y0022289D01*
X-0041552Y0022439D02*
X-0041752D01*
X-0041402Y0022289D02*
X-0041552Y0022439D01*
X-0041402Y0022089D02*
Y0022289D01*
X-0041552Y0021939D02*
X-0041402Y0022089D01*
X-0041752Y0021939D02*
X-0041552D01*
X-0041902Y0022089D02*
X-0041752Y0021939D01*
X-0045914Y0022250D02*
Y0022050D01*
X-0045764Y0022400D02*
X-0045914Y0022250D01*
X-0045564Y0022400D02*
X-0045764D01*
X-0045414Y0022250D02*
X-0045564Y0022400D01*
X-0045414Y0022050D02*
Y0022250D01*
X-0045564Y0021900D02*
X-0045414Y0022050D01*
X-0045764Y0021900D02*
X-0045564D01*
X-0045914Y0022050D02*
X-0045764Y0021900D01*
X-0045941Y0021250D02*
Y0021050D01*
X-0045791Y0021400D02*
X-0045941Y0021250D01*
X-0045591Y0021400D02*
X-0045791D01*
X-0045441Y0021250D02*
X-0045591Y0021400D01*
X-0045441Y0021050D02*
Y0021250D01*
X-0045591Y0020900D02*
X-0045441Y0021050D01*
X-0045791Y0020900D02*
X-0045591D01*
X-0045941Y0021050D02*
X-0045791Y0020900D01*
X-0045914Y0020244D02*
Y0020044D01*
X-0045764Y0020394D02*
X-0045914Y0020244D01*
X-0045564Y0020394D02*
X-0045764D01*
X-0045414Y0020244D02*
X-0045564Y0020394D01*
X-0045414Y0020044D02*
Y0020244D01*
X-0045564Y0019894D02*
X-0045414Y0020044D01*
X-0045764Y0019894D02*
X-0045564D01*
X-0045914Y0020044D02*
X-0045764Y0019894D01*
X-0045941Y0019250D02*
Y0019050D01*
X-0045791Y0019400D02*
X-0045941Y0019250D01*
X-0045591Y0019400D02*
X-0045791D01*
X-0045441Y0019250D02*
X-0045591Y0019400D01*
X-0045441Y0019050D02*
Y0019250D01*
X-0045591Y0018900D02*
X-0045441Y0019050D01*
X-0045791Y0018900D02*
X-0045591D01*
X-0045941Y0019050D02*
X-0045791Y0018900D01*
X-0045941Y0018250D02*
Y0018050D01*
X-0045791Y0018400D02*
X-0045941Y0018250D01*
X-0045591Y0018400D02*
X-0045791D01*
X-0045441Y0018250D02*
X-0045591Y0018400D01*
X-0045441Y0018050D02*
Y0018250D01*
X-0045591Y0017900D02*
X-0045441Y0018050D01*
X-0045791Y0017900D02*
X-0045591D01*
X-0045941Y0018050D02*
X-0045791Y0017900D01*
X-0045941Y0017250D02*
Y0017050D01*
X-0045791Y0017400D02*
X-0045941Y0017250D01*
X-0045591Y0017400D02*
X-0045791D01*
X-0045441Y0017250D02*
X-0045591Y0017400D01*
X-0045441Y0017050D02*
Y0017250D01*
X-0045591Y0016900D02*
X-0045441Y0017050D01*
X-0045791Y0016900D02*
X-0045591D01*
X-0045941Y0017050D02*
X-0045791Y0016900D01*
X-0045941Y0016250D02*
Y0016050D01*
X-0045791Y0016400D02*
X-0045941Y0016250D01*
X-0045591Y0016400D02*
X-0045791D01*
X-0045441Y0016250D02*
X-0045591Y0016400D01*
X-0045441Y0016050D02*
Y0016250D01*
X-0045591Y0015900D02*
X-0045441Y0016050D01*
X-0045791Y0015900D02*
X-0045591D01*
X-0045941Y0016050D02*
X-0045791Y0015900D01*
X-0045941Y0015250D02*
Y0015050D01*
X-0045791Y0015400D02*
X-0045941Y0015250D01*
X-0045591Y0015400D02*
X-0045791D01*
X-0045441Y0015250D02*
X-0045591Y0015400D01*
X-0045441Y0015050D02*
Y0015250D01*
X-0045591Y0014900D02*
X-0045441Y0015050D01*
X-0045791Y0014900D02*
X-0045591D01*
X-0045941Y0015050D02*
X-0045791Y0014900D01*
X-0107948Y0019927D02*
Y0019727D01*
X-0107798Y0020077D02*
X-0107948Y0019927D01*
X-0107598Y0020077D02*
X-0107798D01*
X-0107448Y0019927D02*
X-0107598Y0020077D01*
X-0107448Y0019727D02*
Y0019927D01*
X-0107598Y0019577D02*
X-0107448Y0019727D01*
X-0107798Y0019577D02*
X-0107598D01*
X-0107948Y0019727D02*
X-0107798Y0019577D01*
X-0107948Y0018927D02*
Y0018727D01*
X-0107798Y0019077D02*
X-0107948Y0018927D01*
X-0107598Y0019077D02*
X-0107798D01*
X-0107448Y0018927D02*
X-0107598Y0019077D01*
X-0107448Y0018727D02*
Y0018927D01*
X-0107598Y0018577D02*
X-0107448Y0018727D01*
X-0107798Y0018577D02*
X-0107598D01*
X-0107948Y0018727D02*
X-0107798Y0018577D01*
X-0107948Y0017927D02*
Y0017727D01*
X-0107798Y0018077D02*
X-0107948Y0017927D01*
X-0107598Y0018077D02*
X-0107798D01*
X-0107448Y0017927D02*
X-0107598Y0018077D01*
X-0107448Y0017727D02*
Y0017927D01*
X-0107598Y0017577D02*
X-0107448Y0017727D01*
X-0107798Y0017577D02*
X-0107598D01*
X-0107948Y0017727D02*
X-0107798Y0017577D01*
X-0107948Y0016927D02*
Y0016727D01*
X-0107798Y0017077D02*
X-0107948Y0016927D01*
X-0107598Y0017077D02*
X-0107798D01*
X-0107448Y0016927D02*
X-0107598Y0017077D01*
X-0107448Y0016727D02*
Y0016927D01*
X-0107598Y0016577D02*
X-0107448Y0016727D01*
X-0107798Y0016577D02*
X-0107598D01*
X-0107948Y0016727D02*
X-0107798Y0016577D01*
X-0107948Y0015927D02*
Y0015727D01*
X-0107798Y0016077D02*
X-0107948Y0015927D01*
X-0107598Y0016077D02*
X-0107798D01*
X-0107448Y0015927D02*
X-0107598Y0016077D01*
X-0107448Y0015727D02*
Y0015927D01*
X-0107598Y0015577D02*
X-0107448Y0015727D01*
X-0107798Y0015577D02*
X-0107598D01*
X-0107948Y0015727D02*
X-0107798Y0015577D01*
X-0107948Y0014927D02*
Y0014727D01*
X-0107798Y0015077D02*
X-0107948Y0014927D01*
X-0107598Y0015077D02*
X-0107798D01*
X-0107448Y0014927D02*
X-0107598Y0015077D01*
X-0107448Y0014727D02*
Y0014927D01*
X-0107598Y0014577D02*
X-0107448Y0014727D01*
X-0107798Y0014577D02*
X-0107598D01*
X-0107948Y0014727D02*
X-0107798Y0014577D01*
X-0107948Y0013927D02*
Y0013727D01*
X-0107798Y0014077D02*
X-0107948Y0013927D01*
X-0107598Y0014077D02*
X-0107798D01*
X-0107448Y0013927D02*
X-0107598Y0014077D01*
X-0107448Y0013727D02*
Y0013927D01*
X-0107598Y0013577D02*
X-0107448Y0013727D01*
X-0107798Y0013577D02*
X-0107598D01*
X-0107948Y0013727D02*
X-0107798Y0013577D01*
X-0104880Y0013949D02*
Y0013749D01*
X-0104730Y0014099D02*
X-0104880Y0013949D01*
X-0104530Y0014099D02*
X-0104730D01*
X-0104380Y0013949D02*
X-0104530Y0014099D01*
X-0104380Y0013749D02*
Y0013949D01*
X-0104530Y0013599D02*
X-0104380Y0013749D01*
X-0104730Y0013599D02*
X-0104530D01*
X-0104880Y0013749D02*
X-0104730Y0013599D01*
X-0104880Y0014949D02*
Y0014749D01*
X-0104730Y0015099D02*
X-0104880Y0014949D01*
X-0104530Y0015099D02*
X-0104730D01*
X-0104380Y0014949D02*
X-0104530Y0015099D01*
X-0104380Y0014749D02*
Y0014949D01*
X-0104530Y0014599D02*
X-0104380Y0014749D01*
X-0104730Y0014599D02*
X-0104530D01*
X-0104880Y0014749D02*
X-0104730Y0014599D01*
X-0104841Y0015932D02*
Y0015732D01*
X-0104691Y0016082D02*
X-0104841Y0015932D01*
X-0104491Y0016082D02*
X-0104691D01*
X-0104341Y0015932D02*
X-0104491Y0016082D01*
X-0104341Y0015732D02*
Y0015932D01*
X-0104491Y0015582D02*
X-0104341Y0015732D01*
X-0104691Y0015582D02*
X-0104491D01*
X-0104841Y0015732D02*
X-0104691Y0015582D01*
X-0104841Y0016955D02*
Y0016755D01*
X-0104691Y0017105D02*
X-0104841Y0016955D01*
X-0104491Y0017105D02*
X-0104691D01*
X-0104341Y0016955D02*
X-0104491Y0017105D01*
X-0104341Y0016755D02*
Y0016955D01*
X-0104491Y0016605D02*
X-0104341Y0016755D01*
X-0104691Y0016605D02*
X-0104491D01*
X-0104841Y0016755D02*
X-0104691Y0016605D01*
X-0104880Y0017938D02*
Y0017738D01*
X-0104730Y0018088D02*
X-0104880Y0017938D01*
X-0104530Y0018088D02*
X-0104730D01*
X-0104380Y0017938D02*
X-0104530Y0018088D01*
X-0104380Y0017738D02*
Y0017938D01*
X-0104530Y0017588D02*
X-0104380Y0017738D01*
X-0104730Y0017588D02*
X-0104530D01*
X-0104880Y0017738D02*
X-0104730Y0017588D01*
X-0104880Y0019000D02*
Y0018800D01*
X-0104730Y0019150D02*
X-0104880Y0019000D01*
X-0104530Y0019150D02*
X-0104730D01*
X-0104380Y0019000D02*
X-0104530Y0019150D01*
X-0104380Y0018800D02*
Y0019000D01*
X-0104530Y0018650D02*
X-0104380Y0018800D01*
X-0104730Y0018650D02*
X-0104530D01*
X-0104880Y0018800D02*
X-0104730Y0018650D01*
X-0104841Y0019983D02*
Y0019783D01*
X-0104691Y0020133D02*
X-0104841Y0019983D01*
X-0104491Y0020133D02*
X-0104691D01*
X-0104341Y0019983D02*
X-0104491Y0020133D01*
X-0104341Y0019783D02*
Y0019983D01*
X-0104491Y0019633D02*
X-0104341Y0019783D01*
X-0104691Y0019633D02*
X-0104491D01*
X-0104841Y0019783D02*
X-0104691Y0019633D01*
X-0117470Y0013901D02*
X-0117720Y0013651D01*
X-0117220D02*
X-0117470Y0013901D01*
X-0117720Y0013651D02*
X-0117220D01*
X-0111649Y0013861D02*
X-0111899Y0013611D01*
X-0111399D02*
X-0111649Y0013861D01*
X-0111899Y0013611D02*
X-0111399D01*
X-0117569Y0017421D02*
X-0117819Y0017171D01*
X-0117319D02*
X-0117569Y0017421D01*
X-0117819Y0017171D02*
X-0117319D01*
X-0111747Y0017382D02*
X-0111997Y0017132D01*
X-0111497D02*
X-0111747Y0017382D01*
X-0111997Y0017132D02*
X-0111497D01*
X-0106919Y0074099D02*
X-0107169Y0073849D01*
X-0106669D02*
X-0106919Y0074099D01*
X-0107169Y0073849D02*
X-0106669D01*
X-0106919Y0079920D02*
X-0107169Y0079670D01*
X-0106669D02*
X-0106919Y0079920D01*
X-0107169Y0079670D02*
X-0106669D01*
X-0104312Y0071537D02*
X-0104562Y0071287D01*
X-0104062D02*
X-0104312Y0071537D01*
X-0104562Y0071287D02*
X-0104062D01*
X-0104312Y0077359D02*
X-0104562Y0077109D01*
X-0104062D02*
X-0104312Y0077359D01*
X-0104562Y0077109D02*
X-0104062D01*
X-0110919Y0074099D02*
X-0111169Y0073849D01*
X-0110669D02*
X-0110919Y0074099D01*
X-0111169Y0073849D02*
X-0110669D01*
X-0110919Y0079920D02*
X-0111169Y0079670D01*
X-0110669D02*
X-0110919Y0079920D01*
X-0111169Y0079670D02*
X-0110669D01*
X-0114312Y0071537D02*
X-0114562Y0071287D01*
X-0114062D02*
X-0114312Y0071537D01*
X-0114562Y0071287D02*
X-0114062D01*
X-0114312Y0077359D02*
X-0114562Y0077109D01*
X-0114062D02*
X-0114312Y0077359D01*
X-0114562Y0077109D02*
X-0114062D01*
X-0105312Y0054537D02*
X-0105562Y0054287D01*
X-0105062D02*
X-0105312Y0054537D01*
X-0105562Y0054287D02*
X-0105062D01*
X-0105312Y0060359D02*
X-0105562Y0060109D01*
X-0105062D02*
X-0105312Y0060359D01*
X-0105562Y0060109D02*
X-0105062D01*
X-0108484Y0052031D02*
X-0108734Y0051781D01*
X-0108234D02*
X-0108484Y0052031D01*
X-0108734Y0051781D02*
X-0108234D01*
X-0108484Y0057852D02*
X-0108734Y0057602D01*
X-0108234D02*
X-0108484Y0057852D01*
X-0108734Y0057602D02*
X-0108234D01*
X-0111312Y0054537D02*
X-0111562Y0054287D01*
X-0111062D02*
X-0111312Y0054537D01*
X-0111562Y0054287D02*
X-0111062D01*
X-0111312Y0060359D02*
X-0111562Y0060109D01*
X-0111062D02*
X-0111312Y0060359D01*
X-0111562Y0060109D02*
X-0111062D01*
X-0093510Y0073840D02*
X-0093760Y0073590D01*
X-0093260D02*
X-0093510Y0073840D01*
X-0093760Y0073590D02*
X-0093260D01*
X-0093510Y0079661D02*
X-0093760Y0079411D01*
X-0093260D02*
X-0093510Y0079661D01*
X-0093760Y0079411D02*
X-0093260D01*
X-0091510Y0071672D02*
X-0091760Y0071422D01*
X-0091260D02*
X-0091510Y0071672D01*
X-0091760Y0071422D02*
X-0091260D01*
X-0091510Y0077493D02*
X-0091760Y0077243D01*
X-0091260D02*
X-0091510Y0077493D01*
X-0091760Y0077243D02*
X-0091260D01*
X-0097510Y0073840D02*
X-0097760Y0073590D01*
X-0097260D02*
X-0097510Y0073840D01*
X-0097760Y0073590D02*
X-0097260D01*
X-0097510Y0079661D02*
X-0097760Y0079411D01*
X-0097260D02*
X-0097510Y0079661D01*
X-0097760Y0079411D02*
X-0097260D01*
X-0100510Y0071672D02*
X-0100760Y0071422D01*
X-0100260D02*
X-0100510Y0071672D01*
X-0100760Y0071422D02*
X-0100260D01*
X-0100510Y0077493D02*
X-0100760Y0077243D01*
X-0100260D02*
X-0100510Y0077493D01*
X-0100760Y0077243D02*
X-0100260D01*
X-0092510Y0054672D02*
X-0092760Y0054422D01*
X-0092260D02*
X-0092510Y0054672D01*
X-0092760Y0054422D02*
X-0092260D01*
X-0092510Y0060493D02*
X-0092760Y0060243D01*
X-0092260D02*
X-0092510Y0060493D01*
X-0092760Y0060243D02*
X-0092260D01*
X-0095623Y0051637D02*
X-0095873Y0051387D01*
X-0095373D02*
X-0095623Y0051637D01*
X-0095873Y0051387D02*
X-0095373D01*
X-0095623Y0057459D02*
X-0095873Y0057209D01*
X-0095373D02*
X-0095623Y0057459D01*
X-0095873Y0057209D02*
X-0095373D01*
X-0098477Y0054537D02*
X-0098727Y0054287D01*
X-0098227D02*
X-0098477Y0054537D01*
X-0098727Y0054287D02*
X-0098227D01*
X-0098477Y0060359D02*
X-0098727Y0060109D01*
X-0098227D02*
X-0098477Y0060359D01*
X-0098727Y0060109D02*
X-0098227D01*
X-0081316Y0073863D02*
X-0081566Y0073613D01*
X-0081066D02*
X-0081316Y0073863D01*
X-0081566Y0073613D02*
X-0081066D01*
X-0081316Y0079684D02*
X-0081566Y0079434D01*
X-0081066D02*
X-0081316Y0079684D01*
X-0081566Y0079434D02*
X-0081066D01*
X-0079114Y0071790D02*
X-0079364Y0071540D01*
X-0078864D02*
X-0079114Y0071790D01*
X-0079364Y0071540D02*
X-0078864D01*
X-0079114Y0077611D02*
X-0079364Y0077361D01*
X-0078864D02*
X-0079114Y0077611D01*
X-0079364Y0077361D02*
X-0078864D01*
X-0085350Y0073997D02*
X-0085600Y0073747D01*
X-0085100D02*
X-0085350Y0073997D01*
X-0085600Y0073747D02*
X-0085100D01*
X-0085350Y0079819D02*
X-0085600Y0079569D01*
X-0085100D02*
X-0085350Y0079819D01*
X-0085600Y0079569D02*
X-0085100D01*
X-0088114Y0071790D02*
X-0088364Y0071540D01*
X-0087864D02*
X-0088114Y0071790D01*
X-0088364Y0071540D02*
X-0087864D01*
X-0088114Y0077611D02*
X-0088364Y0077361D01*
X-0087864D02*
X-0088114Y0077611D01*
X-0088364Y0077361D02*
X-0087864D01*
X-0080114Y0054790D02*
X-0080364Y0054540D01*
X-0079864D02*
X-0080114Y0054790D01*
X-0080364Y0054540D02*
X-0079864D01*
X-0080114Y0060611D02*
X-0080364Y0060361D01*
X-0079864D02*
X-0080114Y0060611D01*
X-0080364Y0060361D02*
X-0079864D01*
X-0083510Y0052345D02*
X-0083760Y0052095D01*
X-0083260D02*
X-0083510Y0052345D01*
X-0083760Y0052095D02*
X-0083260D01*
X-0083510Y0058167D02*
X-0083760Y0057917D01*
X-0083260D02*
X-0083510Y0058167D01*
X-0083760Y0057917D02*
X-0083260D01*
X-0087114Y0054790D02*
X-0087364Y0054540D01*
X-0086864D02*
X-0087114Y0054790D01*
X-0087364Y0054540D02*
X-0086864D01*
X-0087114Y0060611D02*
X-0087364Y0060361D01*
X-0086864D02*
X-0087114Y0060611D01*
X-0087364Y0060361D02*
X-0086864D01*
X-0069245Y0073823D02*
X-0069495Y0073573D01*
X-0068995D02*
X-0069245Y0073823D01*
X-0069495Y0073573D02*
X-0068995D01*
X-0069245Y0079645D02*
X-0069495Y0079395D01*
X-0068995D02*
X-0069245Y0079645D01*
X-0069495Y0079395D02*
X-0068995D01*
X-0067003Y0071790D02*
X-0067253Y0071540D01*
X-0066753D02*
X-0067003Y0071790D01*
X-0067253Y0071540D02*
X-0066753D01*
X-0067003Y0077611D02*
X-0067253Y0077361D01*
X-0066753D02*
X-0067003Y0077611D01*
X-0067253Y0077361D02*
X-0066753D01*
X-0073245Y0073823D02*
X-0073495Y0073573D01*
X-0072995D02*
X-0073245Y0073823D01*
X-0073495Y0073573D02*
X-0072995D01*
X-0073245Y0079645D02*
X-0073495Y0079395D01*
X-0072995D02*
X-0073245Y0079645D01*
X-0073495Y0079395D02*
X-0072995D01*
X-0075969Y0071655D02*
X-0076219Y0071405D01*
X-0075719D02*
X-0075969Y0071655D01*
X-0076219Y0071405D02*
X-0075719D01*
X-0075969Y0077477D02*
X-0076219Y0077227D01*
X-0075719D02*
X-0075969Y0077477D01*
X-0076219Y0077227D02*
X-0075719D01*
X-0068003Y0054790D02*
X-0068253Y0054540D01*
X-0067753D02*
X-0068003Y0054790D01*
X-0068253Y0054540D02*
X-0067753D01*
X-0068003Y0060611D02*
X-0068253Y0060361D01*
X-0067753D02*
X-0068003Y0060611D01*
X-0068253Y0060361D02*
X-0067753D01*
X-0071003Y0052109D02*
X-0071253Y0051859D01*
X-0070753D02*
X-0071003Y0052109D01*
X-0071253Y0051859D02*
X-0070753D01*
X-0071003Y0057931D02*
X-0071253Y0057681D01*
X-0070753D02*
X-0071003Y0057931D01*
X-0071253Y0057681D02*
X-0070753D01*
X-0073969Y0054655D02*
X-0074219Y0054405D01*
X-0073719D02*
X-0073969Y0054655D01*
X-0074219Y0054405D02*
X-0073719D01*
X-0073969Y0060477D02*
X-0074219Y0060227D01*
X-0073719D02*
X-0073969Y0060477D01*
X-0074219Y0060227D02*
X-0073719D01*
X-0056450Y0073585D02*
X-0056700Y0073335D01*
X-0056200D02*
X-0056450Y0073585D01*
X-0056700Y0073335D02*
X-0056200D01*
X-0056450Y0079407D02*
X-0056700Y0079157D01*
X-0056200D02*
X-0056450Y0079407D01*
X-0056700Y0079157D02*
X-0056200D01*
X-0054003Y0071790D02*
X-0054253Y0071540D01*
X-0053753D02*
X-0054003Y0071790D01*
X-0054253Y0071540D02*
X-0053753D01*
X-0054003Y0077611D02*
X-0054253Y0077361D01*
X-0053753D02*
X-0054003Y0077611D01*
X-0054253Y0077361D02*
X-0053753D01*
X-0060088Y0073469D02*
X-0060338Y0073219D01*
X-0059838D02*
X-0060088Y0073469D01*
X-0060338Y0073219D02*
X-0059838D01*
X-0060088Y0079291D02*
X-0060338Y0079041D01*
X-0059838D02*
X-0060088Y0079291D01*
X-0060338Y0079041D02*
X-0059838D01*
X-0062970Y0071655D02*
X-0063220Y0071405D01*
X-0062720D02*
X-0062970Y0071655D01*
X-0063220Y0071405D02*
X-0062720D01*
X-0062970Y0077477D02*
X-0063220Y0077227D01*
X-0062720D02*
X-0062970Y0077477D01*
X-0063220Y0077227D02*
X-0062720D01*
X-0054970Y0054655D02*
X-0055220Y0054405D01*
X-0054720D02*
X-0054970Y0054655D01*
X-0055220Y0054405D02*
X-0054720D01*
X-0054970Y0060477D02*
X-0055220Y0060227D01*
X-0054720D02*
X-0054970Y0060477D01*
X-0055220Y0060227D02*
X-0054720D01*
X-0058417Y0052503D02*
X-0058667Y0052253D01*
X-0058167D02*
X-0058417Y0052503D01*
X-0058667Y0052253D02*
X-0058167D01*
X-0058417Y0058324D02*
X-0058667Y0058074D01*
X-0058167D02*
X-0058417Y0058324D01*
X-0058667Y0058074D02*
X-0058167D01*
X-0062003Y0054790D02*
X-0062253Y0054540D01*
X-0061753D02*
X-0062003Y0054790D01*
X-0062253Y0054540D02*
X-0061753D01*
X-0062003Y0060611D02*
X-0062253Y0060361D01*
X-0061753D02*
X-0062003Y0060611D01*
X-0062253Y0060361D02*
X-0061753D01*
X-0043707Y0073822D02*
X-0043957Y0073572D01*
X-0043457D02*
X-0043707Y0073822D01*
X-0043957Y0073572D02*
X-0043457D01*
X-0043707Y0079643D02*
X-0043957Y0079393D01*
X-0043457D02*
X-0043707Y0079643D01*
X-0043957Y0079393D02*
X-0043457D01*
X-0041466Y0071892D02*
X-0041716Y0071642D01*
X-0041216D02*
X-0041466Y0071892D01*
X-0041716Y0071642D02*
X-0041216D01*
X-0041466Y0077713D02*
X-0041716Y0077463D01*
X-0041216D02*
X-0041466Y0077713D01*
X-0041716Y0077463D02*
X-0041216D01*
X-0047404Y0073940D02*
X-0047654Y0073690D01*
X-0047154D02*
X-0047404Y0073940D01*
X-0047654Y0073690D02*
X-0047154D01*
X-0047404Y0079761D02*
X-0047654Y0079511D01*
X-0047154D02*
X-0047404Y0079761D01*
X-0047654Y0079511D02*
X-0047154D01*
X-0050499Y0072026D02*
X-0050749Y0071776D01*
X-0050249D02*
X-0050499Y0072026D01*
X-0050749Y0071776D02*
X-0050249D01*
X-0050499Y0077848D02*
X-0050749Y0077598D01*
X-0050249D02*
X-0050499Y0077848D01*
X-0050749Y0077598D02*
X-0050249D01*
X-0042820Y0055010D02*
X-0043070Y0054760D01*
X-0042570D02*
X-0042820Y0055010D01*
X-0043070Y0054760D02*
X-0042570D01*
X-0042820Y0060831D02*
X-0043070Y0060581D01*
X-0042570D02*
X-0042820Y0060831D01*
X-0043070Y0060581D02*
X-0042570D01*
X-0045713Y0052228D02*
X-0045963Y0051978D01*
X-0045463D02*
X-0045713Y0052228D01*
X-0045963Y0051978D02*
X-0045463D01*
X-0045713Y0058049D02*
X-0045963Y0057799D01*
X-0045463D02*
X-0045713Y0058049D01*
X-0045963Y0057799D02*
X-0045463D01*
X-0048820Y0055010D02*
X-0049070Y0054760D01*
X-0048570D02*
X-0048820Y0055010D01*
X-0049070Y0054760D02*
X-0048570D01*
X-0048820Y0060831D02*
X-0049070Y0060581D01*
X-0048570D02*
X-0048820Y0060831D01*
X-0049070Y0060581D02*
X-0048570D01*
X-0120518Y0073624D02*
X-0120768Y0073374D01*
X-0120268D02*
X-0120518Y0073624D01*
X-0120768Y0073374D02*
X-0120268D01*
X-0120518Y0079446D02*
X-0120768Y0079196D01*
X-0120268D02*
X-0120518Y0079446D01*
X-0120768Y0079196D02*
X-0120268D01*
X-0118282Y0071301D02*
X-0118532Y0071051D01*
X-0118032D02*
X-0118282Y0071301D01*
X-0118532Y0071051D02*
X-0118032D01*
X-0118282Y0077122D02*
X-0118532Y0076872D01*
X-0118032D02*
X-0118282Y0077122D01*
X-0118532Y0076872D02*
X-0118032D01*
X-0123822Y0073506D02*
X-0124072Y0073256D01*
X-0123572D02*
X-0123822Y0073506D01*
X-0124072Y0073256D02*
X-0123572D01*
X-0123822Y0079328D02*
X-0124072Y0079078D01*
X-0123572D02*
X-0123822Y0079328D01*
X-0124072Y0079078D02*
X-0123572D01*
X-0126282Y0071301D02*
X-0126532Y0071051D01*
X-0126032D02*
X-0126282Y0071301D01*
X-0126532Y0071051D02*
X-0126032D01*
X-0126282Y0077122D02*
X-0126532Y0076872D01*
X-0126032D02*
X-0126282Y0077122D01*
X-0126532Y0076872D02*
X-0126032D01*
X-0118282Y0054301D02*
X-0118532Y0054051D01*
X-0118032D02*
X-0118282Y0054301D01*
X-0118532Y0054051D02*
X-0118032D01*
X-0118282Y0060122D02*
X-0118532Y0059872D01*
X-0118032D02*
X-0118282Y0060122D01*
X-0118532Y0059872D02*
X-0118032D01*
X-0121305Y0052266D02*
X-0121555Y0052016D01*
X-0121055D02*
X-0121305Y0052266D01*
X-0121555Y0052016D02*
X-0121055D01*
X-0121305Y0058088D02*
X-0121555Y0057838D01*
X-0121055D02*
X-0121305Y0058088D01*
X-0121555Y0057838D02*
X-0121055D01*
X-0124282Y0054301D02*
X-0124532Y0054051D01*
X-0124032D02*
X-0124282Y0054301D01*
X-0124532Y0054051D02*
X-0124032D01*
X-0124282Y0060122D02*
X-0124532Y0059872D01*
X-0124032D02*
X-0124282Y0060122D01*
X-0124532Y0059872D02*
X-0124032D01*
X-0131259Y0054655D02*
X-0131509Y0054405D01*
X-0131009D02*
X-0131259Y0054655D01*
X-0131509Y0054405D02*
X-0131009D01*
X-0131259Y0060477D02*
X-0131509Y0060227D01*
X-0131009D02*
X-0131259Y0060477D01*
X-0131509Y0060227D02*
X-0131009D01*
X-0134009Y0052739D02*
X-0134259Y0052489D01*
X-0133759D02*
X-0134009Y0052739D01*
X-0134259Y0052489D02*
X-0133759D01*
X-0134009Y0058560D02*
X-0134259Y0058310D01*
X-0133759D02*
X-0134009Y0058560D01*
X-0134259Y0058310D02*
X-0133759D01*
X-0137259Y0054655D02*
X-0137509Y0054405D01*
X-0137009D02*
X-0137259Y0054655D01*
X-0137509Y0054405D02*
X-0137009D01*
X-0137259Y0060477D02*
X-0137509Y0060227D01*
X-0137009D02*
X-0137259Y0060477D01*
X-0137509Y0060227D02*
X-0137009D01*
X-0132535Y0073604D02*
X-0132785Y0073354D01*
X-0132285D02*
X-0132535Y0073604D01*
X-0132785Y0073354D02*
X-0132285D01*
X-0132535Y0079425D02*
X-0132785Y0079175D01*
X-0132285D02*
X-0132535Y0079425D01*
X-0132785Y0079175D02*
X-0132285D01*
X-0130259Y0071655D02*
X-0130509Y0071405D01*
X-0130009D02*
X-0130259Y0071655D01*
X-0130509Y0071405D02*
X-0130009D01*
X-0130259Y0077477D02*
X-0130509Y0077227D01*
X-0130009D02*
X-0130259Y0077477D01*
X-0130509Y0077227D02*
X-0130009D01*
X-0136535Y0073604D02*
X-0136785Y0073354D01*
X-0136285D02*
X-0136535Y0073604D01*
X-0136785Y0073354D02*
X-0136285D01*
X-0136535Y0079425D02*
X-0136785Y0079175D01*
X-0136285D02*
X-0136535Y0079425D01*
X-0136785Y0079175D02*
X-0136285D01*
X-0139259Y0071655D02*
X-0139509Y0071405D01*
X-0139009D02*
X-0139259Y0071655D01*
X-0139509Y0071405D02*
X-0139009D01*
X-0139259Y0077477D02*
X-0139509Y0077227D01*
X-0139009D02*
X-0139259Y0077477D01*
X-0139509Y0077227D02*
X-0139009D01*
X-0057553Y0035062D02*
Y0034862D01*
X-0057403Y0035212D02*
X-0057553Y0035062D01*
X-0057203Y0035212D02*
X-0057403D01*
X-0057053Y0035062D02*
X-0057203Y0035212D01*
X-0057053Y0034862D02*
Y0035062D01*
X-0057203Y0034712D02*
X-0057053Y0034862D01*
X-0057403Y0034712D02*
X-0057203D01*
X-0057553Y0034862D02*
X-0057403Y0034712D01*
X-0057553Y0034062D02*
Y0033862D01*
X-0057403Y0034212D02*
X-0057553Y0034062D01*
X-0057203Y0034212D02*
X-0057403D01*
X-0057053Y0034062D02*
X-0057203Y0034212D01*
X-0057053Y0033862D02*
Y0034062D01*
X-0057203Y0033712D02*
X-0057053Y0033862D01*
X-0057403Y0033712D02*
X-0057203D01*
X-0057553Y0033862D02*
X-0057403Y0033712D01*
X-0057553Y0033062D02*
Y0032862D01*
X-0057403Y0033212D02*
X-0057553Y0033062D01*
X-0057203Y0033212D02*
X-0057403D01*
X-0057053Y0033062D02*
X-0057203Y0033212D01*
X-0057053Y0032862D02*
Y0033062D01*
X-0057203Y0032712D02*
X-0057053Y0032862D01*
X-0057403Y0032712D02*
X-0057203D01*
X-0057553Y0032862D02*
X-0057403Y0032712D01*
X-0057553Y0032062D02*
Y0031862D01*
X-0057403Y0032212D02*
X-0057553Y0032062D01*
X-0057203Y0032212D02*
X-0057403D01*
X-0057053Y0032062D02*
X-0057203Y0032212D01*
X-0057053Y0031862D02*
Y0032062D01*
X-0057203Y0031712D02*
X-0057053Y0031862D01*
X-0057403Y0031712D02*
X-0057203D01*
X-0057553Y0031862D02*
X-0057403Y0031712D01*
X-0057553Y0031062D02*
Y0030862D01*
X-0057403Y0031212D02*
X-0057553Y0031062D01*
X-0057203Y0031212D02*
X-0057403D01*
X-0057053Y0031062D02*
X-0057203Y0031212D01*
X-0057053Y0030862D02*
Y0031062D01*
X-0057203Y0030712D02*
X-0057053Y0030862D01*
X-0057403Y0030712D02*
X-0057203D01*
X-0057553Y0030862D02*
X-0057403Y0030712D01*
X-0057553Y0030062D02*
Y0029862D01*
X-0057403Y0030212D02*
X-0057553Y0030062D01*
X-0057203Y0030212D02*
X-0057403D01*
X-0057053Y0030062D02*
X-0057203Y0030212D01*
X-0057053Y0029862D02*
Y0030062D01*
X-0057203Y0029712D02*
X-0057053Y0029862D01*
X-0057403Y0029712D02*
X-0057203D01*
X-0057553Y0029862D02*
X-0057403Y0029712D01*
X-0057553Y0029062D02*
Y0028862D01*
X-0057403Y0029212D02*
X-0057553Y0029062D01*
X-0057203Y0029212D02*
X-0057403D01*
X-0057053Y0029062D02*
X-0057203Y0029212D01*
X-0057053Y0028862D02*
Y0029062D01*
X-0057203Y0028712D02*
X-0057053Y0028862D01*
X-0057403Y0028712D02*
X-0057203D01*
X-0057553Y0028862D02*
X-0057403Y0028712D01*
X-0057553Y0028062D02*
Y0027862D01*
X-0057403Y0028212D02*
X-0057553Y0028062D01*
X-0057203Y0028212D02*
X-0057403D01*
X-0057053Y0028062D02*
X-0057203Y0028212D01*
X-0057053Y0027862D02*
Y0028062D01*
X-0057203Y0027712D02*
X-0057053Y0027862D01*
X-0057403Y0027712D02*
X-0057203D01*
X-0057553Y0027862D02*
X-0057403Y0027712D01*
X-0054367Y0027943D02*
Y0027743D01*
X-0054217Y0028093D02*
X-0054367Y0027943D01*
X-0054017Y0028093D02*
X-0054217D01*
X-0053867Y0027943D02*
X-0054017Y0028093D01*
X-0053867Y0027743D02*
Y0027943D01*
X-0054017Y0027593D02*
X-0053867Y0027743D01*
X-0054217Y0027593D02*
X-0054017D01*
X-0054367Y0027743D02*
X-0054217Y0027593D01*
X-0054367Y0028943D02*
Y0028743D01*
X-0054217Y0029093D02*
X-0054367Y0028943D01*
X-0054017Y0029093D02*
X-0054217D01*
X-0053867Y0028943D02*
X-0054017Y0029093D01*
X-0053867Y0028743D02*
Y0028943D01*
X-0054017Y0028593D02*
X-0053867Y0028743D01*
X-0054217Y0028593D02*
X-0054017D01*
X-0054367Y0028743D02*
X-0054217Y0028593D01*
X-0054367Y0029943D02*
Y0029743D01*
X-0054217Y0030093D02*
X-0054367Y0029943D01*
X-0054017Y0030093D02*
X-0054217D01*
X-0053867Y0029943D02*
X-0054017Y0030093D01*
X-0053867Y0029743D02*
Y0029943D01*
X-0054017Y0029593D02*
X-0053867Y0029743D01*
X-0054217Y0029593D02*
X-0054017D01*
X-0054367Y0029743D02*
X-0054217Y0029593D01*
X-0054367Y0030943D02*
Y0030743D01*
X-0054217Y0031093D02*
X-0054367Y0030943D01*
X-0054017Y0031093D02*
X-0054217D01*
X-0053867Y0030943D02*
X-0054017Y0031093D01*
X-0053867Y0030743D02*
Y0030943D01*
X-0054017Y0030593D02*
X-0053867Y0030743D01*
X-0054217Y0030593D02*
X-0054017D01*
X-0054367Y0030743D02*
X-0054217Y0030593D01*
X-0054367Y0031943D02*
Y0031743D01*
X-0054217Y0032093D02*
X-0054367Y0031943D01*
X-0054017Y0032093D02*
X-0054217D01*
X-0053867Y0031943D02*
X-0054017Y0032093D01*
X-0053867Y0031743D02*
Y0031943D01*
X-0054017Y0031593D02*
X-0053867Y0031743D01*
X-0054217Y0031593D02*
X-0054017D01*
X-0054367Y0031743D02*
X-0054217Y0031593D01*
X-0054367Y0032943D02*
Y0032743D01*
X-0054217Y0033093D02*
X-0054367Y0032943D01*
X-0054017Y0033093D02*
X-0054217D01*
X-0053867Y0032943D02*
X-0054017Y0033093D01*
X-0053867Y0032743D02*
Y0032943D01*
X-0054017Y0032593D02*
X-0053867Y0032743D01*
X-0054217Y0032593D02*
X-0054017D01*
X-0054367Y0032743D02*
X-0054217Y0032593D01*
X-0054367Y0033943D02*
Y0033743D01*
X-0054217Y0034093D02*
X-0054367Y0033943D01*
X-0054017Y0034093D02*
X-0054217D01*
X-0053867Y0033943D02*
X-0054017Y0034093D01*
X-0053867Y0033743D02*
Y0033943D01*
X-0054017Y0033593D02*
X-0053867Y0033743D01*
X-0054217Y0033593D02*
X-0054017D01*
X-0054367Y0033743D02*
X-0054217Y0033593D01*
X-0054367Y0034943D02*
Y0034743D01*
X-0054217Y0035093D02*
X-0054367Y0034943D01*
X-0054017Y0035093D02*
X-0054217D01*
X-0053867Y0034943D02*
X-0054017Y0035093D01*
X-0053867Y0034743D02*
Y0034943D01*
X-0054017Y0034593D02*
X-0053867Y0034743D01*
X-0054217Y0034593D02*
X-0054017D01*
X-0054367Y0034743D02*
X-0054217Y0034593D01*
X-0082001Y0035298D02*
Y0035098D01*
X-0081851Y0035448D02*
X-0082001Y0035298D01*
X-0081651Y0035448D02*
X-0081851D01*
X-0081501Y0035298D02*
X-0081651Y0035448D01*
X-0081501Y0035098D02*
Y0035298D01*
X-0081651Y0034948D02*
X-0081501Y0035098D01*
X-0081851Y0034948D02*
X-0081651D01*
X-0082001Y0035098D02*
X-0081851Y0034948D01*
X-0082001Y0034298D02*
Y0034098D01*
X-0081851Y0034448D02*
X-0082001Y0034298D01*
X-0081651Y0034448D02*
X-0081851D01*
X-0081501Y0034298D02*
X-0081651Y0034448D01*
X-0081501Y0034098D02*
Y0034298D01*
X-0081651Y0033948D02*
X-0081501Y0034098D01*
X-0081851Y0033948D02*
X-0081651D01*
X-0082001Y0034098D02*
X-0081851Y0033948D01*
X-0082001Y0033298D02*
Y0033098D01*
X-0081851Y0033448D02*
X-0082001Y0033298D01*
X-0081651Y0033448D02*
X-0081851D01*
X-0081501Y0033298D02*
X-0081651Y0033448D01*
X-0081501Y0033098D02*
Y0033298D01*
X-0081651Y0032948D02*
X-0081501Y0033098D01*
X-0081851Y0032948D02*
X-0081651D01*
X-0082001Y0033098D02*
X-0081851Y0032948D01*
X-0082001Y0032298D02*
Y0032098D01*
X-0081851Y0032448D02*
X-0082001Y0032298D01*
X-0081651Y0032448D02*
X-0081851D01*
X-0081501Y0032298D02*
X-0081651Y0032448D01*
X-0081501Y0032098D02*
Y0032298D01*
X-0081651Y0031948D02*
X-0081501Y0032098D01*
X-0081851Y0031948D02*
X-0081651D01*
X-0082001Y0032098D02*
X-0081851Y0031948D01*
X-0082001Y0031298D02*
Y0031098D01*
X-0081851Y0031448D02*
X-0082001Y0031298D01*
X-0081651Y0031448D02*
X-0081851D01*
X-0081501Y0031298D02*
X-0081651Y0031448D01*
X-0081501Y0031098D02*
Y0031298D01*
X-0081651Y0030948D02*
X-0081501Y0031098D01*
X-0081851Y0030948D02*
X-0081651D01*
X-0082001Y0031098D02*
X-0081851Y0030948D01*
X-0082001Y0030298D02*
Y0030098D01*
X-0081851Y0030448D02*
X-0082001Y0030298D01*
X-0081651Y0030448D02*
X-0081851D01*
X-0081501Y0030298D02*
X-0081651Y0030448D01*
X-0081501Y0030098D02*
Y0030298D01*
X-0081651Y0029948D02*
X-0081501Y0030098D01*
X-0081851Y0029948D02*
X-0081651D01*
X-0082001Y0030098D02*
X-0081851Y0029948D01*
X-0082001Y0029298D02*
Y0029098D01*
X-0081851Y0029448D02*
X-0082001Y0029298D01*
X-0081651Y0029448D02*
X-0081851D01*
X-0081501Y0029298D02*
X-0081651Y0029448D01*
X-0081501Y0029098D02*
Y0029298D01*
X-0081651Y0028948D02*
X-0081501Y0029098D01*
X-0081851Y0028948D02*
X-0081651D01*
X-0082001Y0029098D02*
X-0081851Y0028948D01*
X-0082001Y0028298D02*
Y0028098D01*
X-0081851Y0028448D02*
X-0082001Y0028298D01*
X-0081651Y0028448D02*
X-0081851D01*
X-0081501Y0028298D02*
X-0081651Y0028448D01*
X-0081501Y0028098D02*
Y0028298D01*
X-0081651Y0027948D02*
X-0081501Y0028098D01*
X-0081851Y0027948D02*
X-0081651D01*
X-0082001Y0028098D02*
X-0081851Y0027948D01*
X-0078815Y0028179D02*
Y0027979D01*
X-0078665Y0028329D02*
X-0078815Y0028179D01*
X-0078465Y0028329D02*
X-0078665D01*
X-0078315Y0028179D02*
X-0078465Y0028329D01*
X-0078315Y0027979D02*
Y0028179D01*
X-0078465Y0027829D02*
X-0078315Y0027979D01*
X-0078665Y0027829D02*
X-0078465D01*
X-0078815Y0027979D02*
X-0078665Y0027829D01*
X-0078815Y0029179D02*
Y0028979D01*
X-0078665Y0029329D02*
X-0078815Y0029179D01*
X-0078465Y0029329D02*
X-0078665D01*
X-0078315Y0029179D02*
X-0078465Y0029329D01*
X-0078315Y0028979D02*
Y0029179D01*
X-0078465Y0028829D02*
X-0078315Y0028979D01*
X-0078665Y0028829D02*
X-0078465D01*
X-0078815Y0028979D02*
X-0078665Y0028829D01*
X-0078815Y0030179D02*
Y0029979D01*
X-0078665Y0030329D02*
X-0078815Y0030179D01*
X-0078465Y0030329D02*
X-0078665D01*
X-0078315Y0030179D02*
X-0078465Y0030329D01*
X-0078315Y0029979D02*
Y0030179D01*
X-0078465Y0029829D02*
X-0078315Y0029979D01*
X-0078665Y0029829D02*
X-0078465D01*
X-0078815Y0029979D02*
X-0078665Y0029829D01*
X-0078815Y0031179D02*
Y0030979D01*
X-0078665Y0031329D02*
X-0078815Y0031179D01*
X-0078465Y0031329D02*
X-0078665D01*
X-0078315Y0031179D02*
X-0078465Y0031329D01*
X-0078315Y0030979D02*
Y0031179D01*
X-0078465Y0030829D02*
X-0078315Y0030979D01*
X-0078665Y0030829D02*
X-0078465D01*
X-0078815Y0030979D02*
X-0078665Y0030829D01*
X-0078815Y0032179D02*
Y0031979D01*
X-0078665Y0032329D02*
X-0078815Y0032179D01*
X-0078465Y0032329D02*
X-0078665D01*
X-0078315Y0032179D02*
X-0078465Y0032329D01*
X-0078315Y0031979D02*
Y0032179D01*
X-0078465Y0031829D02*
X-0078315Y0031979D01*
X-0078665Y0031829D02*
X-0078465D01*
X-0078815Y0031979D02*
X-0078665Y0031829D01*
X-0078815Y0033179D02*
Y0032979D01*
X-0078665Y0033329D02*
X-0078815Y0033179D01*
X-0078465Y0033329D02*
X-0078665D01*
X-0078315Y0033179D02*
X-0078465Y0033329D01*
X-0078315Y0032979D02*
Y0033179D01*
X-0078465Y0032829D02*
X-0078315Y0032979D01*
X-0078665Y0032829D02*
X-0078465D01*
X-0078815Y0032979D02*
X-0078665Y0032829D01*
X-0078815Y0034179D02*
Y0033979D01*
X-0078665Y0034329D02*
X-0078815Y0034179D01*
X-0078465Y0034329D02*
X-0078665D01*
X-0078315Y0034179D02*
X-0078465Y0034329D01*
X-0078315Y0033979D02*
Y0034179D01*
X-0078465Y0033829D02*
X-0078315Y0033979D01*
X-0078665Y0033829D02*
X-0078465D01*
X-0078815Y0033979D02*
X-0078665Y0033829D01*
X-0078815Y0035179D02*
Y0034979D01*
X-0078665Y0035329D02*
X-0078815Y0035179D01*
X-0078465Y0035329D02*
X-0078665D01*
X-0078315Y0035179D02*
X-0078465Y0035329D01*
X-0078315Y0034979D02*
Y0035179D01*
X-0078465Y0034829D02*
X-0078315Y0034979D01*
X-0078665Y0034829D02*
X-0078465D01*
X-0078815Y0034979D02*
X-0078665Y0034829D01*
X-0113891Y0035535D02*
Y0035335D01*
X-0113741Y0035685D02*
X-0113891Y0035535D01*
X-0113541Y0035685D02*
X-0113741D01*
X-0113391Y0035535D02*
X-0113541Y0035685D01*
X-0113391Y0035335D02*
Y0035535D01*
X-0113541Y0035185D02*
X-0113391Y0035335D01*
X-0113741Y0035185D02*
X-0113541D01*
X-0113891Y0035335D02*
X-0113741Y0035185D01*
X-0113891Y0034535D02*
Y0034335D01*
X-0113741Y0034685D02*
X-0113891Y0034535D01*
X-0113541Y0034685D02*
X-0113741D01*
X-0113391Y0034535D02*
X-0113541Y0034685D01*
X-0113391Y0034335D02*
Y0034535D01*
X-0113541Y0034185D02*
X-0113391Y0034335D01*
X-0113741Y0034185D02*
X-0113541D01*
X-0113891Y0034335D02*
X-0113741Y0034185D01*
X-0113891Y0033535D02*
Y0033335D01*
X-0113741Y0033685D02*
X-0113891Y0033535D01*
X-0113541Y0033685D02*
X-0113741D01*
X-0113391Y0033535D02*
X-0113541Y0033685D01*
X-0113391Y0033335D02*
Y0033535D01*
X-0113541Y0033185D02*
X-0113391Y0033335D01*
X-0113741Y0033185D02*
X-0113541D01*
X-0113891Y0033335D02*
X-0113741Y0033185D01*
X-0113891Y0032535D02*
Y0032335D01*
X-0113741Y0032685D02*
X-0113891Y0032535D01*
X-0113541Y0032685D02*
X-0113741D01*
X-0113391Y0032535D02*
X-0113541Y0032685D01*
X-0113391Y0032335D02*
Y0032535D01*
X-0113541Y0032185D02*
X-0113391Y0032335D01*
X-0113741Y0032185D02*
X-0113541D01*
X-0113891Y0032335D02*
X-0113741Y0032185D01*
X-0113891Y0031535D02*
Y0031335D01*
X-0113741Y0031685D02*
X-0113891Y0031535D01*
X-0113541Y0031685D02*
X-0113741D01*
X-0113391Y0031535D02*
X-0113541Y0031685D01*
X-0113391Y0031335D02*
Y0031535D01*
X-0113541Y0031185D02*
X-0113391Y0031335D01*
X-0113741Y0031185D02*
X-0113541D01*
X-0113891Y0031335D02*
X-0113741Y0031185D01*
X-0113891Y0030535D02*
Y0030335D01*
X-0113741Y0030685D02*
X-0113891Y0030535D01*
X-0113541Y0030685D02*
X-0113741D01*
X-0113391Y0030535D02*
X-0113541Y0030685D01*
X-0113391Y0030335D02*
Y0030535D01*
X-0113541Y0030185D02*
X-0113391Y0030335D01*
X-0113741Y0030185D02*
X-0113541D01*
X-0113891Y0030335D02*
X-0113741Y0030185D01*
X-0113891Y0029535D02*
Y0029335D01*
X-0113741Y0029685D02*
X-0113891Y0029535D01*
X-0113541Y0029685D02*
X-0113741D01*
X-0113391Y0029535D02*
X-0113541Y0029685D01*
X-0113391Y0029335D02*
Y0029535D01*
X-0113541Y0029185D02*
X-0113391Y0029335D01*
X-0113741Y0029185D02*
X-0113541D01*
X-0113891Y0029335D02*
X-0113741Y0029185D01*
X-0113891Y0028535D02*
Y0028335D01*
X-0113741Y0028685D02*
X-0113891Y0028535D01*
X-0113541Y0028685D02*
X-0113741D01*
X-0113391Y0028535D02*
X-0113541Y0028685D01*
X-0113391Y0028335D02*
Y0028535D01*
X-0113541Y0028185D02*
X-0113391Y0028335D01*
X-0113741Y0028185D02*
X-0113541D01*
X-0113891Y0028335D02*
X-0113741Y0028185D01*
X-0110705Y0028415D02*
Y0028215D01*
X-0110555Y0028565D02*
X-0110705Y0028415D01*
X-0110355Y0028565D02*
X-0110555D01*
X-0110205Y0028415D02*
X-0110355Y0028565D01*
X-0110205Y0028215D02*
Y0028415D01*
X-0110355Y0028065D02*
X-0110205Y0028215D01*
X-0110555Y0028065D02*
X-0110355D01*
X-0110705Y0028215D02*
X-0110555Y0028065D01*
X-0110705Y0029415D02*
Y0029215D01*
X-0110555Y0029565D02*
X-0110705Y0029415D01*
X-0110355Y0029565D02*
X-0110555D01*
X-0110205Y0029415D02*
X-0110355Y0029565D01*
X-0110205Y0029215D02*
Y0029415D01*
X-0110355Y0029065D02*
X-0110205Y0029215D01*
X-0110555Y0029065D02*
X-0110355D01*
X-0110705Y0029215D02*
X-0110555Y0029065D01*
X-0110705Y0030415D02*
Y0030215D01*
X-0110555Y0030565D02*
X-0110705Y0030415D01*
X-0110355Y0030565D02*
X-0110555D01*
X-0110205Y0030415D02*
X-0110355Y0030565D01*
X-0110205Y0030215D02*
Y0030415D01*
X-0110355Y0030065D02*
X-0110205Y0030215D01*
X-0110555Y0030065D02*
X-0110355D01*
X-0110705Y0030215D02*
X-0110555Y0030065D01*
X-0110705Y0031415D02*
Y0031215D01*
X-0110555Y0031565D02*
X-0110705Y0031415D01*
X-0110355Y0031565D02*
X-0110555D01*
X-0110205Y0031415D02*
X-0110355Y0031565D01*
X-0110205Y0031215D02*
Y0031415D01*
X-0110355Y0031065D02*
X-0110205Y0031215D01*
X-0110555Y0031065D02*
X-0110355D01*
X-0110705Y0031215D02*
X-0110555Y0031065D01*
X-0110705Y0032415D02*
Y0032215D01*
X-0110555Y0032565D02*
X-0110705Y0032415D01*
X-0110355Y0032565D02*
X-0110555D01*
X-0110205Y0032415D02*
X-0110355Y0032565D01*
X-0110205Y0032215D02*
Y0032415D01*
X-0110355Y0032065D02*
X-0110205Y0032215D01*
X-0110555Y0032065D02*
X-0110355D01*
X-0110705Y0032215D02*
X-0110555Y0032065D01*
X-0110705Y0033415D02*
Y0033215D01*
X-0110555Y0033565D02*
X-0110705Y0033415D01*
X-0110355Y0033565D02*
X-0110555D01*
X-0110205Y0033415D02*
X-0110355Y0033565D01*
X-0110205Y0033215D02*
Y0033415D01*
X-0110355Y0033065D02*
X-0110205Y0033215D01*
X-0110555Y0033065D02*
X-0110355D01*
X-0110705Y0033215D02*
X-0110555Y0033065D01*
X-0110705Y0034415D02*
Y0034215D01*
X-0110555Y0034565D02*
X-0110705Y0034415D01*
X-0110355Y0034565D02*
X-0110555D01*
X-0110205Y0034415D02*
X-0110355Y0034565D01*
X-0110205Y0034215D02*
Y0034415D01*
X-0110355Y0034065D02*
X-0110205Y0034215D01*
X-0110555Y0034065D02*
X-0110355D01*
X-0110705Y0034215D02*
X-0110555Y0034065D01*
X-0110705Y0035415D02*
Y0035215D01*
X-0110555Y0035565D02*
X-0110705Y0035415D01*
X-0110355Y0035565D02*
X-0110555D01*
X-0110205Y0035415D02*
X-0110355Y0035565D01*
X-0110205Y0035215D02*
Y0035415D01*
X-0110355Y0035065D02*
X-0110205Y0035215D01*
X-0110555Y0035065D02*
X-0110355D01*
X-0110705Y0035215D02*
X-0110555Y0035065D01*
X-0130663Y0035417D02*
Y0035217D01*
X-0130513Y0035567D02*
X-0130663Y0035417D01*
X-0130313Y0035567D02*
X-0130513D01*
X-0130163Y0035417D02*
X-0130313Y0035567D01*
X-0130163Y0035217D02*
Y0035417D01*
X-0130313Y0035067D02*
X-0130163Y0035217D01*
X-0130513Y0035067D02*
X-0130313D01*
X-0130663Y0035217D02*
X-0130513Y0035067D01*
X-0130663Y0034417D02*
Y0034217D01*
X-0130513Y0034567D02*
X-0130663Y0034417D01*
X-0130313Y0034567D02*
X-0130513D01*
X-0130163Y0034417D02*
X-0130313Y0034567D01*
X-0130163Y0034217D02*
Y0034417D01*
X-0130313Y0034067D02*
X-0130163Y0034217D01*
X-0130513Y0034067D02*
X-0130313D01*
X-0130663Y0034217D02*
X-0130513Y0034067D01*
X-0130663Y0033417D02*
Y0033217D01*
X-0130513Y0033567D02*
X-0130663Y0033417D01*
X-0130313Y0033567D02*
X-0130513D01*
X-0130163Y0033417D02*
X-0130313Y0033567D01*
X-0130163Y0033217D02*
Y0033417D01*
X-0130313Y0033067D02*
X-0130163Y0033217D01*
X-0130513Y0033067D02*
X-0130313D01*
X-0130663Y0033217D02*
X-0130513Y0033067D01*
X-0130663Y0032417D02*
Y0032217D01*
X-0130513Y0032567D02*
X-0130663Y0032417D01*
X-0130313Y0032567D02*
X-0130513D01*
X-0130163Y0032417D02*
X-0130313Y0032567D01*
X-0130163Y0032217D02*
Y0032417D01*
X-0130313Y0032067D02*
X-0130163Y0032217D01*
X-0130513Y0032067D02*
X-0130313D01*
X-0130663Y0032217D02*
X-0130513Y0032067D01*
X-0130663Y0031417D02*
Y0031217D01*
X-0130513Y0031567D02*
X-0130663Y0031417D01*
X-0130313Y0031567D02*
X-0130513D01*
X-0130163Y0031417D02*
X-0130313Y0031567D01*
X-0130163Y0031217D02*
Y0031417D01*
X-0130313Y0031067D02*
X-0130163Y0031217D01*
X-0130513Y0031067D02*
X-0130313D01*
X-0130663Y0031217D02*
X-0130513Y0031067D01*
X-0130663Y0030417D02*
Y0030217D01*
X-0130513Y0030567D02*
X-0130663Y0030417D01*
X-0130313Y0030567D02*
X-0130513D01*
X-0130163Y0030417D02*
X-0130313Y0030567D01*
X-0130163Y0030217D02*
Y0030417D01*
X-0130313Y0030067D02*
X-0130163Y0030217D01*
X-0130513Y0030067D02*
X-0130313D01*
X-0130663Y0030217D02*
X-0130513Y0030067D01*
X-0130663Y0029417D02*
Y0029217D01*
X-0130513Y0029567D02*
X-0130663Y0029417D01*
X-0130313Y0029567D02*
X-0130513D01*
X-0130163Y0029417D02*
X-0130313Y0029567D01*
X-0130163Y0029217D02*
Y0029417D01*
X-0130313Y0029067D02*
X-0130163Y0029217D01*
X-0130513Y0029067D02*
X-0130313D01*
X-0130663Y0029217D02*
X-0130513Y0029067D01*
X-0130663Y0028417D02*
Y0028217D01*
X-0130513Y0028567D02*
X-0130663Y0028417D01*
X-0130313Y0028567D02*
X-0130513D01*
X-0130163Y0028417D02*
X-0130313Y0028567D01*
X-0130163Y0028217D02*
Y0028417D01*
X-0130313Y0028067D02*
X-0130163Y0028217D01*
X-0130513Y0028067D02*
X-0130313D01*
X-0130663Y0028217D02*
X-0130513Y0028067D01*
X-0127477Y0028297D02*
Y0028097D01*
X-0127327Y0028447D02*
X-0127477Y0028297D01*
X-0127127Y0028447D02*
X-0127327D01*
X-0126977Y0028297D02*
X-0127127Y0028447D01*
X-0126977Y0028097D02*
Y0028297D01*
X-0127127Y0027947D02*
X-0126977Y0028097D01*
X-0127327Y0027947D02*
X-0127127D01*
X-0127477Y0028097D02*
X-0127327Y0027947D01*
X-0127477Y0029297D02*
Y0029097D01*
X-0127327Y0029447D02*
X-0127477Y0029297D01*
X-0127127Y0029447D02*
X-0127327D01*
X-0126977Y0029297D02*
X-0127127Y0029447D01*
X-0126977Y0029097D02*
Y0029297D01*
X-0127127Y0028947D02*
X-0126977Y0029097D01*
X-0127327Y0028947D02*
X-0127127D01*
X-0127477Y0029097D02*
X-0127327Y0028947D01*
X-0127477Y0030297D02*
Y0030097D01*
X-0127327Y0030447D02*
X-0127477Y0030297D01*
X-0127127Y0030447D02*
X-0127327D01*
X-0126977Y0030297D02*
X-0127127Y0030447D01*
X-0126977Y0030097D02*
Y0030297D01*
X-0127127Y0029947D02*
X-0126977Y0030097D01*
X-0127327Y0029947D02*
X-0127127D01*
X-0127477Y0030097D02*
X-0127327Y0029947D01*
X-0127477Y0031297D02*
Y0031097D01*
X-0127327Y0031447D02*
X-0127477Y0031297D01*
X-0127127Y0031447D02*
X-0127327D01*
X-0126977Y0031297D02*
X-0127127Y0031447D01*
X-0126977Y0031097D02*
Y0031297D01*
X-0127127Y0030947D02*
X-0126977Y0031097D01*
X-0127327Y0030947D02*
X-0127127D01*
X-0127477Y0031097D02*
X-0127327Y0030947D01*
X-0127477Y0032297D02*
Y0032097D01*
X-0127327Y0032447D02*
X-0127477Y0032297D01*
X-0127127Y0032447D02*
X-0127327D01*
X-0126977Y0032297D02*
X-0127127Y0032447D01*
X-0126977Y0032097D02*
Y0032297D01*
X-0127127Y0031947D02*
X-0126977Y0032097D01*
X-0127327Y0031947D02*
X-0127127D01*
X-0127477Y0032097D02*
X-0127327Y0031947D01*
X-0127477Y0033297D02*
Y0033097D01*
X-0127327Y0033447D02*
X-0127477Y0033297D01*
X-0127127Y0033447D02*
X-0127327D01*
X-0126977Y0033297D02*
X-0127127Y0033447D01*
X-0126977Y0033097D02*
Y0033297D01*
X-0127127Y0032947D02*
X-0126977Y0033097D01*
X-0127327Y0032947D02*
X-0127127D01*
X-0127477Y0033097D02*
X-0127327Y0032947D01*
X-0127477Y0034297D02*
Y0034097D01*
X-0127327Y0034447D02*
X-0127477Y0034297D01*
X-0127127Y0034447D02*
X-0127327D01*
X-0126977Y0034297D02*
X-0127127Y0034447D01*
X-0126977Y0034097D02*
Y0034297D01*
X-0127127Y0033947D02*
X-0126977Y0034097D01*
X-0127327Y0033947D02*
X-0127127D01*
X-0127477Y0034097D02*
X-0127327Y0033947D01*
X-0127477Y0035297D02*
Y0035097D01*
X-0127327Y0035447D02*
X-0127477Y0035297D01*
X-0127127Y0035447D02*
X-0127327D01*
X-0126977Y0035297D02*
X-0127127Y0035447D01*
X-0126977Y0035097D02*
Y0035297D01*
X-0127127Y0034947D02*
X-0126977Y0035097D01*
X-0127327Y0034947D02*
X-0127127D01*
X-0127477Y0035097D02*
X-0127327Y0034947D01*
X-0146003Y0074898D02*
Y0074398D01*
X-0145503Y0074898D02*
X-0146003D01*
X-0145503Y0074398D02*
Y0074898D01*
X-0146003Y0074398D02*
X-0145503D01*
Y0074648D02*
X-0146003D01*
X-0145753Y0074898D02*
Y0074398D01*
X-0144155Y0073718D02*
Y0073218D01*
X-0143655Y0073718D02*
X-0144155D01*
X-0143655Y0073218D02*
Y0073718D01*
X-0144155Y0073218D02*
X-0143655D01*
Y0073468D02*
X-0144155D01*
X-0143905Y0073718D02*
Y0073218D01*
X-0144155Y0076078D02*
Y0075578D01*
X-0143655Y0076078D02*
X-0144155D01*
X-0143655Y0075578D02*
Y0076078D01*
X-0144155Y0075578D02*
X-0143655D01*
Y0075828D02*
X-0144155D01*
X-0143905Y0076078D02*
Y0075578D01*
X-0048441Y0044629D02*
Y0044429D01*
X-0048291Y0044779D02*
X-0048441Y0044629D01*
X-0048091Y0044779D02*
X-0048291D01*
X-0047941Y0044629D02*
X-0048091Y0044779D01*
X-0047941Y0044429D02*
Y0044629D01*
X-0048091Y0044279D02*
X-0047941Y0044429D01*
X-0048291Y0044279D02*
X-0048091D01*
X-0048441Y0044429D02*
X-0048291Y0044279D01*
X-0047441Y0044629D02*
Y0044429D01*
X-0047291Y0044779D02*
X-0047441Y0044629D01*
X-0047091Y0044779D02*
X-0047291D01*
X-0046941Y0044629D02*
X-0047091Y0044779D01*
X-0046941Y0044429D02*
Y0044629D01*
X-0047091Y0044279D02*
X-0046941Y0044429D01*
X-0047291Y0044279D02*
X-0047091D01*
X-0047441Y0044429D02*
X-0047291Y0044279D01*
X-0046441Y0044629D02*
Y0044429D01*
X-0046291Y0044779D02*
X-0046441Y0044629D01*
X-0046091Y0044779D02*
X-0046291D01*
X-0045941Y0044629D02*
X-0046091Y0044779D01*
X-0045941Y0044429D02*
Y0044629D01*
X-0046091Y0044279D02*
X-0045941Y0044429D01*
X-0046291Y0044279D02*
X-0046091D01*
X-0046441Y0044429D02*
X-0046291Y0044279D01*
X-0045441Y0044629D02*
Y0044429D01*
X-0045291Y0044779D02*
X-0045441Y0044629D01*
X-0045091Y0044779D02*
X-0045291D01*
X-0044941Y0044629D02*
X-0045091Y0044779D01*
X-0044941Y0044429D02*
Y0044629D01*
X-0045091Y0044279D02*
X-0044941Y0044429D01*
X-0045291Y0044279D02*
X-0045091D01*
X-0045441Y0044429D02*
X-0045291Y0044279D01*
X-0044441Y0044629D02*
Y0044429D01*
X-0044291Y0044779D02*
X-0044441Y0044629D01*
X-0044091Y0044779D02*
X-0044291D01*
X-0043941Y0044629D02*
X-0044091Y0044779D01*
X-0043941Y0044429D02*
Y0044629D01*
X-0044091Y0044279D02*
X-0043941Y0044429D01*
X-0044291Y0044279D02*
X-0044091D01*
X-0044441Y0044429D02*
X-0044291Y0044279D01*
X-0043441Y0044629D02*
Y0044429D01*
X-0043291Y0044779D02*
X-0043441Y0044629D01*
X-0043091Y0044779D02*
X-0043291D01*
X-0042941Y0044629D02*
X-0043091Y0044779D01*
X-0042941Y0044429D02*
Y0044629D01*
X-0043091Y0044279D02*
X-0042941Y0044429D01*
X-0043291Y0044279D02*
X-0043091D01*
X-0043441Y0044429D02*
X-0043291Y0044279D01*
X-0042441Y0044629D02*
Y0044429D01*
X-0042291Y0044779D02*
X-0042441Y0044629D01*
X-0042091Y0044779D02*
X-0042291D01*
X-0041941Y0044629D02*
X-0042091Y0044779D01*
X-0041941Y0044429D02*
Y0044629D01*
X-0042091Y0044279D02*
X-0041941Y0044429D01*
X-0042291Y0044279D02*
X-0042091D01*
X-0042441Y0044429D02*
X-0042291Y0044279D01*
X-0041441Y0044629D02*
Y0044429D01*
X-0041291Y0044779D02*
X-0041441Y0044629D01*
X-0041091Y0044779D02*
X-0041291D01*
X-0040941Y0044629D02*
X-0041091Y0044779D01*
X-0040941Y0044429D02*
Y0044629D01*
X-0041091Y0044279D02*
X-0040941Y0044429D01*
X-0041291Y0044279D02*
X-0041091D01*
X-0041441Y0044429D02*
X-0041291Y0044279D01*
X-0041518Y0048563D02*
Y0048363D01*
X-0041368Y0048713D02*
X-0041518Y0048563D01*
X-0041168Y0048713D02*
X-0041368D01*
X-0041018Y0048563D02*
X-0041168Y0048713D01*
X-0041018Y0048363D02*
Y0048563D01*
X-0041168Y0048213D02*
X-0041018Y0048363D01*
X-0041368Y0048213D02*
X-0041168D01*
X-0041518Y0048363D02*
X-0041368Y0048213D01*
X-0042501Y0048602D02*
Y0048402D01*
X-0042351Y0048752D02*
X-0042501Y0048602D01*
X-0042151Y0048752D02*
X-0042351D01*
X-0042001Y0048602D02*
X-0042151Y0048752D01*
X-0042001Y0048402D02*
Y0048602D01*
X-0042151Y0048252D02*
X-0042001Y0048402D01*
X-0042351Y0048252D02*
X-0042151D01*
X-0042501Y0048402D02*
X-0042351Y0048252D01*
X-0043524Y0048602D02*
Y0048402D01*
X-0043374Y0048752D02*
X-0043524Y0048602D01*
X-0043174Y0048752D02*
X-0043374D01*
X-0043024Y0048602D02*
X-0043174Y0048752D01*
X-0043024Y0048402D02*
Y0048602D01*
X-0043174Y0048252D02*
X-0043024Y0048402D01*
X-0043374Y0048252D02*
X-0043174D01*
X-0043524Y0048402D02*
X-0043374Y0048252D01*
X-0044507Y0048563D02*
Y0048363D01*
X-0044357Y0048713D02*
X-0044507Y0048563D01*
X-0044157Y0048713D02*
X-0044357D01*
X-0044007Y0048563D02*
X-0044157Y0048713D01*
X-0044007Y0048363D02*
Y0048563D01*
X-0044157Y0048213D02*
X-0044007Y0048363D01*
X-0044357Y0048213D02*
X-0044157D01*
X-0044507Y0048363D02*
X-0044357Y0048213D01*
X-0045569Y0048563D02*
Y0048363D01*
X-0045419Y0048713D02*
X-0045569Y0048563D01*
X-0045219Y0048713D02*
X-0045419D01*
X-0045069Y0048563D02*
X-0045219Y0048713D01*
X-0045069Y0048363D02*
Y0048563D01*
X-0045219Y0048213D02*
X-0045069Y0048363D01*
X-0045419Y0048213D02*
X-0045219D01*
X-0045569Y0048363D02*
X-0045419Y0048213D01*
X-0046553Y0048602D02*
Y0048402D01*
X-0046403Y0048752D02*
X-0046553Y0048602D01*
X-0046203Y0048752D02*
X-0046403D01*
X-0046053Y0048602D02*
X-0046203Y0048752D01*
X-0046053Y0048402D02*
Y0048602D01*
X-0046203Y0048252D02*
X-0046053Y0048402D01*
X-0046403Y0048252D02*
X-0046203D01*
X-0046553Y0048402D02*
X-0046403Y0048252D01*
X-0047536Y0048602D02*
Y0048402D01*
X-0047386Y0048752D02*
X-0047536Y0048602D01*
X-0047186Y0048752D02*
X-0047386D01*
X-0047036Y0048602D02*
X-0047186Y0048752D01*
X-0047036Y0048402D02*
Y0048602D01*
X-0047186Y0048252D02*
X-0047036Y0048402D01*
X-0047386Y0048252D02*
X-0047186D01*
X-0047536Y0048402D02*
X-0047386Y0048252D01*
X-0048441Y0048563D02*
Y0048363D01*
X-0048291Y0048713D02*
X-0048441Y0048563D01*
X-0048091Y0048713D02*
X-0048291D01*
X-0047941Y0048563D02*
X-0048091Y0048713D01*
X-0047941Y0048363D02*
Y0048563D01*
X-0048091Y0048213D02*
X-0047941Y0048363D01*
X-0048291Y0048213D02*
X-0048091D01*
X-0048441Y0048363D02*
X-0048291Y0048213D01*
X-0060908Y0044154D02*
Y0043954D01*
X-0060758Y0044304D02*
X-0060908Y0044154D01*
X-0060558Y0044304D02*
X-0060758D01*
X-0060408Y0044154D02*
X-0060558Y0044304D01*
X-0060408Y0043954D02*
Y0044154D01*
X-0060558Y0043804D02*
X-0060408Y0043954D01*
X-0060758Y0043804D02*
X-0060558D01*
X-0060908Y0043954D02*
X-0060758Y0043804D01*
X-0059908Y0044154D02*
Y0043954D01*
X-0059758Y0044304D02*
X-0059908Y0044154D01*
X-0059558Y0044304D02*
X-0059758D01*
X-0059408Y0044154D02*
X-0059558Y0044304D01*
X-0059408Y0043954D02*
Y0044154D01*
X-0059558Y0043804D02*
X-0059408Y0043954D01*
X-0059758Y0043804D02*
X-0059558D01*
X-0059908Y0043954D02*
X-0059758Y0043804D01*
X-0058908Y0044154D02*
Y0043954D01*
X-0058758Y0044304D02*
X-0058908Y0044154D01*
X-0058558Y0044304D02*
X-0058758D01*
X-0058408Y0044154D02*
X-0058558Y0044304D01*
X-0058408Y0043954D02*
Y0044154D01*
X-0058558Y0043804D02*
X-0058408Y0043954D01*
X-0058758Y0043804D02*
X-0058558D01*
X-0058908Y0043954D02*
X-0058758Y0043804D01*
X-0057908Y0044154D02*
Y0043954D01*
X-0057758Y0044304D02*
X-0057908Y0044154D01*
X-0057558Y0044304D02*
X-0057758D01*
X-0057408Y0044154D02*
X-0057558Y0044304D01*
X-0057408Y0043954D02*
Y0044154D01*
X-0057558Y0043804D02*
X-0057408Y0043954D01*
X-0057758Y0043804D02*
X-0057558D01*
X-0057908Y0043954D02*
X-0057758Y0043804D01*
X-0056908Y0044154D02*
Y0043954D01*
X-0056758Y0044304D02*
X-0056908Y0044154D01*
X-0056558Y0044304D02*
X-0056758D01*
X-0056408Y0044154D02*
X-0056558Y0044304D01*
X-0056408Y0043954D02*
Y0044154D01*
X-0056558Y0043804D02*
X-0056408Y0043954D01*
X-0056758Y0043804D02*
X-0056558D01*
X-0056908Y0043954D02*
X-0056758Y0043804D01*
X-0055908Y0044154D02*
Y0043954D01*
X-0055758Y0044304D02*
X-0055908Y0044154D01*
X-0055558Y0044304D02*
X-0055758D01*
X-0055408Y0044154D02*
X-0055558Y0044304D01*
X-0055408Y0043954D02*
Y0044154D01*
X-0055558Y0043804D02*
X-0055408Y0043954D01*
X-0055758Y0043804D02*
X-0055558D01*
X-0055908Y0043954D02*
X-0055758Y0043804D01*
X-0054908Y0044154D02*
Y0043954D01*
X-0054758Y0044304D02*
X-0054908Y0044154D01*
X-0054558Y0044304D02*
X-0054758D01*
X-0054408Y0044154D02*
X-0054558Y0044304D01*
X-0054408Y0043954D02*
Y0044154D01*
X-0054558Y0043804D02*
X-0054408Y0043954D01*
X-0054758Y0043804D02*
X-0054558D01*
X-0054908Y0043954D02*
X-0054758Y0043804D01*
X-0053908Y0044154D02*
Y0043954D01*
X-0053758Y0044304D02*
X-0053908Y0044154D01*
X-0053558Y0044304D02*
X-0053758D01*
X-0053408Y0044154D02*
X-0053558Y0044304D01*
X-0053408Y0043954D02*
Y0044154D01*
X-0053558Y0043804D02*
X-0053408Y0043954D01*
X-0053758Y0043804D02*
X-0053558D01*
X-0053908Y0043954D02*
X-0053758Y0043804D01*
X-0053986Y0048088D02*
Y0047888D01*
X-0053836Y0048238D02*
X-0053986Y0048088D01*
X-0053636Y0048238D02*
X-0053836D01*
X-0053486Y0048088D02*
X-0053636Y0048238D01*
X-0053486Y0047888D02*
Y0048088D01*
X-0053636Y0047738D02*
X-0053486Y0047888D01*
X-0053836Y0047738D02*
X-0053636D01*
X-0053986Y0047888D02*
X-0053836Y0047738D01*
X-0054969Y0048127D02*
Y0047927D01*
X-0054819Y0048277D02*
X-0054969Y0048127D01*
X-0054619Y0048277D02*
X-0054819D01*
X-0054469Y0048127D02*
X-0054619Y0048277D01*
X-0054469Y0047927D02*
Y0048127D01*
X-0054619Y0047777D02*
X-0054469Y0047927D01*
X-0054819Y0047777D02*
X-0054619D01*
X-0054969Y0047927D02*
X-0054819Y0047777D01*
X-0055992Y0048127D02*
Y0047927D01*
X-0055842Y0048277D02*
X-0055992Y0048127D01*
X-0055642Y0048277D02*
X-0055842D01*
X-0055492Y0048127D02*
X-0055642Y0048277D01*
X-0055492Y0047927D02*
Y0048127D01*
X-0055642Y0047777D02*
X-0055492Y0047927D01*
X-0055842Y0047777D02*
X-0055642D01*
X-0055992Y0047927D02*
X-0055842Y0047777D01*
X-0056975Y0048088D02*
Y0047888D01*
X-0056825Y0048238D02*
X-0056975Y0048088D01*
X-0056625Y0048238D02*
X-0056825D01*
X-0056475Y0048088D02*
X-0056625Y0048238D01*
X-0056475Y0047888D02*
Y0048088D01*
X-0056625Y0047738D02*
X-0056475Y0047888D01*
X-0056825Y0047738D02*
X-0056625D01*
X-0056975Y0047888D02*
X-0056825Y0047738D01*
X-0058037Y0048088D02*
Y0047888D01*
X-0057887Y0048238D02*
X-0058037Y0048088D01*
X-0057687Y0048238D02*
X-0057887D01*
X-0057537Y0048088D02*
X-0057687Y0048238D01*
X-0057537Y0047888D02*
Y0048088D01*
X-0057687Y0047738D02*
X-0057537Y0047888D01*
X-0057887Y0047738D02*
X-0057687D01*
X-0058037Y0047888D02*
X-0057887Y0047738D01*
X-0059020Y0048127D02*
Y0047927D01*
X-0058870Y0048277D02*
X-0059020Y0048127D01*
X-0058670Y0048277D02*
X-0058870D01*
X-0058520Y0048127D02*
X-0058670Y0048277D01*
X-0058520Y0047927D02*
Y0048127D01*
X-0058670Y0047777D02*
X-0058520Y0047927D01*
X-0058870Y0047777D02*
X-0058670D01*
X-0059020Y0047927D02*
X-0058870Y0047777D01*
X-0060004Y0048127D02*
Y0047927D01*
X-0059854Y0048277D02*
X-0060004Y0048127D01*
X-0059654Y0048277D02*
X-0059854D01*
X-0059504Y0048127D02*
X-0059654Y0048277D01*
X-0059504Y0047927D02*
Y0048127D01*
X-0059654Y0047777D02*
X-0059504Y0047927D01*
X-0059854Y0047777D02*
X-0059654D01*
X-0060004Y0047927D02*
X-0059854Y0047777D01*
X-0060908Y0048088D02*
Y0047888D01*
X-0060758Y0048238D02*
X-0060908Y0048088D01*
X-0060558Y0048238D02*
X-0060758D01*
X-0060408Y0048088D02*
X-0060558Y0048238D01*
X-0060408Y0047888D02*
Y0048088D01*
X-0060558Y0047738D02*
X-0060408Y0047888D01*
X-0060758Y0047738D02*
X-0060558D01*
X-0060908Y0047888D02*
X-0060758Y0047738D01*
X-0074792Y0044037D02*
Y0043837D01*
X-0074642Y0044187D02*
X-0074792Y0044037D01*
X-0074442Y0044187D02*
X-0074642D01*
X-0074292Y0044037D02*
X-0074442Y0044187D01*
X-0074292Y0043837D02*
Y0044037D01*
X-0074442Y0043687D02*
X-0074292Y0043837D01*
X-0074642Y0043687D02*
X-0074442D01*
X-0074792Y0043837D02*
X-0074642Y0043687D01*
X-0073792Y0044037D02*
Y0043837D01*
X-0073642Y0044187D02*
X-0073792Y0044037D01*
X-0073442Y0044187D02*
X-0073642D01*
X-0073292Y0044037D02*
X-0073442Y0044187D01*
X-0073292Y0043837D02*
Y0044037D01*
X-0073442Y0043687D02*
X-0073292Y0043837D01*
X-0073642Y0043687D02*
X-0073442D01*
X-0073792Y0043837D02*
X-0073642Y0043687D01*
X-0072792Y0044037D02*
Y0043837D01*
X-0072642Y0044187D02*
X-0072792Y0044037D01*
X-0072442Y0044187D02*
X-0072642D01*
X-0072292Y0044037D02*
X-0072442Y0044187D01*
X-0072292Y0043837D02*
Y0044037D01*
X-0072442Y0043687D02*
X-0072292Y0043837D01*
X-0072642Y0043687D02*
X-0072442D01*
X-0072792Y0043837D02*
X-0072642Y0043687D01*
X-0071792Y0044037D02*
Y0043837D01*
X-0071642Y0044187D02*
X-0071792Y0044037D01*
X-0071442Y0044187D02*
X-0071642D01*
X-0071292Y0044037D02*
X-0071442Y0044187D01*
X-0071292Y0043837D02*
Y0044037D01*
X-0071442Y0043687D02*
X-0071292Y0043837D01*
X-0071642Y0043687D02*
X-0071442D01*
X-0071792Y0043837D02*
X-0071642Y0043687D01*
X-0070792Y0044037D02*
Y0043837D01*
X-0070642Y0044187D02*
X-0070792Y0044037D01*
X-0070442Y0044187D02*
X-0070642D01*
X-0070292Y0044037D02*
X-0070442Y0044187D01*
X-0070292Y0043837D02*
Y0044037D01*
X-0070442Y0043687D02*
X-0070292Y0043837D01*
X-0070642Y0043687D02*
X-0070442D01*
X-0070792Y0043837D02*
X-0070642Y0043687D01*
X-0069792Y0044037D02*
Y0043837D01*
X-0069642Y0044187D02*
X-0069792Y0044037D01*
X-0069442Y0044187D02*
X-0069642D01*
X-0069292Y0044037D02*
X-0069442Y0044187D01*
X-0069292Y0043837D02*
Y0044037D01*
X-0069442Y0043687D02*
X-0069292Y0043837D01*
X-0069642Y0043687D02*
X-0069442D01*
X-0069792Y0043837D02*
X-0069642Y0043687D01*
X-0068792Y0044037D02*
Y0043837D01*
X-0068642Y0044187D02*
X-0068792Y0044037D01*
X-0068442Y0044187D02*
X-0068642D01*
X-0068292Y0044037D02*
X-0068442Y0044187D01*
X-0068292Y0043837D02*
Y0044037D01*
X-0068442Y0043687D02*
X-0068292Y0043837D01*
X-0068642Y0043687D02*
X-0068442D01*
X-0068792Y0043837D02*
X-0068642Y0043687D01*
X-0067792Y0044037D02*
Y0043837D01*
X-0067642Y0044187D02*
X-0067792Y0044037D01*
X-0067442Y0044187D02*
X-0067642D01*
X-0067292Y0044037D02*
X-0067442Y0044187D01*
X-0067292Y0043837D02*
Y0044037D01*
X-0067442Y0043687D02*
X-0067292Y0043837D01*
X-0067642Y0043687D02*
X-0067442D01*
X-0067792Y0043837D02*
X-0067642Y0043687D01*
X-0067870Y0047970D02*
Y0047770D01*
X-0067720Y0048120D02*
X-0067870Y0047970D01*
X-0067520Y0048120D02*
X-0067720D01*
X-0067370Y0047970D02*
X-0067520Y0048120D01*
X-0067370Y0047770D02*
Y0047970D01*
X-0067520Y0047620D02*
X-0067370Y0047770D01*
X-0067720Y0047620D02*
X-0067520D01*
X-0067870Y0047770D02*
X-0067720Y0047620D01*
X-0068853Y0048009D02*
Y0047809D01*
X-0068703Y0048159D02*
X-0068853Y0048009D01*
X-0068503Y0048159D02*
X-0068703D01*
X-0068353Y0048009D02*
X-0068503Y0048159D01*
X-0068353Y0047809D02*
Y0048009D01*
X-0068503Y0047659D02*
X-0068353Y0047809D01*
X-0068703Y0047659D02*
X-0068503D01*
X-0068853Y0047809D02*
X-0068703Y0047659D01*
X-0069876Y0048009D02*
Y0047809D01*
X-0069726Y0048159D02*
X-0069876Y0048009D01*
X-0069526Y0048159D02*
X-0069726D01*
X-0069376Y0048009D02*
X-0069526Y0048159D01*
X-0069376Y0047809D02*
Y0048009D01*
X-0069526Y0047659D02*
X-0069376Y0047809D01*
X-0069726Y0047659D02*
X-0069526D01*
X-0069876Y0047809D02*
X-0069726Y0047659D01*
X-0070859Y0047970D02*
Y0047770D01*
X-0070709Y0048120D02*
X-0070859Y0047970D01*
X-0070509Y0048120D02*
X-0070709D01*
X-0070359Y0047970D02*
X-0070509Y0048120D01*
X-0070359Y0047770D02*
Y0047970D01*
X-0070509Y0047620D02*
X-0070359Y0047770D01*
X-0070709Y0047620D02*
X-0070509D01*
X-0070859Y0047770D02*
X-0070709Y0047620D01*
X-0071921Y0047970D02*
Y0047770D01*
X-0071771Y0048120D02*
X-0071921Y0047970D01*
X-0071571Y0048120D02*
X-0071771D01*
X-0071421Y0047970D02*
X-0071571Y0048120D01*
X-0071421Y0047770D02*
Y0047970D01*
X-0071571Y0047620D02*
X-0071421Y0047770D01*
X-0071771Y0047620D02*
X-0071571D01*
X-0071921Y0047770D02*
X-0071771Y0047620D01*
X-0072904Y0048009D02*
Y0047809D01*
X-0072754Y0048159D02*
X-0072904Y0048009D01*
X-0072554Y0048159D02*
X-0072754D01*
X-0072404Y0048009D02*
X-0072554Y0048159D01*
X-0072404Y0047809D02*
Y0048009D01*
X-0072554Y0047659D02*
X-0072404Y0047809D01*
X-0072754Y0047659D02*
X-0072554D01*
X-0072904Y0047809D02*
X-0072754Y0047659D01*
X-0073888Y0048009D02*
Y0047809D01*
X-0073738Y0048159D02*
X-0073888Y0048009D01*
X-0073538Y0048159D02*
X-0073738D01*
X-0073388Y0048009D02*
X-0073538Y0048159D01*
X-0073388Y0047809D02*
Y0048009D01*
X-0073538Y0047659D02*
X-0073388Y0047809D01*
X-0073738Y0047659D02*
X-0073538D01*
X-0073888Y0047809D02*
X-0073738Y0047659D01*
X-0074792Y0047970D02*
Y0047770D01*
X-0074642Y0048120D02*
X-0074792Y0047970D01*
X-0074442Y0048120D02*
X-0074642D01*
X-0074292Y0047970D02*
X-0074442Y0048120D01*
X-0074292Y0047770D02*
Y0047970D01*
X-0074442Y0047620D02*
X-0074292Y0047770D01*
X-0074642Y0047620D02*
X-0074442D01*
X-0074792Y0047770D02*
X-0074642Y0047620D01*
X-0087103Y0044036D02*
Y0043836D01*
X-0086953Y0044186D02*
X-0087103Y0044036D01*
X-0086753Y0044186D02*
X-0086953D01*
X-0086603Y0044036D02*
X-0086753Y0044186D01*
X-0086603Y0043836D02*
Y0044036D01*
X-0086753Y0043686D02*
X-0086603Y0043836D01*
X-0086953Y0043686D02*
X-0086753D01*
X-0087103Y0043836D02*
X-0086953Y0043686D01*
X-0086103Y0044036D02*
Y0043836D01*
X-0085953Y0044186D02*
X-0086103Y0044036D01*
X-0085753Y0044186D02*
X-0085953D01*
X-0085603Y0044036D02*
X-0085753Y0044186D01*
X-0085603Y0043836D02*
Y0044036D01*
X-0085753Y0043686D02*
X-0085603Y0043836D01*
X-0085953Y0043686D02*
X-0085753D01*
X-0086103Y0043836D02*
X-0085953Y0043686D01*
X-0085103Y0044036D02*
Y0043836D01*
X-0084953Y0044186D02*
X-0085103Y0044036D01*
X-0084753Y0044186D02*
X-0084953D01*
X-0084603Y0044036D02*
X-0084753Y0044186D01*
X-0084603Y0043836D02*
Y0044036D01*
X-0084753Y0043686D02*
X-0084603Y0043836D01*
X-0084953Y0043686D02*
X-0084753D01*
X-0085103Y0043836D02*
X-0084953Y0043686D01*
X-0084103Y0044036D02*
Y0043836D01*
X-0083953Y0044186D02*
X-0084103Y0044036D01*
X-0083753Y0044186D02*
X-0083953D01*
X-0083603Y0044036D02*
X-0083753Y0044186D01*
X-0083603Y0043836D02*
Y0044036D01*
X-0083753Y0043686D02*
X-0083603Y0043836D01*
X-0083953Y0043686D02*
X-0083753D01*
X-0084103Y0043836D02*
X-0083953Y0043686D01*
X-0083103Y0044036D02*
Y0043836D01*
X-0082953Y0044186D02*
X-0083103Y0044036D01*
X-0082753Y0044186D02*
X-0082953D01*
X-0082603Y0044036D02*
X-0082753Y0044186D01*
X-0082603Y0043836D02*
Y0044036D01*
X-0082753Y0043686D02*
X-0082603Y0043836D01*
X-0082953Y0043686D02*
X-0082753D01*
X-0083103Y0043836D02*
X-0082953Y0043686D01*
X-0082103Y0044036D02*
Y0043836D01*
X-0081953Y0044186D02*
X-0082103Y0044036D01*
X-0081753Y0044186D02*
X-0081953D01*
X-0081603Y0044036D02*
X-0081753Y0044186D01*
X-0081603Y0043836D02*
Y0044036D01*
X-0081753Y0043686D02*
X-0081603Y0043836D01*
X-0081953Y0043686D02*
X-0081753D01*
X-0082103Y0043836D02*
X-0081953Y0043686D01*
X-0081103Y0044036D02*
Y0043836D01*
X-0080953Y0044186D02*
X-0081103Y0044036D01*
X-0080753Y0044186D02*
X-0080953D01*
X-0080603Y0044036D02*
X-0080753Y0044186D01*
X-0080603Y0043836D02*
Y0044036D01*
X-0080753Y0043686D02*
X-0080603Y0043836D01*
X-0080953Y0043686D02*
X-0080753D01*
X-0081103Y0043836D02*
X-0080953Y0043686D01*
X-0080103Y0044036D02*
Y0043836D01*
X-0079953Y0044186D02*
X-0080103Y0044036D01*
X-0079753Y0044186D02*
X-0079953D01*
X-0079603Y0044036D02*
X-0079753Y0044186D01*
X-0079603Y0043836D02*
Y0044036D01*
X-0079753Y0043686D02*
X-0079603Y0043836D01*
X-0079953Y0043686D02*
X-0079753D01*
X-0080103Y0043836D02*
X-0079953Y0043686D01*
X-0080180Y0047970D02*
Y0047770D01*
X-0080030Y0048120D02*
X-0080180Y0047970D01*
X-0079830Y0048120D02*
X-0080030D01*
X-0079680Y0047970D02*
X-0079830Y0048120D01*
X-0079680Y0047770D02*
Y0047970D01*
X-0079830Y0047620D02*
X-0079680Y0047770D01*
X-0080030Y0047620D02*
X-0079830D01*
X-0080180Y0047770D02*
X-0080030Y0047620D01*
X-0081163Y0048009D02*
Y0047809D01*
X-0081013Y0048159D02*
X-0081163Y0048009D01*
X-0080813Y0048159D02*
X-0081013D01*
X-0080663Y0048009D02*
X-0080813Y0048159D01*
X-0080663Y0047809D02*
Y0048009D01*
X-0080813Y0047659D02*
X-0080663Y0047809D01*
X-0081013Y0047659D02*
X-0080813D01*
X-0081163Y0047809D02*
X-0081013Y0047659D01*
X-0082186Y0048009D02*
Y0047809D01*
X-0082036Y0048159D02*
X-0082186Y0048009D01*
X-0081836Y0048159D02*
X-0082036D01*
X-0081686Y0048009D02*
X-0081836Y0048159D01*
X-0081686Y0047809D02*
Y0048009D01*
X-0081836Y0047659D02*
X-0081686Y0047809D01*
X-0082036Y0047659D02*
X-0081836D01*
X-0082186Y0047809D02*
X-0082036Y0047659D01*
X-0083169Y0047970D02*
Y0047770D01*
X-0083019Y0048120D02*
X-0083169Y0047970D01*
X-0082819Y0048120D02*
X-0083019D01*
X-0082669Y0047970D02*
X-0082819Y0048120D01*
X-0082669Y0047770D02*
Y0047970D01*
X-0082819Y0047620D02*
X-0082669Y0047770D01*
X-0083019Y0047620D02*
X-0082819D01*
X-0083169Y0047770D02*
X-0083019Y0047620D01*
X-0084231Y0047970D02*
Y0047770D01*
X-0084081Y0048120D02*
X-0084231Y0047970D01*
X-0083881Y0048120D02*
X-0084081D01*
X-0083731Y0047970D02*
X-0083881Y0048120D01*
X-0083731Y0047770D02*
Y0047970D01*
X-0083881Y0047620D02*
X-0083731Y0047770D01*
X-0084081Y0047620D02*
X-0083881D01*
X-0084231Y0047770D02*
X-0084081Y0047620D01*
X-0085215Y0048009D02*
Y0047809D01*
X-0085065Y0048159D02*
X-0085215Y0048009D01*
X-0084865Y0048159D02*
X-0085065D01*
X-0084715Y0048009D02*
X-0084865Y0048159D01*
X-0084715Y0047809D02*
Y0048009D01*
X-0084865Y0047659D02*
X-0084715Y0047809D01*
X-0085065Y0047659D02*
X-0084865D01*
X-0085215Y0047809D02*
X-0085065Y0047659D01*
X-0086198Y0048009D02*
Y0047809D01*
X-0086048Y0048159D02*
X-0086198Y0048009D01*
X-0085848Y0048159D02*
X-0086048D01*
X-0085698Y0048009D02*
X-0085848Y0048159D01*
X-0085698Y0047809D02*
Y0048009D01*
X-0085848Y0047659D02*
X-0085698Y0047809D01*
X-0086048Y0047659D02*
X-0085848D01*
X-0086198Y0047809D02*
X-0086048Y0047659D01*
X-0087103Y0047970D02*
Y0047770D01*
X-0086953Y0048120D02*
X-0087103Y0047970D01*
X-0086753Y0048120D02*
X-0086953D01*
X-0086603Y0047970D02*
X-0086753Y0048120D01*
X-0086603Y0047770D02*
Y0047970D01*
X-0086753Y0047620D02*
X-0086603Y0047770D01*
X-0086953Y0047620D02*
X-0086753D01*
X-0087103Y0047770D02*
X-0086953Y0047620D01*
X-0099294Y0044036D02*
Y0043836D01*
X-0099144Y0044186D02*
X-0099294Y0044036D01*
X-0098944Y0044186D02*
X-0099144D01*
X-0098794Y0044036D02*
X-0098944Y0044186D01*
X-0098794Y0043836D02*
Y0044036D01*
X-0098944Y0043686D02*
X-0098794Y0043836D01*
X-0099144Y0043686D02*
X-0098944D01*
X-0099294Y0043836D02*
X-0099144Y0043686D01*
X-0098294Y0044036D02*
Y0043836D01*
X-0098144Y0044186D02*
X-0098294Y0044036D01*
X-0097944Y0044186D02*
X-0098144D01*
X-0097794Y0044036D02*
X-0097944Y0044186D01*
X-0097794Y0043836D02*
Y0044036D01*
X-0097944Y0043686D02*
X-0097794Y0043836D01*
X-0098144Y0043686D02*
X-0097944D01*
X-0098294Y0043836D02*
X-0098144Y0043686D01*
X-0097294Y0044036D02*
Y0043836D01*
X-0097144Y0044186D02*
X-0097294Y0044036D01*
X-0096944Y0044186D02*
X-0097144D01*
X-0096794Y0044036D02*
X-0096944Y0044186D01*
X-0096794Y0043836D02*
Y0044036D01*
X-0096944Y0043686D02*
X-0096794Y0043836D01*
X-0097144Y0043686D02*
X-0096944D01*
X-0097294Y0043836D02*
X-0097144Y0043686D01*
X-0096294Y0044036D02*
Y0043836D01*
X-0096144Y0044186D02*
X-0096294Y0044036D01*
X-0095944Y0044186D02*
X-0096144D01*
X-0095794Y0044036D02*
X-0095944Y0044186D01*
X-0095794Y0043836D02*
Y0044036D01*
X-0095944Y0043686D02*
X-0095794Y0043836D01*
X-0096144Y0043686D02*
X-0095944D01*
X-0096294Y0043836D02*
X-0096144Y0043686D01*
X-0095294Y0044036D02*
Y0043836D01*
X-0095144Y0044186D02*
X-0095294Y0044036D01*
X-0094944Y0044186D02*
X-0095144D01*
X-0094794Y0044036D02*
X-0094944Y0044186D01*
X-0094794Y0043836D02*
Y0044036D01*
X-0094944Y0043686D02*
X-0094794Y0043836D01*
X-0095144Y0043686D02*
X-0094944D01*
X-0095294Y0043836D02*
X-0095144Y0043686D01*
X-0094294Y0044036D02*
Y0043836D01*
X-0094144Y0044186D02*
X-0094294Y0044036D01*
X-0093944Y0044186D02*
X-0094144D01*
X-0093794Y0044036D02*
X-0093944Y0044186D01*
X-0093794Y0043836D02*
Y0044036D01*
X-0093944Y0043686D02*
X-0093794Y0043836D01*
X-0094144Y0043686D02*
X-0093944D01*
X-0094294Y0043836D02*
X-0094144Y0043686D01*
X-0093294Y0044036D02*
Y0043836D01*
X-0093144Y0044186D02*
X-0093294Y0044036D01*
X-0092944Y0044186D02*
X-0093144D01*
X-0092794Y0044036D02*
X-0092944Y0044186D01*
X-0092794Y0043836D02*
Y0044036D01*
X-0092944Y0043686D02*
X-0092794Y0043836D01*
X-0093144Y0043686D02*
X-0092944D01*
X-0093294Y0043836D02*
X-0093144Y0043686D01*
X-0092294Y0044036D02*
Y0043836D01*
X-0092144Y0044186D02*
X-0092294Y0044036D01*
X-0091944Y0044186D02*
X-0092144D01*
X-0091794Y0044036D02*
X-0091944Y0044186D01*
X-0091794Y0043836D02*
Y0044036D01*
X-0091944Y0043686D02*
X-0091794Y0043836D01*
X-0092144Y0043686D02*
X-0091944D01*
X-0092294Y0043836D02*
X-0092144Y0043686D01*
X-0092372Y0047970D02*
Y0047770D01*
X-0092222Y0048120D02*
X-0092372Y0047970D01*
X-0092022Y0048120D02*
X-0092222D01*
X-0091872Y0047970D02*
X-0092022Y0048120D01*
X-0091872Y0047770D02*
Y0047970D01*
X-0092022Y0047620D02*
X-0091872Y0047770D01*
X-0092222Y0047620D02*
X-0092022D01*
X-0092372Y0047770D02*
X-0092222Y0047620D01*
X-0093355Y0048009D02*
Y0047809D01*
X-0093205Y0048159D02*
X-0093355Y0048009D01*
X-0093005Y0048159D02*
X-0093205D01*
X-0092855Y0048009D02*
X-0093005Y0048159D01*
X-0092855Y0047809D02*
Y0048009D01*
X-0093005Y0047659D02*
X-0092855Y0047809D01*
X-0093205Y0047659D02*
X-0093005D01*
X-0093355Y0047809D02*
X-0093205Y0047659D01*
X-0094378Y0048009D02*
Y0047809D01*
X-0094228Y0048159D02*
X-0094378Y0048009D01*
X-0094028Y0048159D02*
X-0094228D01*
X-0093878Y0048009D02*
X-0094028Y0048159D01*
X-0093878Y0047809D02*
Y0048009D01*
X-0094028Y0047659D02*
X-0093878Y0047809D01*
X-0094228Y0047659D02*
X-0094028D01*
X-0094378Y0047809D02*
X-0094228Y0047659D01*
X-0095361Y0047970D02*
Y0047770D01*
X-0095211Y0048120D02*
X-0095361Y0047970D01*
X-0095011Y0048120D02*
X-0095211D01*
X-0094861Y0047970D02*
X-0095011Y0048120D01*
X-0094861Y0047770D02*
Y0047970D01*
X-0095011Y0047620D02*
X-0094861Y0047770D01*
X-0095211Y0047620D02*
X-0095011D01*
X-0095361Y0047770D02*
X-0095211Y0047620D01*
X-0096423Y0047970D02*
Y0047770D01*
X-0096273Y0048120D02*
X-0096423Y0047970D01*
X-0096073Y0048120D02*
X-0096273D01*
X-0095923Y0047970D02*
X-0096073Y0048120D01*
X-0095923Y0047770D02*
Y0047970D01*
X-0096073Y0047620D02*
X-0095923Y0047770D01*
X-0096273Y0047620D02*
X-0096073D01*
X-0096423Y0047770D02*
X-0096273Y0047620D01*
X-0097406Y0048009D02*
Y0047809D01*
X-0097256Y0048159D02*
X-0097406Y0048009D01*
X-0097056Y0048159D02*
X-0097256D01*
X-0096906Y0048009D02*
X-0097056Y0048159D01*
X-0096906Y0047809D02*
Y0048009D01*
X-0097056Y0047659D02*
X-0096906Y0047809D01*
X-0097256Y0047659D02*
X-0097056D01*
X-0097406Y0047809D02*
X-0097256Y0047659D01*
X-0098390Y0048009D02*
Y0047809D01*
X-0098240Y0048159D02*
X-0098390Y0048009D01*
X-0098040Y0048159D02*
X-0098240D01*
X-0097890Y0048009D02*
X-0098040Y0048159D01*
X-0097890Y0047809D02*
Y0048009D01*
X-0098040Y0047659D02*
X-0097890Y0047809D01*
X-0098240Y0047659D02*
X-0098040D01*
X-0098390Y0047809D02*
X-0098240Y0047659D01*
X-0099294Y0047970D02*
Y0047770D01*
X-0099144Y0048120D02*
X-0099294Y0047970D01*
X-0098944Y0048120D02*
X-0099144D01*
X-0098794Y0047970D02*
X-0098944Y0048120D01*
X-0098794Y0047770D02*
Y0047970D01*
X-0098944Y0047620D02*
X-0098794Y0047770D01*
X-0099144Y0047620D02*
X-0098944D01*
X-0099294Y0047770D02*
X-0099144Y0047620D01*
X-0112037Y0044036D02*
Y0043836D01*
X-0111887Y0044186D02*
X-0112037Y0044036D01*
X-0111687Y0044186D02*
X-0111887D01*
X-0111537Y0044036D02*
X-0111687Y0044186D01*
X-0111537Y0043836D02*
Y0044036D01*
X-0111687Y0043686D02*
X-0111537Y0043836D01*
X-0111887Y0043686D02*
X-0111687D01*
X-0112037Y0043836D02*
X-0111887Y0043686D01*
X-0111037Y0044036D02*
Y0043836D01*
X-0110887Y0044186D02*
X-0111037Y0044036D01*
X-0110687Y0044186D02*
X-0110887D01*
X-0110537Y0044036D02*
X-0110687Y0044186D01*
X-0110537Y0043836D02*
Y0044036D01*
X-0110687Y0043686D02*
X-0110537Y0043836D01*
X-0110887Y0043686D02*
X-0110687D01*
X-0111037Y0043836D02*
X-0110887Y0043686D01*
X-0110037Y0044036D02*
Y0043836D01*
X-0109887Y0044186D02*
X-0110037Y0044036D01*
X-0109687Y0044186D02*
X-0109887D01*
X-0109537Y0044036D02*
X-0109687Y0044186D01*
X-0109537Y0043836D02*
Y0044036D01*
X-0109687Y0043686D02*
X-0109537Y0043836D01*
X-0109887Y0043686D02*
X-0109687D01*
X-0110037Y0043836D02*
X-0109887Y0043686D01*
X-0109037Y0044036D02*
Y0043836D01*
X-0108887Y0044186D02*
X-0109037Y0044036D01*
X-0108687Y0044186D02*
X-0108887D01*
X-0108537Y0044036D02*
X-0108687Y0044186D01*
X-0108537Y0043836D02*
Y0044036D01*
X-0108687Y0043686D02*
X-0108537Y0043836D01*
X-0108887Y0043686D02*
X-0108687D01*
X-0109037Y0043836D02*
X-0108887Y0043686D01*
X-0108037Y0044036D02*
Y0043836D01*
X-0107887Y0044186D02*
X-0108037Y0044036D01*
X-0107687Y0044186D02*
X-0107887D01*
X-0107537Y0044036D02*
X-0107687Y0044186D01*
X-0107537Y0043836D02*
Y0044036D01*
X-0107687Y0043686D02*
X-0107537Y0043836D01*
X-0107887Y0043686D02*
X-0107687D01*
X-0108037Y0043836D02*
X-0107887Y0043686D01*
X-0107037Y0044036D02*
Y0043836D01*
X-0106887Y0044186D02*
X-0107037Y0044036D01*
X-0106687Y0044186D02*
X-0106887D01*
X-0106537Y0044036D02*
X-0106687Y0044186D01*
X-0106537Y0043836D02*
Y0044036D01*
X-0106687Y0043686D02*
X-0106537Y0043836D01*
X-0106887Y0043686D02*
X-0106687D01*
X-0107037Y0043836D02*
X-0106887Y0043686D01*
X-0106037Y0044036D02*
Y0043836D01*
X-0105887Y0044186D02*
X-0106037Y0044036D01*
X-0105687Y0044186D02*
X-0105887D01*
X-0105537Y0044036D02*
X-0105687Y0044186D01*
X-0105537Y0043836D02*
Y0044036D01*
X-0105687Y0043686D02*
X-0105537Y0043836D01*
X-0105887Y0043686D02*
X-0105687D01*
X-0106037Y0043836D02*
X-0105887Y0043686D01*
X-0105037Y0044036D02*
Y0043836D01*
X-0104887Y0044186D02*
X-0105037Y0044036D01*
X-0104687Y0044186D02*
X-0104887D01*
X-0104537Y0044036D02*
X-0104687Y0044186D01*
X-0104537Y0043836D02*
Y0044036D01*
X-0104687Y0043686D02*
X-0104537Y0043836D01*
X-0104887Y0043686D02*
X-0104687D01*
X-0105037Y0043836D02*
X-0104887Y0043686D01*
X-0105115Y0047970D02*
Y0047770D01*
X-0104965Y0048120D02*
X-0105115Y0047970D01*
X-0104765Y0048120D02*
X-0104965D01*
X-0104615Y0047970D02*
X-0104765Y0048120D01*
X-0104615Y0047770D02*
Y0047970D01*
X-0104765Y0047620D02*
X-0104615Y0047770D01*
X-0104965Y0047620D02*
X-0104765D01*
X-0105115Y0047770D02*
X-0104965Y0047620D01*
X-0106098Y0048009D02*
Y0047809D01*
X-0105948Y0048159D02*
X-0106098Y0048009D01*
X-0105748Y0048159D02*
X-0105948D01*
X-0105598Y0048009D02*
X-0105748Y0048159D01*
X-0105598Y0047809D02*
Y0048009D01*
X-0105748Y0047659D02*
X-0105598Y0047809D01*
X-0105948Y0047659D02*
X-0105748D01*
X-0106098Y0047809D02*
X-0105948Y0047659D01*
X-0107121Y0048009D02*
Y0047809D01*
X-0106971Y0048159D02*
X-0107121Y0048009D01*
X-0106771Y0048159D02*
X-0106971D01*
X-0106621Y0048009D02*
X-0106771Y0048159D01*
X-0106621Y0047809D02*
Y0048009D01*
X-0106771Y0047659D02*
X-0106621Y0047809D01*
X-0106971Y0047659D02*
X-0106771D01*
X-0107121Y0047809D02*
X-0106971Y0047659D01*
X-0108104Y0047970D02*
Y0047770D01*
X-0107954Y0048120D02*
X-0108104Y0047970D01*
X-0107754Y0048120D02*
X-0107954D01*
X-0107604Y0047970D02*
X-0107754Y0048120D01*
X-0107604Y0047770D02*
Y0047970D01*
X-0107754Y0047620D02*
X-0107604Y0047770D01*
X-0107954Y0047620D02*
X-0107754D01*
X-0108104Y0047770D02*
X-0107954Y0047620D01*
X-0109166Y0047970D02*
Y0047770D01*
X-0109016Y0048120D02*
X-0109166Y0047970D01*
X-0108816Y0048120D02*
X-0109016D01*
X-0108666Y0047970D02*
X-0108816Y0048120D01*
X-0108666Y0047770D02*
Y0047970D01*
X-0108816Y0047620D02*
X-0108666Y0047770D01*
X-0109016Y0047620D02*
X-0108816D01*
X-0109166Y0047770D02*
X-0109016Y0047620D01*
X-0110149Y0048009D02*
Y0047809D01*
X-0109999Y0048159D02*
X-0110149Y0048009D01*
X-0109799Y0048159D02*
X-0109999D01*
X-0109649Y0048009D02*
X-0109799Y0048159D01*
X-0109649Y0047809D02*
Y0048009D01*
X-0109799Y0047659D02*
X-0109649Y0047809D01*
X-0109999Y0047659D02*
X-0109799D01*
X-0110149Y0047809D02*
X-0109999Y0047659D01*
X-0111133Y0048009D02*
Y0047809D01*
X-0110983Y0048159D02*
X-0111133Y0048009D01*
X-0110783Y0048159D02*
X-0110983D01*
X-0110633Y0048009D02*
X-0110783Y0048159D01*
X-0110633Y0047809D02*
Y0048009D01*
X-0110783Y0047659D02*
X-0110633Y0047809D01*
X-0110983Y0047659D02*
X-0110783D01*
X-0111133Y0047809D02*
X-0110983Y0047659D01*
X-0112037Y0047970D02*
Y0047770D01*
X-0111887Y0048120D02*
X-0112037Y0047970D01*
X-0111687Y0048120D02*
X-0111887D01*
X-0111537Y0047970D02*
X-0111687Y0048120D01*
X-0111537Y0047770D02*
Y0047970D01*
X-0111687Y0047620D02*
X-0111537Y0047770D01*
X-0111887Y0047620D02*
X-0111687D01*
X-0112037Y0047770D02*
X-0111887Y0047620D01*
X-0125095Y0044036D02*
Y0043836D01*
X-0124945Y0044186D02*
X-0125095Y0044036D01*
X-0124745Y0044186D02*
X-0124945D01*
X-0124595Y0044036D02*
X-0124745Y0044186D01*
X-0124595Y0043836D02*
Y0044036D01*
X-0124745Y0043686D02*
X-0124595Y0043836D01*
X-0124945Y0043686D02*
X-0124745D01*
X-0125095Y0043836D02*
X-0124945Y0043686D01*
X-0124095Y0044036D02*
Y0043836D01*
X-0123945Y0044186D02*
X-0124095Y0044036D01*
X-0123745Y0044186D02*
X-0123945D01*
X-0123595Y0044036D02*
X-0123745Y0044186D01*
X-0123595Y0043836D02*
Y0044036D01*
X-0123745Y0043686D02*
X-0123595Y0043836D01*
X-0123945Y0043686D02*
X-0123745D01*
X-0124095Y0043836D02*
X-0123945Y0043686D01*
X-0123095Y0044036D02*
Y0043836D01*
X-0122945Y0044186D02*
X-0123095Y0044036D01*
X-0122745Y0044186D02*
X-0122945D01*
X-0122595Y0044036D02*
X-0122745Y0044186D01*
X-0122595Y0043836D02*
Y0044036D01*
X-0122745Y0043686D02*
X-0122595Y0043836D01*
X-0122945Y0043686D02*
X-0122745D01*
X-0123095Y0043836D02*
X-0122945Y0043686D01*
X-0122095Y0044036D02*
Y0043836D01*
X-0121945Y0044186D02*
X-0122095Y0044036D01*
X-0121745Y0044186D02*
X-0121945D01*
X-0121595Y0044036D02*
X-0121745Y0044186D01*
X-0121595Y0043836D02*
Y0044036D01*
X-0121745Y0043686D02*
X-0121595Y0043836D01*
X-0121945Y0043686D02*
X-0121745D01*
X-0122095Y0043836D02*
X-0121945Y0043686D01*
X-0121095Y0044036D02*
Y0043836D01*
X-0120945Y0044186D02*
X-0121095Y0044036D01*
X-0120745Y0044186D02*
X-0120945D01*
X-0120595Y0044036D02*
X-0120745Y0044186D01*
X-0120595Y0043836D02*
Y0044036D01*
X-0120745Y0043686D02*
X-0120595Y0043836D01*
X-0120945Y0043686D02*
X-0120745D01*
X-0121095Y0043836D02*
X-0120945Y0043686D01*
X-0120095Y0044036D02*
Y0043836D01*
X-0119945Y0044186D02*
X-0120095Y0044036D01*
X-0119745Y0044186D02*
X-0119945D01*
X-0119595Y0044036D02*
X-0119745Y0044186D01*
X-0119595Y0043836D02*
Y0044036D01*
X-0119745Y0043686D02*
X-0119595Y0043836D01*
X-0119945Y0043686D02*
X-0119745D01*
X-0120095Y0043836D02*
X-0119945Y0043686D01*
X-0119095Y0044036D02*
Y0043836D01*
X-0118945Y0044186D02*
X-0119095Y0044036D01*
X-0118745Y0044186D02*
X-0118945D01*
X-0118595Y0044036D02*
X-0118745Y0044186D01*
X-0118595Y0043836D02*
Y0044036D01*
X-0118745Y0043686D02*
X-0118595Y0043836D01*
X-0118945Y0043686D02*
X-0118745D01*
X-0119095Y0043836D02*
X-0118945Y0043686D01*
X-0118095Y0044036D02*
Y0043836D01*
X-0117945Y0044186D02*
X-0118095Y0044036D01*
X-0117745Y0044186D02*
X-0117945D01*
X-0117595Y0044036D02*
X-0117745Y0044186D01*
X-0117595Y0043836D02*
Y0044036D01*
X-0117745Y0043686D02*
X-0117595Y0043836D01*
X-0117945Y0043686D02*
X-0117745D01*
X-0118095Y0043836D02*
X-0117945Y0043686D01*
X-0118172Y0047969D02*
Y0047769D01*
X-0118022Y0048119D02*
X-0118172Y0047969D01*
X-0117822Y0048119D02*
X-0118022D01*
X-0117672Y0047969D02*
X-0117822Y0048119D01*
X-0117672Y0047769D02*
Y0047969D01*
X-0117822Y0047619D02*
X-0117672Y0047769D01*
X-0118022Y0047619D02*
X-0117822D01*
X-0118172Y0047769D02*
X-0118022Y0047619D01*
X-0119155Y0048009D02*
Y0047809D01*
X-0119005Y0048159D02*
X-0119155Y0048009D01*
X-0118805Y0048159D02*
X-0119005D01*
X-0118655Y0048009D02*
X-0118805Y0048159D01*
X-0118655Y0047809D02*
Y0048009D01*
X-0118805Y0047659D02*
X-0118655Y0047809D01*
X-0119005Y0047659D02*
X-0118805D01*
X-0119155Y0047809D02*
X-0119005Y0047659D01*
X-0120178Y0048009D02*
Y0047809D01*
X-0120028Y0048159D02*
X-0120178Y0048009D01*
X-0119828Y0048159D02*
X-0120028D01*
X-0119678Y0048009D02*
X-0119828Y0048159D01*
X-0119678Y0047809D02*
Y0048009D01*
X-0119828Y0047659D02*
X-0119678Y0047809D01*
X-0120028Y0047659D02*
X-0119828D01*
X-0120178Y0047809D02*
X-0120028Y0047659D01*
X-0121161Y0047969D02*
Y0047769D01*
X-0121011Y0048119D02*
X-0121161Y0047969D01*
X-0120811Y0048119D02*
X-0121011D01*
X-0120661Y0047969D02*
X-0120811Y0048119D01*
X-0120661Y0047769D02*
Y0047969D01*
X-0120811Y0047619D02*
X-0120661Y0047769D01*
X-0121011Y0047619D02*
X-0120811D01*
X-0121161Y0047769D02*
X-0121011Y0047619D01*
X-0122223Y0047969D02*
Y0047769D01*
X-0122073Y0048119D02*
X-0122223Y0047969D01*
X-0121873Y0048119D02*
X-0122073D01*
X-0121723Y0047969D02*
X-0121873Y0048119D01*
X-0121723Y0047769D02*
Y0047969D01*
X-0121873Y0047619D02*
X-0121723Y0047769D01*
X-0122073Y0047619D02*
X-0121873D01*
X-0122223Y0047769D02*
X-0122073Y0047619D01*
X-0123207Y0048009D02*
Y0047809D01*
X-0123057Y0048159D02*
X-0123207Y0048009D01*
X-0122857Y0048159D02*
X-0123057D01*
X-0122707Y0048009D02*
X-0122857Y0048159D01*
X-0122707Y0047809D02*
Y0048009D01*
X-0122857Y0047659D02*
X-0122707Y0047809D01*
X-0123057Y0047659D02*
X-0122857D01*
X-0123207Y0047809D02*
X-0123057Y0047659D01*
X-0124190Y0048009D02*
Y0047809D01*
X-0124040Y0048159D02*
X-0124190Y0048009D01*
X-0123840Y0048159D02*
X-0124040D01*
X-0123690Y0048009D02*
X-0123840Y0048159D01*
X-0123690Y0047809D02*
Y0048009D01*
X-0123840Y0047659D02*
X-0123690Y0047809D01*
X-0124040Y0047659D02*
X-0123840D01*
X-0124190Y0047809D02*
X-0124040Y0047659D01*
X-0125095Y0047969D02*
Y0047769D01*
X-0124945Y0048119D02*
X-0125095Y0047969D01*
X-0124745Y0048119D02*
X-0124945D01*
X-0124595Y0047969D02*
X-0124745Y0048119D01*
X-0124595Y0047769D02*
Y0047969D01*
X-0124745Y0047619D02*
X-0124595Y0047769D01*
X-0124945Y0047619D02*
X-0124745D01*
X-0125095Y0047769D02*
X-0124945Y0047619D01*
X-0137405Y0044430D02*
Y0044230D01*
X-0137255Y0044580D02*
X-0137405Y0044430D01*
X-0137055Y0044580D02*
X-0137255D01*
X-0136905Y0044430D02*
X-0137055Y0044580D01*
X-0136905Y0044230D02*
Y0044430D01*
X-0137055Y0044080D02*
X-0136905Y0044230D01*
X-0137255Y0044080D02*
X-0137055D01*
X-0137405Y0044230D02*
X-0137255Y0044080D01*
X-0136405Y0044430D02*
Y0044230D01*
X-0136255Y0044580D02*
X-0136405Y0044430D01*
X-0136055Y0044580D02*
X-0136255D01*
X-0135905Y0044430D02*
X-0136055Y0044580D01*
X-0135905Y0044230D02*
Y0044430D01*
X-0136055Y0044080D02*
X-0135905Y0044230D01*
X-0136255Y0044080D02*
X-0136055D01*
X-0136405Y0044230D02*
X-0136255Y0044080D01*
X-0135405Y0044430D02*
Y0044230D01*
X-0135255Y0044580D02*
X-0135405Y0044430D01*
X-0135055Y0044580D02*
X-0135255D01*
X-0134905Y0044430D02*
X-0135055Y0044580D01*
X-0134905Y0044230D02*
Y0044430D01*
X-0135055Y0044080D02*
X-0134905Y0044230D01*
X-0135255Y0044080D02*
X-0135055D01*
X-0135405Y0044230D02*
X-0135255Y0044080D01*
X-0134405Y0044430D02*
Y0044230D01*
X-0134255Y0044580D02*
X-0134405Y0044430D01*
X-0134055Y0044580D02*
X-0134255D01*
X-0133905Y0044430D02*
X-0134055Y0044580D01*
X-0133905Y0044230D02*
Y0044430D01*
X-0134055Y0044080D02*
X-0133905Y0044230D01*
X-0134255Y0044080D02*
X-0134055D01*
X-0134405Y0044230D02*
X-0134255Y0044080D01*
X-0133405Y0044430D02*
Y0044230D01*
X-0133255Y0044580D02*
X-0133405Y0044430D01*
X-0133055Y0044580D02*
X-0133255D01*
X-0132905Y0044430D02*
X-0133055Y0044580D01*
X-0132905Y0044230D02*
Y0044430D01*
X-0133055Y0044080D02*
X-0132905Y0044230D01*
X-0133255Y0044080D02*
X-0133055D01*
X-0133405Y0044230D02*
X-0133255Y0044080D01*
X-0132405Y0044430D02*
Y0044230D01*
X-0132255Y0044580D02*
X-0132405Y0044430D01*
X-0132055Y0044580D02*
X-0132255D01*
X-0131905Y0044430D02*
X-0132055Y0044580D01*
X-0131905Y0044230D02*
Y0044430D01*
X-0132055Y0044080D02*
X-0131905Y0044230D01*
X-0132255Y0044080D02*
X-0132055D01*
X-0132405Y0044230D02*
X-0132255Y0044080D01*
X-0131405Y0044430D02*
Y0044230D01*
X-0131255Y0044580D02*
X-0131405Y0044430D01*
X-0131055Y0044580D02*
X-0131255D01*
X-0130905Y0044430D02*
X-0131055Y0044580D01*
X-0130905Y0044230D02*
Y0044430D01*
X-0131055Y0044080D02*
X-0130905Y0044230D01*
X-0131255Y0044080D02*
X-0131055D01*
X-0131405Y0044230D02*
X-0131255Y0044080D01*
X-0130405Y0044430D02*
Y0044230D01*
X-0130255Y0044580D02*
X-0130405Y0044430D01*
X-0130055Y0044580D02*
X-0130255D01*
X-0129905Y0044430D02*
X-0130055Y0044580D01*
X-0129905Y0044230D02*
Y0044430D01*
X-0130055Y0044080D02*
X-0129905Y0044230D01*
X-0130255Y0044080D02*
X-0130055D01*
X-0130405Y0044230D02*
X-0130255Y0044080D01*
X-0130482Y0048363D02*
Y0048163D01*
X-0130332Y0048513D02*
X-0130482Y0048363D01*
X-0130132Y0048513D02*
X-0130332D01*
X-0129982Y0048363D02*
X-0130132Y0048513D01*
X-0129982Y0048163D02*
Y0048363D01*
X-0130132Y0048013D02*
X-0129982Y0048163D01*
X-0130332Y0048013D02*
X-0130132D01*
X-0130482Y0048163D02*
X-0130332Y0048013D01*
X-0131465Y0048402D02*
Y0048202D01*
X-0131315Y0048552D02*
X-0131465Y0048402D01*
X-0131115Y0048552D02*
X-0131315D01*
X-0130965Y0048402D02*
X-0131115Y0048552D01*
X-0130965Y0048202D02*
Y0048402D01*
X-0131115Y0048052D02*
X-0130965Y0048202D01*
X-0131315Y0048052D02*
X-0131115D01*
X-0131465Y0048202D02*
X-0131315Y0048052D01*
X-0132488Y0048402D02*
Y0048202D01*
X-0132338Y0048552D02*
X-0132488Y0048402D01*
X-0132138Y0048552D02*
X-0132338D01*
X-0131988Y0048402D02*
X-0132138Y0048552D01*
X-0131988Y0048202D02*
Y0048402D01*
X-0132138Y0048052D02*
X-0131988Y0048202D01*
X-0132338Y0048052D02*
X-0132138D01*
X-0132488Y0048202D02*
X-0132338Y0048052D01*
X-0133471Y0048363D02*
Y0048163D01*
X-0133321Y0048513D02*
X-0133471Y0048363D01*
X-0133121Y0048513D02*
X-0133321D01*
X-0132971Y0048363D02*
X-0133121Y0048513D01*
X-0132971Y0048163D02*
Y0048363D01*
X-0133121Y0048013D02*
X-0132971Y0048163D01*
X-0133321Y0048013D02*
X-0133121D01*
X-0133471Y0048163D02*
X-0133321Y0048013D01*
X-0134533Y0048363D02*
Y0048163D01*
X-0134383Y0048513D02*
X-0134533Y0048363D01*
X-0134183Y0048513D02*
X-0134383D01*
X-0134033Y0048363D02*
X-0134183Y0048513D01*
X-0134033Y0048163D02*
Y0048363D01*
X-0134183Y0048013D02*
X-0134033Y0048163D01*
X-0134383Y0048013D02*
X-0134183D01*
X-0134533Y0048163D02*
X-0134383Y0048013D01*
X-0135517Y0048402D02*
Y0048202D01*
X-0135367Y0048552D02*
X-0135517Y0048402D01*
X-0135167Y0048552D02*
X-0135367D01*
X-0135017Y0048402D02*
X-0135167Y0048552D01*
X-0135017Y0048202D02*
Y0048402D01*
X-0135167Y0048052D02*
X-0135017Y0048202D01*
X-0135367Y0048052D02*
X-0135167D01*
X-0135517Y0048202D02*
X-0135367Y0048052D01*
X-0136500Y0048402D02*
Y0048202D01*
X-0136350Y0048552D02*
X-0136500Y0048402D01*
X-0136150Y0048552D02*
X-0136350D01*
X-0136000Y0048402D02*
X-0136150Y0048552D01*
X-0136000Y0048202D02*
Y0048402D01*
X-0136150Y0048052D02*
X-0136000Y0048202D01*
X-0136350Y0048052D02*
X-0136150D01*
X-0136500Y0048202D02*
X-0136350Y0048052D01*
X-0137405Y0048363D02*
Y0048163D01*
X-0137255Y0048513D02*
X-0137405Y0048363D01*
X-0137055Y0048513D02*
X-0137255D01*
X-0136905Y0048363D02*
X-0137055Y0048513D01*
X-0136905Y0048163D02*
Y0048363D01*
X-0137055Y0048013D02*
X-0136905Y0048163D01*
X-0137255Y0048013D02*
X-0137055D01*
X-0137405Y0048163D02*
X-0137255Y0048013D01*
X-0141526Y0032141D02*
X-0142026Y0031641D01*
X-0141526D02*
X-0142026Y0032141D01*
X-0140504D02*
X-0141004Y0031641D01*
X-0140504D02*
X-0141004Y0032141D01*
X-0141921Y0054583D02*
X-0142421Y0054083D01*
X-0141921D02*
X-0142421Y0054583D01*
X-0142944D02*
X-0143444Y0054083D01*
X-0142944D02*
X-0143444Y0054583D01*
X-0143102Y0062142D02*
X-0143602Y0061642D01*
X-0143102D02*
X-0143602Y0062142D01*
X-0144125D02*
X-0144625Y0061642D01*
X-0144125D02*
X-0144625Y0062142D01*
X-0143457Y0068756D02*
X-0143957Y0068256D01*
X-0143457D02*
X-0143957Y0068756D01*
X-0144479D02*
X-0144979Y0068256D01*
X-0144479D02*
X-0144979Y0068756D01*
X-0085769Y0022893D02*
X-0086269Y0022393D01*
X-0085769D02*
X-0086269Y0022893D01*
X-0084746D02*
X-0085246Y0022393D01*
X-0084746D02*
X-0085246Y0022893D01*
X-0068198Y0023284D02*
X-0068698Y0022784D01*
X-0068198D02*
X-0068698Y0023284D01*
X-0067175D02*
X-0067675Y0022784D01*
X-0067175D02*
X-0067675Y0023284D01*
X-0044568Y0013431D02*
X-0045068Y0012931D01*
X-0044568D02*
X-0045068Y0013431D01*
X-0043545D02*
X-0044045Y0012931D01*
X-0043545D02*
X-0044045Y0013431D01*
X-0126199Y0014662D02*
X-0126699Y0014162D01*
X-0126199D02*
X-0126699Y0014662D01*
X-0125176D02*
X-0125676Y0014162D01*
X-0125176D02*
X-0125676Y0014662D01*
X-0126081Y0017261D02*
X-0126581Y0016761D01*
X-0126081D02*
X-0126581Y0017261D01*
X-0125058D02*
X-0125558Y0016761D01*
X-0125058D02*
X-0125558Y0017261D01*
X-0126199Y0019859D02*
X-0126699Y0019359D01*
X-0126199D02*
X-0126699Y0019859D01*
X-0125176D02*
X-0125676Y0019359D01*
X-0125176D02*
X-0125676Y0019859D01*
X-0099816Y0023323D02*
X-0100316Y0022823D01*
X-0099816D02*
X-0100316Y0023323D01*
X-0098793D02*
X-0099293Y0022823D01*
X-0098793D02*
X-0099293Y0023323D01*
X-0103018Y0023324D02*
X-0103518Y0022824D01*
X-0103018D02*
X-0103518Y0023324D01*
X-0101995D02*
X-0102495Y0022824D01*
X-0101995D02*
X-0102495Y0023324D01*
X-0106165Y0023364D02*
X-0106665Y0022864D01*
X-0106165D02*
X-0106665Y0023364D01*
X-0105142D02*
X-0105642Y0022864D01*
X-0105142D02*
X-0105642Y0023364D01*
X-0142355Y0038204D02*
X-0142855Y0037704D01*
X-0142355D02*
X-0142855Y0038204D01*
X-0143378D02*
X-0143878Y0037704D01*
X-0143378D02*
X-0143878Y0038204D01*
X-0143455Y0040725D02*
X-0143955Y0040225D01*
X-0143455D02*
X-0143955Y0040725D01*
X-0142432D02*
X-0142932Y0040225D01*
X-0142432D02*
X-0142932Y0040725D01*
X-0143496Y0043519D02*
X-0143996Y0043019D01*
X-0143496D02*
X-0143996Y0043519D01*
X-0142473D02*
X-0142973Y0043019D01*
X-0142473D02*
X-0142973Y0043519D01*
X-0119348Y0014514D02*
Y0014314D01*
X-0119198Y0014664D02*
X-0119348Y0014514D01*
X-0118998Y0014664D02*
X-0119198D01*
X-0118848Y0014514D02*
X-0118998Y0014664D01*
X-0118848Y0014314D02*
Y0014514D01*
X-0118998Y0014164D02*
X-0118848Y0014314D01*
X-0119198Y0014164D02*
X-0118998D01*
X-0119348Y0014314D02*
X-0119198Y0014164D01*
X-0119348Y0016481D02*
Y0016281D01*
X-0119198Y0016631D02*
X-0119348Y0016481D01*
X-0118998Y0016631D02*
X-0119198D01*
X-0118848Y0016481D02*
X-0118998Y0016631D01*
X-0118848Y0016281D02*
Y0016481D01*
X-0118998Y0016131D02*
X-0118848Y0016281D01*
X-0119198Y0016131D02*
X-0118998D01*
X-0119348Y0016281D02*
X-0119198Y0016131D01*
X-0048126Y0063751D02*
Y0063501D01*
X-0047876Y0063751D02*
X-0048126D01*
X-0047876Y0063251D02*
Y0063751D01*
X-0047626Y0063251D02*
X-0047876D01*
X-0047626Y0063501D02*
Y0063251D01*
X-0048126Y0063501D02*
X-0047626D01*
X-0047126Y0063751D02*
Y0063501D01*
X-0046876Y0063751D02*
X-0047126D01*
X-0046876Y0063251D02*
Y0063751D01*
X-0046626Y0063251D02*
X-0046876D01*
X-0046626Y0063501D02*
Y0063251D01*
X-0047126Y0063501D02*
X-0046626D01*
X-0046126Y0063751D02*
Y0063501D01*
X-0045876Y0063751D02*
X-0046126D01*
X-0045876Y0063251D02*
Y0063751D01*
X-0045626Y0063251D02*
X-0045876D01*
X-0045626Y0063501D02*
Y0063251D01*
X-0046126Y0063501D02*
X-0045626D01*
X-0045126Y0063751D02*
Y0063501D01*
X-0044876Y0063751D02*
X-0045126D01*
X-0044876Y0063251D02*
Y0063751D01*
X-0044626Y0063251D02*
X-0044876D01*
X-0044626Y0063501D02*
Y0063251D01*
X-0045126Y0063501D02*
X-0044626D01*
X-0044126Y0063751D02*
Y0063501D01*
X-0043876Y0063751D02*
X-0044126D01*
X-0043876Y0063251D02*
Y0063751D01*
X-0043626Y0063251D02*
X-0043876D01*
X-0043626Y0063501D02*
Y0063251D01*
X-0044126Y0063501D02*
X-0043626D01*
X-0044154Y0069713D02*
Y0069463D01*
X-0043904Y0069713D02*
X-0044154D01*
X-0043904Y0069213D02*
Y0069713D01*
X-0043654Y0069213D02*
X-0043904D01*
X-0043654Y0069463D02*
Y0069213D01*
X-0044154Y0069463D02*
X-0043654D01*
X-0045137Y0069752D02*
Y0069502D01*
X-0044887Y0069752D02*
X-0045137D01*
X-0044887Y0069252D02*
Y0069752D01*
X-0044637Y0069252D02*
X-0044887D01*
X-0044637Y0069502D02*
Y0069252D01*
X-0045137Y0069502D02*
X-0044637D01*
X-0046120Y0069713D02*
Y0069463D01*
X-0045870Y0069713D02*
X-0046120D01*
X-0045870Y0069213D02*
Y0069713D01*
X-0045620Y0069213D02*
X-0045870D01*
X-0045620Y0069463D02*
Y0069213D01*
X-0046120Y0069463D02*
X-0045620D01*
X-0047143Y0069713D02*
Y0069463D01*
X-0046893Y0069713D02*
X-0047143D01*
X-0046893Y0069213D02*
Y0069713D01*
X-0046643Y0069213D02*
X-0046893D01*
X-0046643Y0069463D02*
Y0069213D01*
X-0047143Y0069463D02*
X-0046643D01*
X-0048126Y0069752D02*
Y0069502D01*
X-0047876Y0069752D02*
X-0048126D01*
X-0047876Y0069252D02*
Y0069752D01*
X-0047626Y0069252D02*
X-0047876D01*
X-0047626Y0069502D02*
Y0069252D01*
X-0048126Y0069502D02*
X-0047626D01*
X-0060083Y0063436D02*
Y0063186D01*
X-0059833Y0063436D02*
X-0060083D01*
X-0059833Y0062936D02*
Y0063436D01*
X-0059583Y0062936D02*
X-0059833D01*
X-0059583Y0063186D02*
Y0062936D01*
X-0060083Y0063186D02*
X-0059583D01*
X-0059083Y0063436D02*
Y0063186D01*
X-0058833Y0063436D02*
X-0059083D01*
X-0058833Y0062936D02*
Y0063436D01*
X-0058583Y0062936D02*
X-0058833D01*
X-0058583Y0063186D02*
Y0062936D01*
X-0059083Y0063186D02*
X-0058583D01*
X-0058083Y0063436D02*
Y0063186D01*
X-0057833Y0063436D02*
X-0058083D01*
X-0057833Y0062936D02*
Y0063436D01*
X-0057583Y0062936D02*
X-0057833D01*
X-0057583Y0063186D02*
Y0062936D01*
X-0058083Y0063186D02*
X-0057583D01*
X-0057083Y0063436D02*
Y0063186D01*
X-0056833Y0063436D02*
X-0057083D01*
X-0056833Y0062936D02*
Y0063436D01*
X-0056583Y0062936D02*
X-0056833D01*
X-0056583Y0063186D02*
Y0062936D01*
X-0057083Y0063186D02*
X-0056583D01*
X-0056083Y0063436D02*
Y0063186D01*
X-0055833Y0063436D02*
X-0056083D01*
X-0055833Y0062936D02*
Y0063436D01*
X-0055583Y0062936D02*
X-0055833D01*
X-0055583Y0063186D02*
Y0062936D01*
X-0056083Y0063186D02*
X-0055583D01*
X-0056110Y0069398D02*
Y0069148D01*
X-0055860Y0069398D02*
X-0056110D01*
X-0055860Y0068898D02*
Y0069398D01*
X-0055610Y0068898D02*
X-0055860D01*
X-0055610Y0069148D02*
Y0068898D01*
X-0056110Y0069148D02*
X-0055610D01*
X-0057093Y0069437D02*
Y0069187D01*
X-0056843Y0069437D02*
X-0057093D01*
X-0056843Y0068937D02*
Y0069437D01*
X-0056593Y0068937D02*
X-0056843D01*
X-0056593Y0069187D02*
Y0068937D01*
X-0057093Y0069187D02*
X-0056593D01*
X-0058077Y0069398D02*
Y0069148D01*
X-0057827Y0069398D02*
X-0058077D01*
X-0057827Y0068898D02*
Y0069398D01*
X-0057577Y0068898D02*
X-0057827D01*
X-0057577Y0069148D02*
Y0068898D01*
X-0058077Y0069148D02*
X-0057577D01*
X-0059099Y0069398D02*
Y0069148D01*
X-0058849Y0069398D02*
X-0059099D01*
X-0058849Y0068898D02*
Y0069398D01*
X-0058599Y0068898D02*
X-0058849D01*
X-0058599Y0069148D02*
Y0068898D01*
X-0059099Y0069148D02*
X-0058599D01*
X-0060083Y0069437D02*
Y0069187D01*
X-0059833Y0069437D02*
X-0060083D01*
X-0059833Y0068937D02*
Y0069437D01*
X-0059583Y0068937D02*
X-0059833D01*
X-0059583Y0069187D02*
Y0068937D01*
X-0060083Y0069187D02*
X-0059583D01*
X-0072787Y0063279D02*
Y0063029D01*
X-0072537Y0063279D02*
X-0072787D01*
X-0072537Y0062779D02*
Y0063279D01*
X-0072287Y0062779D02*
X-0072537D01*
X-0072287Y0063029D02*
Y0062779D01*
X-0072787Y0063029D02*
X-0072287D01*
X-0071787Y0063279D02*
Y0063029D01*
X-0071537Y0063279D02*
X-0071787D01*
X-0071537Y0062779D02*
Y0063279D01*
X-0071287Y0062779D02*
X-0071537D01*
X-0071287Y0063029D02*
Y0062779D01*
X-0071787Y0063029D02*
X-0071287D01*
X-0070787Y0063279D02*
Y0063029D01*
X-0070537Y0063279D02*
X-0070787D01*
X-0070537Y0062779D02*
Y0063279D01*
X-0070287Y0062779D02*
X-0070537D01*
X-0070287Y0063029D02*
Y0062779D01*
X-0070787Y0063029D02*
X-0070287D01*
X-0069787Y0063279D02*
Y0063029D01*
X-0069537Y0063279D02*
X-0069787D01*
X-0069537Y0062779D02*
Y0063279D01*
X-0069287Y0062779D02*
X-0069537D01*
X-0069287Y0063029D02*
Y0062779D01*
X-0069787Y0063029D02*
X-0069287D01*
X-0068787Y0063279D02*
Y0063029D01*
X-0068537Y0063279D02*
X-0068787D01*
X-0068537Y0062779D02*
Y0063279D01*
X-0068287Y0062779D02*
X-0068537D01*
X-0068287Y0063029D02*
Y0062779D01*
X-0068787Y0063029D02*
X-0068287D01*
X-0068814Y0069241D02*
Y0068991D01*
X-0068564Y0069241D02*
X-0068814D01*
X-0068564Y0068741D02*
Y0069241D01*
X-0068314Y0068741D02*
X-0068564D01*
X-0068314Y0068991D02*
Y0068741D01*
X-0068814Y0068991D02*
X-0068314D01*
X-0069797Y0069280D02*
Y0069030D01*
X-0069547Y0069280D02*
X-0069797D01*
X-0069547Y0068780D02*
Y0069280D01*
X-0069297Y0068780D02*
X-0069547D01*
X-0069297Y0069030D02*
Y0068780D01*
X-0069797Y0069030D02*
X-0069297D01*
X-0070781Y0069241D02*
Y0068991D01*
X-0070531Y0069241D02*
X-0070781D01*
X-0070531Y0068741D02*
Y0069241D01*
X-0070281Y0068741D02*
X-0070531D01*
X-0070281Y0068991D02*
Y0068741D01*
X-0070781Y0068991D02*
X-0070281D01*
X-0071803Y0069241D02*
Y0068991D01*
X-0071553Y0069241D02*
X-0071803D01*
X-0071553Y0068741D02*
Y0069241D01*
X-0071303Y0068741D02*
X-0071553D01*
X-0071303Y0068991D02*
Y0068741D01*
X-0071803Y0068991D02*
X-0071303D01*
X-0072787Y0069280D02*
Y0069030D01*
X-0072537Y0069280D02*
X-0072787D01*
X-0072537Y0068780D02*
Y0069280D01*
X-0072287Y0068780D02*
X-0072537D01*
X-0072287Y0069030D02*
Y0068780D01*
X-0072787Y0069030D02*
X-0072287D01*
X-0085780Y0063250D02*
Y0063000D01*
X-0085530Y0063250D02*
X-0085780D01*
X-0085530Y0062750D02*
Y0063250D01*
X-0085280Y0062750D02*
X-0085530D01*
X-0085280Y0063000D02*
Y0062750D01*
X-0085780Y0063000D02*
X-0085280D01*
X-0084780Y0063250D02*
Y0063000D01*
X-0084530Y0063250D02*
X-0084780D01*
X-0084530Y0062750D02*
Y0063250D01*
X-0084280Y0062750D02*
X-0084530D01*
X-0084280Y0063000D02*
Y0062750D01*
X-0084780Y0063000D02*
X-0084280D01*
X-0083780Y0063250D02*
Y0063000D01*
X-0083530Y0063250D02*
X-0083780D01*
X-0083530Y0062750D02*
Y0063250D01*
X-0083280Y0062750D02*
X-0083530D01*
X-0083280Y0063000D02*
Y0062750D01*
X-0083780Y0063000D02*
X-0083280D01*
X-0082780Y0063250D02*
Y0063000D01*
X-0082530Y0063250D02*
X-0082780D01*
X-0082530Y0062750D02*
Y0063250D01*
X-0082280Y0062750D02*
X-0082530D01*
X-0082280Y0063000D02*
Y0062750D01*
X-0082780Y0063000D02*
X-0082280D01*
X-0081780Y0063250D02*
Y0063000D01*
X-0081530Y0063250D02*
X-0081780D01*
X-0081530Y0062750D02*
Y0063250D01*
X-0081280Y0062750D02*
X-0081530D01*
X-0081280Y0063000D02*
Y0062750D01*
X-0081780Y0063000D02*
X-0081280D01*
X-0081807Y0069212D02*
Y0068962D01*
X-0081557Y0069212D02*
X-0081807D01*
X-0081557Y0068712D02*
Y0069212D01*
X-0081307Y0068712D02*
X-0081557D01*
X-0081307Y0068962D02*
Y0068712D01*
X-0081807Y0068962D02*
X-0081307D01*
X-0082790Y0069251D02*
Y0069001D01*
X-0082540Y0069251D02*
X-0082790D01*
X-0082540Y0068751D02*
Y0069251D01*
X-0082290Y0068751D02*
X-0082540D01*
X-0082290Y0069001D02*
Y0068751D01*
X-0082790Y0069001D02*
X-0082290D01*
X-0083774Y0069212D02*
Y0068962D01*
X-0083524Y0069212D02*
X-0083774D01*
X-0083524Y0068712D02*
Y0069212D01*
X-0083274Y0068712D02*
X-0083524D01*
X-0083274Y0068962D02*
Y0068712D01*
X-0083774Y0068962D02*
X-0083274D01*
X-0084796Y0069212D02*
Y0068962D01*
X-0084546Y0069212D02*
X-0084796D01*
X-0084546Y0068712D02*
Y0069212D01*
X-0084296Y0068712D02*
X-0084546D01*
X-0084296Y0068962D02*
Y0068712D01*
X-0084796Y0068962D02*
X-0084296D01*
X-0085780Y0069251D02*
Y0069001D01*
X-0085530Y0069251D02*
X-0085780D01*
X-0085530Y0068751D02*
Y0069251D01*
X-0085280Y0068751D02*
X-0085530D01*
X-0085280Y0069001D02*
Y0068751D01*
X-0085780Y0069001D02*
X-0085280D01*
X-0097682Y0063121D02*
Y0062871D01*
X-0097432Y0063121D02*
X-0097682D01*
X-0097432Y0062621D02*
Y0063121D01*
X-0097182Y0062621D02*
X-0097432D01*
X-0097182Y0062871D02*
Y0062621D01*
X-0097682Y0062871D02*
X-0097182D01*
X-0096682Y0063121D02*
Y0062871D01*
X-0096432Y0063121D02*
X-0096682D01*
X-0096432Y0062621D02*
Y0063121D01*
X-0096182Y0062621D02*
X-0096432D01*
X-0096182Y0062871D02*
Y0062621D01*
X-0096682Y0062871D02*
X-0096182D01*
X-0095682Y0063121D02*
Y0062871D01*
X-0095432Y0063121D02*
X-0095682D01*
X-0095432Y0062621D02*
Y0063121D01*
X-0095182Y0062621D02*
X-0095432D01*
X-0095182Y0062871D02*
Y0062621D01*
X-0095682Y0062871D02*
X-0095182D01*
X-0094682Y0063121D02*
Y0062871D01*
X-0094432Y0063121D02*
X-0094682D01*
X-0094432Y0062621D02*
Y0063121D01*
X-0094182Y0062621D02*
X-0094432D01*
X-0094182Y0062871D02*
Y0062621D01*
X-0094682Y0062871D02*
X-0094182D01*
X-0093682Y0063121D02*
Y0062871D01*
X-0093432Y0063121D02*
X-0093682D01*
X-0093432Y0062621D02*
Y0063121D01*
X-0093182Y0062621D02*
X-0093432D01*
X-0093182Y0062871D02*
Y0062621D01*
X-0093682Y0062871D02*
X-0093182D01*
X-0093709Y0069083D02*
Y0068833D01*
X-0093459Y0069083D02*
X-0093709D01*
X-0093459Y0068583D02*
Y0069083D01*
X-0093209Y0068583D02*
X-0093459D01*
X-0093209Y0068833D02*
Y0068583D01*
X-0093709Y0068833D02*
X-0093209D01*
X-0094693Y0069123D02*
Y0068873D01*
X-0094443Y0069123D02*
X-0094693D01*
X-0094443Y0068623D02*
Y0069123D01*
X-0094193Y0068623D02*
X-0094443D01*
X-0094193Y0068873D02*
Y0068623D01*
X-0094693Y0068873D02*
X-0094193D01*
X-0095676Y0069083D02*
Y0068833D01*
X-0095426Y0069083D02*
X-0095676D01*
X-0095426Y0068583D02*
Y0069083D01*
X-0095176Y0068583D02*
X-0095426D01*
X-0095176Y0068833D02*
Y0068583D01*
X-0095676Y0068833D02*
X-0095176D01*
X-0096699Y0069083D02*
Y0068833D01*
X-0096449Y0069083D02*
X-0096699D01*
X-0096449Y0068583D02*
Y0069083D01*
X-0096199Y0068583D02*
X-0096449D01*
X-0096199Y0068833D02*
Y0068583D01*
X-0096699Y0068833D02*
X-0096199D01*
X-0097682Y0069123D02*
Y0068873D01*
X-0097432Y0069123D02*
X-0097682D01*
X-0097432Y0068623D02*
Y0069123D01*
X-0097182Y0068623D02*
X-0097432D01*
X-0097182Y0068873D02*
Y0068623D01*
X-0097682Y0068873D02*
X-0097182D01*
X-0110386Y0063161D02*
Y0062911D01*
X-0110136Y0063161D02*
X-0110386D01*
X-0110136Y0062661D02*
Y0063161D01*
X-0109886Y0062661D02*
X-0110136D01*
X-0109886Y0062911D02*
Y0062661D01*
X-0110386Y0062911D02*
X-0109886D01*
X-0109386Y0063161D02*
Y0062911D01*
X-0109136Y0063161D02*
X-0109386D01*
X-0109136Y0062661D02*
Y0063161D01*
X-0108886Y0062661D02*
X-0109136D01*
X-0108886Y0062911D02*
Y0062661D01*
X-0109386Y0062911D02*
X-0108886D01*
X-0108386Y0063161D02*
Y0062911D01*
X-0108136Y0063161D02*
X-0108386D01*
X-0108136Y0062661D02*
Y0063161D01*
X-0107886Y0062661D02*
X-0108136D01*
X-0107886Y0062911D02*
Y0062661D01*
X-0108386Y0062911D02*
X-0107886D01*
X-0107386Y0063161D02*
Y0062911D01*
X-0107136Y0063161D02*
X-0107386D01*
X-0107136Y0062661D02*
Y0063161D01*
X-0106886Y0062661D02*
X-0107136D01*
X-0106886Y0062911D02*
Y0062661D01*
X-0107386Y0062911D02*
X-0106886D01*
X-0106386Y0063161D02*
Y0062911D01*
X-0106136Y0063161D02*
X-0106386D01*
X-0106136Y0062661D02*
Y0063161D01*
X-0105886Y0062661D02*
X-0106136D01*
X-0105886Y0062911D02*
Y0062661D01*
X-0106386Y0062911D02*
X-0105886D01*
X-0106413Y0069123D02*
Y0068873D01*
X-0106163Y0069123D02*
X-0106413D01*
X-0106163Y0068623D02*
Y0069123D01*
X-0105913Y0068623D02*
X-0106163D01*
X-0105913Y0068873D02*
Y0068623D01*
X-0106413Y0068873D02*
X-0105913D01*
X-0107396Y0069162D02*
Y0068912D01*
X-0107146Y0069162D02*
X-0107396D01*
X-0107146Y0068662D02*
Y0069162D01*
X-0106896Y0068662D02*
X-0107146D01*
X-0106896Y0068912D02*
Y0068662D01*
X-0107396Y0068912D02*
X-0106896D01*
X-0108380Y0069123D02*
Y0068873D01*
X-0108130Y0069123D02*
X-0108380D01*
X-0108130Y0068623D02*
Y0069123D01*
X-0107880Y0068623D02*
X-0108130D01*
X-0107880Y0068873D02*
Y0068623D01*
X-0108380Y0068873D02*
X-0107880D01*
X-0109402Y0069123D02*
Y0068873D01*
X-0109152Y0069123D02*
X-0109402D01*
X-0109152Y0068623D02*
Y0069123D01*
X-0108902Y0068623D02*
X-0109152D01*
X-0108902Y0068873D02*
Y0068623D01*
X-0109402Y0068873D02*
X-0108902D01*
X-0110386Y0069162D02*
Y0068912D01*
X-0110136Y0069162D02*
X-0110386D01*
X-0110136Y0068662D02*
Y0069162D01*
X-0109886Y0068662D02*
X-0110136D01*
X-0109886Y0068912D02*
Y0068662D01*
X-0110386Y0068912D02*
X-0109886D01*
X-0123836Y0063042D02*
Y0062792D01*
X-0123586Y0063042D02*
X-0123836D01*
X-0123586Y0062542D02*
Y0063042D01*
X-0123336Y0062542D02*
X-0123586D01*
X-0123336Y0062792D02*
Y0062542D01*
X-0123836Y0062792D02*
X-0123336D01*
X-0122836Y0063042D02*
Y0062792D01*
X-0122586Y0063042D02*
X-0122836D01*
X-0122586Y0062542D02*
Y0063042D01*
X-0122336Y0062542D02*
X-0122586D01*
X-0122336Y0062792D02*
Y0062542D01*
X-0122836Y0062792D02*
X-0122336D01*
X-0121836Y0063042D02*
Y0062792D01*
X-0121586Y0063042D02*
X-0121836D01*
X-0121586Y0062542D02*
Y0063042D01*
X-0121336Y0062542D02*
X-0121586D01*
X-0121336Y0062792D02*
Y0062542D01*
X-0121836Y0062792D02*
X-0121336D01*
X-0120836Y0063042D02*
Y0062792D01*
X-0120586Y0063042D02*
X-0120836D01*
X-0120586Y0062542D02*
Y0063042D01*
X-0120336Y0062542D02*
X-0120586D01*
X-0120336Y0062792D02*
Y0062542D01*
X-0120836Y0062792D02*
X-0120336D01*
X-0119836Y0063042D02*
Y0062792D01*
X-0119586Y0063042D02*
X-0119836D01*
X-0119586Y0062542D02*
Y0063042D01*
X-0119336Y0062542D02*
X-0119586D01*
X-0119336Y0062792D02*
Y0062542D01*
X-0119836Y0062792D02*
X-0119336D01*
X-0119864Y0069004D02*
Y0068754D01*
X-0119614Y0069004D02*
X-0119864D01*
X-0119614Y0068504D02*
Y0069004D01*
X-0119364Y0068504D02*
X-0119614D01*
X-0119364Y0068754D02*
Y0068504D01*
X-0119864Y0068754D02*
X-0119364D01*
X-0120847Y0069044D02*
Y0068794D01*
X-0120597Y0069044D02*
X-0120847D01*
X-0120597Y0068544D02*
Y0069044D01*
X-0120347Y0068544D02*
X-0120597D01*
X-0120347Y0068794D02*
Y0068544D01*
X-0120847Y0068794D02*
X-0120347D01*
X-0121830Y0069004D02*
Y0068754D01*
X-0121580Y0069004D02*
X-0121830D01*
X-0121580Y0068504D02*
Y0069004D01*
X-0121330Y0068504D02*
X-0121580D01*
X-0121330Y0068754D02*
Y0068504D01*
X-0121830Y0068754D02*
X-0121330D01*
X-0122853Y0069004D02*
Y0068754D01*
X-0122603Y0069004D02*
X-0122853D01*
X-0122603Y0068504D02*
Y0069004D01*
X-0122353Y0068504D02*
X-0122603D01*
X-0122353Y0068754D02*
Y0068504D01*
X-0122853Y0068754D02*
X-0122353D01*
X-0123836Y0069044D02*
Y0068794D01*
X-0123586Y0069044D02*
X-0123836D01*
X-0123586Y0068544D02*
Y0069044D01*
X-0123336Y0068544D02*
X-0123586D01*
X-0123336Y0068794D02*
Y0068544D01*
X-0123836Y0068794D02*
X-0123336D01*
X-0136501Y0063397D02*
Y0063147D01*
X-0136251Y0063397D02*
X-0136501D01*
X-0136251Y0062897D02*
Y0063397D01*
X-0136001Y0062897D02*
X-0136251D01*
X-0136001Y0063147D02*
Y0062897D01*
X-0136501Y0063147D02*
X-0136001D01*
X-0135501Y0063397D02*
Y0063147D01*
X-0135251Y0063397D02*
X-0135501D01*
X-0135251Y0062897D02*
Y0063397D01*
X-0135001Y0062897D02*
X-0135251D01*
X-0135001Y0063147D02*
Y0062897D01*
X-0135501Y0063147D02*
X-0135001D01*
X-0134501Y0063397D02*
Y0063147D01*
X-0134251Y0063397D02*
X-0134501D01*
X-0134251Y0062897D02*
Y0063397D01*
X-0134001Y0062897D02*
X-0134251D01*
X-0134001Y0063147D02*
Y0062897D01*
X-0134501Y0063147D02*
X-0134001D01*
X-0133501Y0063397D02*
Y0063147D01*
X-0133251Y0063397D02*
X-0133501D01*
X-0133251Y0062897D02*
Y0063397D01*
X-0133001Y0062897D02*
X-0133251D01*
X-0133001Y0063147D02*
Y0062897D01*
X-0133501Y0063147D02*
X-0133001D01*
X-0132501Y0063397D02*
Y0063147D01*
X-0132251Y0063397D02*
X-0132501D01*
X-0132251Y0062897D02*
Y0063397D01*
X-0132001Y0062897D02*
X-0132251D01*
X-0132001Y0063147D02*
Y0062897D01*
X-0132501Y0063147D02*
X-0132001D01*
X-0132529Y0069359D02*
Y0069109D01*
X-0132279Y0069359D02*
X-0132529D01*
X-0132279Y0068859D02*
Y0069359D01*
X-0132029Y0068859D02*
X-0132279D01*
X-0132029Y0069109D02*
Y0068859D01*
X-0132529Y0069109D02*
X-0132029D01*
X-0133512Y0069398D02*
Y0069148D01*
X-0133262Y0069398D02*
X-0133512D01*
X-0133262Y0068898D02*
Y0069398D01*
X-0133012Y0068898D02*
X-0133262D01*
X-0133012Y0069148D02*
Y0068898D01*
X-0133512Y0069148D02*
X-0133012D01*
X-0134495Y0069359D02*
Y0069109D01*
X-0134245Y0069359D02*
X-0134495D01*
X-0134245Y0068859D02*
Y0069359D01*
X-0133995Y0068859D02*
X-0134245D01*
X-0133995Y0069109D02*
Y0068859D01*
X-0134495Y0069109D02*
X-0133995D01*
X-0135518Y0069359D02*
Y0069109D01*
X-0135268Y0069359D02*
X-0135518D01*
X-0135268Y0068859D02*
Y0069359D01*
X-0135018Y0068859D02*
X-0135268D01*
X-0135018Y0069109D02*
Y0068859D01*
X-0135518Y0069109D02*
X-0135018D01*
X-0136501Y0069398D02*
Y0069148D01*
X-0136251Y0069398D02*
X-0136501D01*
X-0136251Y0068898D02*
Y0069398D01*
X-0136001Y0068898D02*
X-0136251D01*
X-0136001Y0069148D02*
Y0068898D01*
X-0136501Y0069148D02*
X-0136001D01*
X-0133378Y0020454D02*
Y0020254D01*
X-0133228Y0020604D02*
X-0133378Y0020454D01*
X-0133028Y0020604D02*
X-0133228D01*
X-0132878Y0020454D02*
X-0133028Y0020604D01*
X-0132878Y0020254D02*
Y0020454D01*
X-0133028Y0020104D02*
X-0132878Y0020254D01*
X-0133228Y0020104D02*
X-0133028D01*
X-0133378Y0020254D02*
X-0133228Y0020104D01*
X-0133378Y0019454D02*
Y0019254D01*
X-0133228Y0019604D02*
X-0133378Y0019454D01*
X-0133028Y0019604D02*
X-0133228D01*
X-0132878Y0019454D02*
X-0133028Y0019604D01*
X-0132878Y0019254D02*
Y0019454D01*
X-0133028Y0019104D02*
X-0132878Y0019254D01*
X-0133228Y0019104D02*
X-0133028D01*
X-0133378Y0019254D02*
X-0133228Y0019104D01*
X-0133378Y0018454D02*
Y0018254D01*
X-0133228Y0018604D02*
X-0133378Y0018454D01*
X-0133028Y0018604D02*
X-0133228D01*
X-0132878Y0018454D02*
X-0133028Y0018604D01*
X-0132878Y0018254D02*
Y0018454D01*
X-0133028Y0018104D02*
X-0132878Y0018254D01*
X-0133228Y0018104D02*
X-0133028D01*
X-0133378Y0018254D02*
X-0133228Y0018104D01*
X-0133378Y0017454D02*
Y0017254D01*
X-0133228Y0017604D02*
X-0133378Y0017454D01*
X-0133028Y0017604D02*
X-0133228D01*
X-0132878Y0017454D02*
X-0133028Y0017604D01*
X-0132878Y0017254D02*
Y0017454D01*
X-0133028Y0017104D02*
X-0132878Y0017254D01*
X-0133228Y0017104D02*
X-0133028D01*
X-0133378Y0017254D02*
X-0133228Y0017104D01*
X-0133378Y0016454D02*
Y0016254D01*
X-0133228Y0016604D02*
X-0133378Y0016454D01*
X-0133028Y0016604D02*
X-0133228D01*
X-0132878Y0016454D02*
X-0133028Y0016604D01*
X-0132878Y0016254D02*
Y0016454D01*
X-0133028Y0016104D02*
X-0132878Y0016254D01*
X-0133228Y0016104D02*
X-0133028D01*
X-0133378Y0016254D02*
X-0133228Y0016104D01*
X-0133378Y0015454D02*
Y0015254D01*
X-0133228Y0015604D02*
X-0133378Y0015454D01*
X-0133028Y0015604D02*
X-0133228D01*
X-0132878Y0015454D02*
X-0133028Y0015604D01*
X-0132878Y0015254D02*
Y0015454D01*
X-0133028Y0015104D02*
X-0132878Y0015254D01*
X-0133228Y0015104D02*
X-0133028D01*
X-0133378Y0015254D02*
X-0133228Y0015104D01*
X-0133378Y0014454D02*
Y0014254D01*
X-0133228Y0014604D02*
X-0133378Y0014454D01*
X-0133028Y0014604D02*
X-0133228D01*
X-0132878Y0014454D02*
X-0133028Y0014604D01*
X-0132878Y0014254D02*
Y0014454D01*
X-0133028Y0014104D02*
X-0132878Y0014254D01*
X-0133228Y0014104D02*
X-0133028D01*
X-0133378Y0014254D02*
X-0133228Y0014104D01*
X-0130310Y0014476D02*
Y0014276D01*
X-0130160Y0014626D02*
X-0130310Y0014476D01*
X-0129960Y0014626D02*
X-0130160D01*
X-0129810Y0014476D02*
X-0129960Y0014626D01*
X-0129810Y0014276D02*
Y0014476D01*
X-0129960Y0014126D02*
X-0129810Y0014276D01*
X-0130160Y0014126D02*
X-0129960D01*
X-0130310Y0014276D02*
X-0130160Y0014126D01*
X-0130310Y0015476D02*
Y0015276D01*
X-0130160Y0015626D02*
X-0130310Y0015476D01*
X-0129960Y0015626D02*
X-0130160D01*
X-0129810Y0015476D02*
X-0129960Y0015626D01*
X-0129810Y0015276D02*
Y0015476D01*
X-0129960Y0015126D02*
X-0129810Y0015276D01*
X-0130160Y0015126D02*
X-0129960D01*
X-0130310Y0015276D02*
X-0130160Y0015126D01*
X-0130271Y0016459D02*
Y0016259D01*
X-0130121Y0016609D02*
X-0130271Y0016459D01*
X-0129921Y0016609D02*
X-0130121D01*
X-0129771Y0016459D02*
X-0129921Y0016609D01*
X-0129771Y0016259D02*
Y0016459D01*
X-0129921Y0016109D02*
X-0129771Y0016259D01*
X-0130121Y0016109D02*
X-0129921D01*
X-0130271Y0016259D02*
X-0130121Y0016109D01*
X-0130271Y0017482D02*
Y0017282D01*
X-0130121Y0017632D02*
X-0130271Y0017482D01*
X-0129921Y0017632D02*
X-0130121D01*
X-0129771Y0017482D02*
X-0129921Y0017632D01*
X-0129771Y0017282D02*
Y0017482D01*
X-0129921Y0017132D02*
X-0129771Y0017282D01*
X-0130121Y0017132D02*
X-0129921D01*
X-0130271Y0017282D02*
X-0130121Y0017132D01*
X-0130310Y0018465D02*
Y0018265D01*
X-0130160Y0018615D02*
X-0130310Y0018465D01*
X-0129960Y0018615D02*
X-0130160D01*
X-0129810Y0018465D02*
X-0129960Y0018615D01*
X-0129810Y0018265D02*
Y0018465D01*
X-0129960Y0018115D02*
X-0129810Y0018265D01*
X-0130160Y0018115D02*
X-0129960D01*
X-0130310Y0018265D02*
X-0130160Y0018115D01*
X-0130310Y0019527D02*
Y0019327D01*
X-0130160Y0019677D02*
X-0130310Y0019527D01*
X-0129960Y0019677D02*
X-0130160D01*
X-0129810Y0019527D02*
X-0129960Y0019677D01*
X-0129810Y0019327D02*
Y0019527D01*
X-0129960Y0019177D02*
X-0129810Y0019327D01*
X-0130160Y0019177D02*
X-0129960D01*
X-0130310Y0019327D02*
X-0130160Y0019177D01*
X-0130271Y0020510D02*
Y0020310D01*
X-0130121Y0020660D02*
X-0130271Y0020510D01*
X-0129921Y0020660D02*
X-0130121D01*
X-0129771Y0020510D02*
X-0129921Y0020660D01*
X-0129771Y0020310D02*
Y0020510D01*
X-0129921Y0020160D02*
X-0129771Y0020310D01*
X-0130121Y0020160D02*
X-0129921D01*
X-0130271Y0020310D02*
X-0130121Y0020160D01*
X-0141790Y0020543D02*
X-0142040Y0020293D01*
X-0141540D02*
X-0141790Y0020543D01*
X-0142040Y0020293D02*
X-0141540D01*
X-0140295Y0020543D02*
X-0140545Y0020293D01*
X-0140045D02*
X-0140295Y0020543D01*
X-0140545Y0020293D02*
X-0140045D01*
X-0141042Y0017986D02*
X-0141292Y0017736D01*
X-0140792D02*
X-0141042Y0017986D01*
X-0141292Y0017736D02*
X-0140792D01*
M02*
