*
G04 Mass Parameters ***
*
G04 Image ***
*
%INC:\USERS\DATOR\ONEDRIVE\DESKTOP\2024_DIZERTATIE_BALTAG_A_FRECVENTMETRU\DISERTATIE_6_IUNIE\SCHEMA_DISERTATIE_CAPTURE_LAYOUT\SWEEP5.TOP*%
%ICAS*%
%MOIN*%
%IPPOS*%
%ASAXBY*%
G74*%FSLAN2X34Y34*%
*
G04 Aperture Definitions ***
*
%ADD10C,0.0709*%
%ADD11C,0.0472*%
%ADD12C,0.0354*%
%ADD13C,0.0394*%
%ADD14C,0.0984*%
%ADD15C,0.0472*%
*
G04 Plot Data ***
*
G54D15*
G01X-0060658Y0047988D02*
Y0047246D01*
X-0059057D01*
X-0058821Y0047010D01*
Y0044884D01*
X-0058703Y0044765D01*
X-0058658D01*
Y0044054D01*
X-0057658D02*
Y0044057D01*
X-0057661Y0044054D01*
X-0058658D01*
X-0137155Y0048263D02*
Y0047482D01*
X-0137131D01*
X-0137013Y0047364D01*
Y0045356D01*
X-0136777Y0045120D01*
X-0135155D01*
Y0044361D01*
X-0135123Y0044330D01*
X-0135155D01*
X-0121845Y0043936D02*
X-0122845D01*
X-0110455Y0035315D02*
X-0111264D01*
Y0027875D01*
X-0111500Y0027639D01*
X-0126264D01*
X-0126501Y0027875D01*
Y0035079D01*
X-0126619Y0035197D01*
X-0126855D02*
X-0127227D01*
X-0071038Y0013781D02*
Y0013701D01*
X-0070987D01*
Y0013347D01*
X-0071223Y0013111D01*
X-0085805D01*
X-0086460Y0013765D01*
X-0087228D01*
X-0068448Y0023034D02*
Y0022324D01*
X-0070042D01*
X-0070278Y0022087D01*
Y0013781D01*
X-0070553D01*
X-0070987Y0013347D01*
Y0013701D01*
X-0071038D01*
Y0013781D01*
X-0142682Y0040475D02*
Y0039686D01*
X-0142564D01*
Y0038742D01*
X-0142605D01*
Y0037954D01*
X-0100066Y0023073D02*
Y0023859D01*
X-0100397Y0024191D01*
Y0024568D01*
X-0106067D01*
X-0106303Y0024332D01*
Y0023269D01*
X-0106415D01*
Y0023114D01*
X-0086853Y0047870D02*
Y0047718D01*
X-0086814D01*
Y0047364D01*
X-0087050Y0047128D01*
X-0098744D01*
X-0098980Y0047364D01*
Y0047718D01*
X-0099044D01*
Y0047870D01*
X-0109787Y0043936D02*
X-0109610D01*
X-0109787Y0044113D01*
X-0109965Y0043936D01*
Y0043112D01*
X-0121658D01*
Y0043582D01*
X-0122012Y0043936D01*
X-0121845D01*
X-0125426Y0019609D02*
X-0126146Y0020434D01*
X-0126264D01*
X-0126501Y0020670D01*
Y0027403D01*
X-0126264Y0027639D01*
X-0126501Y0027875D01*
Y0035197D01*
X-0127227D01*
X-0109787Y0043936D02*
X-0108787D01*
X-0134155Y0044330D02*
X-0135155D01*
X-0124845Y0047869D02*
Y0047718D01*
X-0124729D01*
Y0047364D01*
X-0124493Y0047128D01*
X-0111787D01*
Y0047870D01*
X-0070537Y0063029D02*
Y0063782D01*
X-0070514D01*
X-0070396Y0063900D01*
Y0068152D01*
X-0070514Y0068270D01*
X-0070531D01*
Y0068991D01*
X-0100066Y0023073D02*
Y0023859D01*
X-0098508D01*
X-0098271Y0023623D01*
Y0021615D01*
X-0102051D01*
X-0102760Y0022324D01*
X-0103268D01*
Y0023074D01*
X-0079853Y0043936D02*
Y0043112D01*
X-0079845D01*
Y0030710D01*
Y0030474D02*
Y0029411D01*
X-0081027Y0028229D01*
Y0028198D01*
X-0081751D01*
X-0084120Y0019821D02*
X-0083389D01*
Y0019725D01*
X-0083271Y0019607D01*
X-0072050D01*
X-0071814Y0019371D01*
Y0016781D01*
X-0071038D01*
X-0079853Y0043936D02*
X-0079845D01*
X-0079853Y0043929D01*
Y0043112D01*
X-0091066D01*
X-0091303Y0043348D01*
Y0043936D01*
X-0092044D01*
X-0066999Y0020821D02*
Y0021615D01*
X-0066971D01*
Y0022087D01*
X-0067207Y0022324D01*
X-0067307D01*
X-0067425Y0022442D01*
Y0023034D01*
X-0054117Y0034843D02*
Y0035552D01*
X-0054096D01*
Y0040395D01*
X-0057640Y0043939D01*
X-0057658D01*
Y0044054D01*
X-0041652Y0022189D02*
Y0022324D01*
X-0041576D01*
X-0041813Y0022087D01*
X-0042757D01*
X-0042994Y0021851D01*
Y0013299D01*
X-0043112Y0013181D01*
X-0043795D01*
X-0104787Y0043936D02*
X-0104059D01*
Y0043348D01*
X-0103823Y0043112D01*
X-0092247D01*
X-0092011Y0043348D01*
Y0043936D01*
X-0092044D01*
X-0084996Y0022643D02*
Y0021851D01*
X-0084924D01*
Y0020788D01*
X-0084688Y0020552D01*
X-0084120D01*
Y0019821D01*
X-0145753Y0074648D02*
Y0068743D01*
X-0145517Y0068506D01*
X-0144729D01*
X-0106415Y0023114D02*
Y0023269D01*
X-0106303D01*
X-0106458Y0023114D01*
X-0107130D01*
Y0023150D01*
X-0125083D01*
X-0125320Y0022914D01*
Y0020670D01*
X-0125426D01*
Y0019609D01*
X-0130021Y0020410D02*
Y0020434D01*
X-0130139Y0020552D01*
X-0130162D01*
X-0136304Y0026694D01*
Y0031655D01*
X-0136540Y0031891D01*
X-0140754D01*
X-0142723Y0043269D02*
X-0141974D01*
Y0043112D01*
X-0136777Y0037915D01*
Y0037206D01*
X-0136304D01*
X-0130044Y0043466D01*
Y0043584D01*
X-0130155D01*
Y0044330D01*
X-0057833Y0063186D02*
X-0057758D01*
Y0063191D01*
X-0057640Y0063309D01*
X-0058112Y0063782D01*
X-0058467D01*
X-0058585Y0063900D01*
X-0069451D01*
X-0069688Y0063664D01*
X-0070160D01*
X-0070396Y0063900D01*
X-0070514Y0063782D01*
X-0070537D01*
Y0063029D01*
X-0134245Y0069109D02*
Y0068388D01*
X-0125083D01*
X-0124020Y0069451D01*
X-0122012D01*
X-0121776Y0069688D01*
X-0121658Y0069569D01*
X-0121580D01*
Y0068754D01*
X-0060658Y0047988D02*
X-0061420D01*
Y0048427D01*
X-0061656Y0048663D01*
X-0074176D01*
X-0074412Y0048427D01*
Y0048073D01*
X-0074530Y0047955D01*
X-0074542D01*
Y0047870D01*
X-0142171Y0054333D02*
Y0055041D01*
X-0142210D01*
Y0060947D01*
X-0142446Y0061183D01*
X-0143352D01*
Y0061222D01*
X-0142682Y0061892D01*
X-0143352D01*
X-0141776Y0031891D02*
Y0032600D01*
X-0141619D01*
X-0141383Y0032836D01*
Y0036970D01*
X-0141619Y0037206D01*
X-0142919D01*
Y0037244D01*
X-0143628Y0037954D01*
Y0038742D01*
X-0143627D01*
Y0039686D01*
X-0143705D01*
Y0040475D01*
X-0130413Y0028317D02*
X-0131225D01*
Y0034726D01*
X-0131107Y0034844D01*
X-0130871Y0036143D02*
X-0129690D01*
X-0129454Y0035907D01*
X-0128627D01*
X-0128391D02*
X-0114689D01*
X-0114453Y0035671D01*
Y0028435D01*
X-0113641D01*
X-0130155Y0044330D02*
Y0043584D01*
X-0130044D01*
Y0043466D01*
X-0132525Y0040986D01*
X-0132761Y0040750D02*
X-0136304Y0037206D01*
X-0142919D01*
Y0037244D01*
X-0143628Y0037954D01*
X-0125426Y0014412D02*
Y0015237D01*
X-0125320D01*
Y0016300D01*
X-0125308D01*
Y0017011D01*
X-0045191Y0044529D02*
X-0046191D01*
X-0126331Y0017011D02*
Y0016300D01*
X-0126264D01*
Y0015355D01*
X-0126383Y0015237D01*
X-0126449D01*
Y0014412D01*
Y0019609D02*
X-0127209D01*
Y0019607D01*
X-0127446Y0019371D01*
X-0126383Y0018308D01*
Y0017835D01*
X-0126331D01*
Y0017011D01*
X-0105392Y0023114D02*
Y0022560D01*
X-0104838Y0023114D01*
X-0104650D01*
Y0023623D01*
X-0104413Y0023859D01*
X-0102996D01*
Y0023825D01*
X-0102245Y0023074D01*
X-0099043Y0023073D02*
Y0022914D01*
X-0098980D01*
Y0022796D01*
X-0099452Y0022324D01*
X-0101224D01*
X-0101460Y0022560D01*
Y0023074D01*
X-0102245D01*
X-0079853Y0043936D02*
X-0079137D01*
Y0043348D01*
X-0078901Y0043112D01*
X-0067542D01*
Y0043937D01*
X-0067425Y0023034D02*
Y0023132D01*
X-0068152Y0023859D01*
Y0023977D01*
X-0068388Y0024213D01*
X-0082562D01*
Y0028198D01*
X-0081751D01*
X-0108130Y0068873D02*
Y0068152D01*
X-0108075D01*
Y0063782D01*
X-0108136D01*
Y0062911D01*
X-0143352Y0061892D02*
X-0142682D01*
X-0142092Y0062483D01*
X-0134887D01*
Y0062511D01*
X-0134251Y0063147D01*
X-0143707Y0068506D02*
X-0143037D01*
X-0142919Y0068388D01*
X-0135123D01*
X-0135005Y0068506D01*
X-0134363D01*
X-0134245Y0068388D01*
Y0069109D01*
X-0143905Y0073468D02*
Y0072404D01*
X-0143864D01*
Y0069333D01*
X-0143745Y0069215D01*
X-0143707D01*
Y0069176D01*
X-0143037Y0068506D01*
X-0143707D01*
X-0134251Y0063147D02*
Y0063900D01*
X-0134178D01*
Y0068388D01*
X-0134245D01*
Y0069109D01*
X-0054117Y0034843D02*
X-0053388D01*
Y0034726D01*
X-0046655D01*
X-0046419Y0034489D01*
Y0015355D01*
Y0015150D02*
X-0045691D01*
X-0045876Y0063501D02*
Y0063428D01*
X-0045828D01*
Y0063073D01*
X-0045876Y0063025D01*
Y0064254D01*
X-0045828D01*
X-0045710Y0064372D01*
Y0068625D01*
X-0045828Y0068743D01*
X-0045870D01*
Y0069463D01*
X-0097044Y0043936D02*
X-0097208D01*
Y0044647D01*
X-0109492D01*
X-0109728Y0044411D01*
Y0035315D01*
X-0110455D01*
X-0048191Y0048463D02*
X-0048899D01*
Y0048545D01*
X-0049136Y0048781D01*
X-0061538D01*
X-0061656Y0048663D01*
X-0061420Y0048427D01*
Y0047988D01*
X-0060658D01*
X-0067542Y0043937D02*
Y0043112D01*
X-0058467D01*
X-0056577Y0041222D01*
Y0030237D01*
Y0030001D02*
Y0028111D01*
X-0057303D01*
Y0027962D01*
X-0143194Y0054333D02*
Y0053624D01*
X-0138667D01*
X-0137958Y0052915D01*
Y0048263D01*
X-0137558D01*
X-0137013Y0047718D01*
Y0048073D01*
X-0137131Y0048191D01*
X-0137155D01*
Y0048263D01*
X-0071542Y0043937D02*
X-0072542D01*
X-0141776Y0031891D02*
Y0032600D01*
X-0141619D01*
X-0141383Y0032836D01*
X-0141147Y0032600D01*
X-0131225D01*
Y0028317D01*
X-0130413D01*
X-0071542Y0043937D02*
X-0072286D01*
Y0044411D01*
X-0072522Y0044647D01*
X-0083853D01*
Y0043936D01*
X-0070531Y0068991D02*
Y0066515D01*
X-0083287D01*
X-0083524Y0066735D01*
X-0083507D02*
X-0083524Y0066718D01*
Y0062972D01*
X-0057658Y0044054D02*
Y0044175D01*
X-0057640D01*
X-0057049Y0044765D01*
X-0049608D01*
X-0048663Y0043821D01*
X-0046891D01*
X-0046655Y0044057D01*
X-0046427D01*
X-0046191Y0044293D01*
Y0044529D01*
X-0121586Y0062792D02*
X-0120949Y0063428D01*
X-0120713Y0063664D01*
X-0109020D01*
X-0108902Y0063546D01*
X-0108784D01*
X-0108136Y0062911D01*
X-0071542Y0043937D02*
Y0044647D01*
X-0071424Y0044765D01*
X-0058939D01*
X-0058821Y0044884D01*
X-0058703Y0044765D01*
X-0058658D01*
Y0044054D01*
X-0084996Y0022643D02*
Y0023387D01*
X-0083271D01*
X-0083035Y0023623D01*
Y0023741D01*
X-0082562Y0024213D01*
Y0028198D01*
X-0081751D01*
X-0105392Y0023114D02*
Y0022442D01*
X-0105510Y0022324D01*
X-0106657D01*
X-0106894Y0022087D01*
Y0013827D01*
X-0107698D01*
X-0095426Y0068833D02*
X-0096027Y0069434D01*
Y0069451D01*
X-0096145Y0069569D01*
X-0107484D01*
Y0069518D01*
X-0108130Y0068873D01*
X-0053658Y0044054D02*
X-0052915D01*
Y0043348D01*
X-0052679Y0043112D01*
X-0041340D01*
X-0041104Y0043348D01*
Y0044529D01*
X-0041191D01*
X-0130413Y0028317D02*
X-0129690D01*
Y0028347D01*
X-0128627D01*
X-0128391Y0028111D01*
Y0019607D01*
X-0128154Y0019371D01*
X-0127446D01*
X-0127209Y0019607D01*
Y0019609D01*
X-0126449D01*
X-0095432Y0062871D02*
X-0095555Y0062989D01*
Y0068034D01*
X-0095426D01*
Y0068833D01*
X-0144375Y0061892D02*
Y0062601D01*
X-0144336D01*
Y0067562D01*
X-0144572Y0067798D01*
X-0144729D01*
Y0068506D01*
X-0143746Y0043269D02*
Y0042521D01*
X-0143745D01*
X-0143627Y0042403D01*
Y0041458D01*
X-0143391Y0041222D01*
X-0142682D01*
Y0040475D01*
X-0109787Y0043936D02*
X-0109610D01*
X-0109787Y0044113D01*
Y0044647D01*
X-0111382D01*
X-0111618Y0044884D01*
Y0047128D01*
X-0111787D01*
Y0047870D01*
X-0057827Y0069148D02*
Y0068979D01*
X-0057758D01*
Y0068506D01*
X-0057994Y0068270D01*
X-0070278D01*
X-0070396Y0068152D01*
X-0070514Y0068270D01*
X-0070531D01*
Y0068991D01*
X-0096044Y0043936D02*
X-0097044D01*
X-0083743Y0065790D02*
X-0094589D01*
X-0095426Y0066627D01*
Y0068833D01*
X-0143746Y0043269D02*
X-0143037Y0043978D01*
Y0044057D01*
X-0139257D01*
X-0138785Y0043584D01*
X-0135123D01*
Y0044330D01*
X-0135155D01*
X-0083853Y0043936D02*
X-0084853D01*
X-0125308Y0017011D02*
Y0017835D01*
X-0125201D01*
Y0018780D01*
X-0125320Y0018898D01*
X-0125426D01*
Y0019609D01*
X-0045876Y0063501D02*
Y0063428D01*
X-0045828D01*
Y0063073D01*
X-0046065Y0062837D01*
X-0048309D01*
X-0049372Y0063900D01*
X-0057049D01*
X-0057167Y0063782D01*
X-0057666Y0063335D01*
X-0057833Y0063186D01*
X-0096044Y0043936D02*
X-0095909D01*
Y0044647D01*
X-0084924D01*
Y0043936D01*
X-0084853D01*
X-0099044Y0047870D02*
Y0047718D01*
X-0098980D01*
Y0047364D01*
X-0098744Y0047128D01*
X-0111787D01*
Y0047870D01*
X-0045691Y0015150D02*
Y0014410D01*
X-0045592D01*
Y0014174D01*
X-0045356Y0013938D01*
X-0044818D01*
Y0013181D01*
X-0103268Y0023074D02*
Y0022324D01*
X-0103586D01*
X-0103823Y0022087D01*
Y0020906D01*
X-0104059Y0020670D01*
X-0104591D01*
Y0019883D01*
X-0143194Y0054333D02*
X-0143982D01*
X-0144218Y0054569D01*
Y0061065D01*
X-0144336Y0061183D01*
X-0144375D01*
Y0061892D01*
X-0103268Y0023074D02*
Y0022324D01*
X-0102760D01*
X-0102051Y0021615D01*
X-0085869D01*
Y0021851D01*
X-0085900D01*
X-0086019Y0021969D01*
Y0022643D01*
Y0021969D01*
X-0085900Y0021851D01*
X-0085869D01*
Y0021615D01*
X-0086460D01*
Y0013765D01*
X-0087228D01*
X-0083524Y0068962D02*
Y0066735D01*
X-0083287Y0066515D01*
X-0070531D01*
Y0068991D01*
G54D10*
X-0141790Y0020393D03*
X-0140295D03*
G54D11*
X-0084120Y0013821D03*
Y0014821D03*
Y0015821D03*
Y0016821D03*
Y0017821D03*
Y0018821D03*
Y0019821D03*
X-0087188Y0019800D03*
Y0018800D03*
X-0087228Y0017817D03*
Y0016794D03*
X-0087188Y0015811D03*
Y0014749D03*
X-0087228Y0013765D03*
X-0067038Y0013781D03*
Y0014781D03*
Y0015781D03*
Y0016781D03*
Y0017781D03*
Y0018781D03*
Y0019781D03*
X-0066999Y0020821D03*
X-0071011Y0020781D03*
X-0071038Y0019781D03*
X-0071011Y0018775D03*
X-0071038Y0017781D03*
Y0016781D03*
Y0015781D03*
Y0014781D03*
Y0013781D03*
X-0041691Y0015150D03*
Y0016150D03*
Y0017150D03*
Y0018150D03*
Y0019150D03*
Y0020150D03*
Y0021150D03*
X-0041652Y0022189D03*
X-0045664Y0022150D03*
X-0045691Y0021150D03*
X-0045664Y0020144D03*
X-0045691Y0019150D03*
Y0018150D03*
Y0017150D03*
Y0016150D03*
Y0015150D03*
X-0107698Y0019827D03*
Y0018827D03*
Y0017827D03*
Y0016827D03*
Y0015827D03*
Y0014827D03*
Y0013827D03*
X-0104630Y0013849D03*
Y0014849D03*
X-0104591Y0015832D03*
Y0016855D03*
X-0104630Y0017838D03*
Y0018900D03*
X-0104591Y0019883D03*
X-0057303Y0034962D03*
Y0033962D03*
Y0032962D03*
Y0031962D03*
Y0030962D03*
Y0029962D03*
Y0028962D03*
Y0027962D03*
X-0054117Y0027843D03*
Y0028843D03*
Y0029843D03*
Y0030843D03*
Y0031843D03*
Y0032843D03*
Y0033843D03*
Y0034843D03*
X-0081751Y0035198D03*
Y0034198D03*
Y0033198D03*
Y0032198D03*
Y0031198D03*
Y0030198D03*
Y0029198D03*
Y0028198D03*
X-0078565Y0028079D03*
Y0029079D03*
Y0030079D03*
Y0031079D03*
Y0032079D03*
Y0033079D03*
Y0034079D03*
Y0035079D03*
X-0113641Y0035435D03*
Y0034435D03*
Y0033435D03*
Y0032435D03*
Y0031435D03*
Y0030435D03*
Y0029435D03*
Y0028435D03*
X-0110455Y0028315D03*
Y0029315D03*
Y0030315D03*
Y0031315D03*
Y0032315D03*
Y0033315D03*
Y0034315D03*
Y0035315D03*
X-0130413Y0035317D03*
Y0034317D03*
Y0033317D03*
Y0032317D03*
Y0031317D03*
Y0030317D03*
Y0029317D03*
Y0028317D03*
X-0127227Y0028197D03*
Y0029197D03*
Y0030197D03*
Y0031197D03*
Y0032197D03*
Y0033197D03*
Y0034197D03*
Y0035197D03*
X-0048191Y0044529D03*
X-0047191D03*
X-0046191D03*
X-0045191D03*
X-0044191D03*
X-0043191D03*
X-0042191D03*
X-0041191D03*
X-0041268Y0048463D03*
X-0042251Y0048502D03*
X-0043274D03*
X-0044257Y0048463D03*
X-0045319D03*
X-0046303Y0048502D03*
X-0047286D03*
X-0048191Y0048463D03*
X-0060658Y0044054D03*
X-0059658D03*
X-0058658D03*
X-0057658D03*
X-0056658D03*
X-0055658D03*
X-0054658D03*
X-0053658D03*
X-0053736Y0047988D03*
X-0054719Y0048027D03*
X-0055742D03*
X-0056725Y0047988D03*
X-0057787D03*
X-0058770Y0048027D03*
X-0059754D03*
X-0060658Y0047988D03*
X-0074542Y0043937D03*
X-0073542D03*
X-0072542D03*
X-0071542D03*
X-0070542D03*
X-0069542D03*
X-0068542D03*
X-0067542D03*
X-0067620Y0047870D03*
X-0068603Y0047909D03*
X-0069626D03*
X-0070609Y0047870D03*
X-0071671D03*
X-0072654Y0047909D03*
X-0073638D03*
X-0074542Y0047870D03*
X-0086853Y0043936D03*
X-0085853D03*
X-0084853D03*
X-0083853D03*
X-0082853D03*
X-0081853D03*
X-0080853D03*
X-0079853D03*
X-0079930Y0047870D03*
X-0080913Y0047909D03*
X-0081936D03*
X-0082919Y0047870D03*
X-0083981D03*
X-0084965Y0047909D03*
X-0085948D03*
X-0086853Y0047870D03*
X-0099044Y0043936D03*
X-0098044D03*
X-0097044D03*
X-0096044D03*
X-0095044D03*
X-0094044D03*
X-0093044D03*
X-0092044D03*
X-0092122Y0047870D03*
X-0093105Y0047909D03*
X-0094128D03*
X-0095111Y0047870D03*
X-0096173D03*
X-0097156Y0047909D03*
X-0098140D03*
X-0099044Y0047870D03*
X-0111787Y0043936D03*
X-0110787D03*
X-0109787D03*
X-0108787D03*
X-0107787D03*
X-0106787D03*
X-0105787D03*
X-0104787D03*
X-0104865Y0047870D03*
X-0105848Y0047909D03*
X-0106871D03*
X-0107854Y0047870D03*
X-0108916D03*
X-0109899Y0047909D03*
X-0110883D03*
X-0111787Y0047870D03*
X-0124845Y0043936D03*
X-0123845D03*
X-0122845D03*
X-0121845D03*
X-0120845D03*
X-0119845D03*
X-0118845D03*
X-0117845D03*
X-0117922Y0047869D03*
X-0118905Y0047909D03*
X-0119928D03*
X-0120911Y0047869D03*
X-0121973D03*
X-0122957Y0047909D03*
X-0123940D03*
X-0124845Y0047869D03*
X-0137155Y0044330D03*
X-0136155D03*
X-0135155D03*
X-0134155D03*
X-0133155D03*
X-0132155D03*
X-0131155D03*
X-0130155D03*
X-0130232Y0048263D03*
X-0131215Y0048302D03*
X-0132238D03*
X-0133221Y0048263D03*
X-0134283D03*
X-0135267Y0048302D03*
X-0136250D03*
X-0137155Y0048263D03*
X-0133128Y0020354D03*
Y0019354D03*
Y0018354D03*
Y0017354D03*
Y0016354D03*
Y0015354D03*
Y0014354D03*
X-0130060Y0014376D03*
Y0015376D03*
X-0130021Y0016359D03*
Y0017382D03*
X-0130060Y0018365D03*
Y0019427D03*
X-0130021Y0020410D03*
G54D12*
X-0141776Y0031891D03*
X-0140754D03*
X-0142171Y0054333D03*
X-0143194D03*
X-0143352Y0061892D03*
X-0144375D03*
X-0143707Y0068506D03*
X-0144729D03*
X-0047876Y0063501D03*
X-0046876D03*
X-0045876D03*
X-0044876D03*
X-0043876D03*
X-0043904Y0069463D03*
X-0044887Y0069502D03*
X-0045870Y0069463D03*
X-0046893D03*
X-0047876Y0069502D03*
X-0059833Y0063186D03*
X-0058833D03*
X-0057833D03*
X-0056833D03*
X-0055833D03*
X-0055860Y0069148D03*
X-0056843Y0069187D03*
X-0057827Y0069148D03*
X-0058849D03*
X-0059833Y0069187D03*
X-0072537Y0063029D03*
X-0071537D03*
X-0070537D03*
X-0069537D03*
X-0068537D03*
X-0068564Y0068991D03*
X-0069547Y0069030D03*
X-0070531Y0068991D03*
X-0071553D03*
X-0072537Y0069030D03*
X-0097432Y0062871D03*
X-0096432D03*
X-0095432D03*
X-0094432D03*
X-0093432D03*
X-0093459Y0068833D03*
X-0094443Y0068873D03*
X-0095426Y0068833D03*
X-0096449D03*
X-0097432Y0068873D03*
X-0110136Y0062911D03*
X-0109136D03*
X-0108136D03*
X-0107136D03*
X-0106136D03*
X-0106163Y0068873D03*
X-0107146Y0068912D03*
X-0108130Y0068873D03*
X-0109152D03*
X-0110136Y0068912D03*
X-0123586Y0062792D03*
X-0122586D03*
X-0121586D03*
X-0120586D03*
X-0119586D03*
X-0119614Y0068754D03*
X-0120597Y0068794D03*
X-0121580Y0068754D03*
X-0122603D03*
X-0123586Y0068794D03*
X-0136251Y0063147D03*
X-0135251D03*
X-0134251D03*
X-0133251D03*
X-0132251D03*
X-0132279Y0069109D03*
X-0133262Y0069148D03*
X-0134245Y0069109D03*
X-0135268D03*
X-0136251Y0069148D03*
G54D13*
X-0086019Y0022643D03*
X-0084996D03*
X-0068448Y0023034D03*
X-0067425D03*
X-0044818Y0013181D03*
X-0043795D03*
X-0126449Y0014412D03*
X-0125426D03*
X-0126331Y0017011D03*
X-0125308D03*
X-0126449Y0019609D03*
X-0125426D03*
X-0100066Y0023073D03*
X-0099043D03*
X-0103268Y0023074D03*
X-0102245D03*
X-0106415Y0023114D03*
X-0105392D03*
X-0142605Y0037954D03*
X-0143628D03*
X-0143705Y0040475D03*
X-0142682D03*
X-0143746Y0043269D03*
X-0142723D03*
G54D14*
X-0145753Y0074648D03*
X-0143905Y0073468D03*
Y0075828D03*
M02*
