*
G04 Mass Parameters ***
*
G04 Image ***
*
%INC:\USERS\DATOR\ONEDRIVE\DESKTOP\2024_DIZERTATIE_BALTAG_A_FRECVENTMETRU\DISERTATIE_6_IUNIE\SCHEMA_DISERTATIE_CAPTURE_LAYOUT\SWEEP5.SMT*%
%ICAS*%
%MOIN*%
%IPPOS*%
%ASAXBY*%
G74*%FSLAN2X34Y34*%
*
G04 Aperture Definitions ***
*
%ADD10C,0.0709*%
%ADD11C,0.0472*%
%ADD12C,0.0354*%
%ADD13C,0.0394*%
%ADD14C,0.0984*%
%ADD15C,0.0472*%
%ADD16C,0.0630*%
%ADD17C,0.0276*%
%ADD18C,0.0236*%
%ADD19C,0.0500*%
*
G04 Plot Data ***
*
G54D10*
X-0141790Y0020393D03*
X-0140295D03*
G54D11*
X-0084120Y0013821D03*
Y0014821D03*
Y0015821D03*
Y0016821D03*
Y0017821D03*
Y0018821D03*
Y0019821D03*
X-0087188Y0019800D03*
Y0018800D03*
X-0087228Y0017817D03*
Y0016794D03*
X-0087188Y0015811D03*
Y0014749D03*
X-0087228Y0013765D03*
X-0067038Y0013781D03*
Y0014781D03*
Y0015781D03*
Y0016781D03*
Y0017781D03*
Y0018781D03*
Y0019781D03*
X-0066999Y0020821D03*
X-0071011Y0020781D03*
X-0071038Y0019781D03*
X-0071011Y0018775D03*
X-0071038Y0017781D03*
Y0016781D03*
Y0015781D03*
Y0014781D03*
Y0013781D03*
X-0041691Y0015150D03*
Y0016150D03*
Y0017150D03*
Y0018150D03*
Y0019150D03*
Y0020150D03*
Y0021150D03*
X-0041652Y0022189D03*
X-0045664Y0022150D03*
X-0045691Y0021150D03*
X-0045664Y0020144D03*
X-0045691Y0019150D03*
Y0018150D03*
Y0017150D03*
Y0016150D03*
Y0015150D03*
X-0107698Y0019827D03*
Y0018827D03*
Y0017827D03*
Y0016827D03*
Y0015827D03*
Y0014827D03*
Y0013827D03*
X-0104630Y0013849D03*
Y0014849D03*
X-0104591Y0015832D03*
Y0016855D03*
X-0104630Y0017838D03*
Y0018900D03*
X-0104591Y0019883D03*
X-0057303Y0034962D03*
Y0033962D03*
Y0032962D03*
Y0031962D03*
Y0030962D03*
Y0029962D03*
Y0028962D03*
Y0027962D03*
X-0054117Y0027843D03*
Y0028843D03*
Y0029843D03*
Y0030843D03*
Y0031843D03*
Y0032843D03*
Y0033843D03*
Y0034843D03*
X-0081751Y0035198D03*
Y0034198D03*
Y0033198D03*
Y0032198D03*
Y0031198D03*
Y0030198D03*
Y0029198D03*
Y0028198D03*
X-0078565Y0028079D03*
Y0029079D03*
Y0030079D03*
Y0031079D03*
Y0032079D03*
Y0033079D03*
Y0034079D03*
Y0035079D03*
X-0113641Y0035435D03*
Y0034435D03*
Y0033435D03*
Y0032435D03*
Y0031435D03*
Y0030435D03*
Y0029435D03*
Y0028435D03*
X-0110455Y0028315D03*
Y0029315D03*
Y0030315D03*
Y0031315D03*
Y0032315D03*
Y0033315D03*
Y0034315D03*
Y0035315D03*
X-0130413Y0035317D03*
Y0034317D03*
Y0033317D03*
Y0032317D03*
Y0031317D03*
Y0030317D03*
Y0029317D03*
Y0028317D03*
X-0127227Y0028197D03*
Y0029197D03*
Y0030197D03*
Y0031197D03*
Y0032197D03*
Y0033197D03*
Y0034197D03*
Y0035197D03*
X-0048191Y0044529D03*
X-0047191D03*
X-0046191D03*
X-0045191D03*
X-0044191D03*
X-0043191D03*
X-0042191D03*
X-0041191D03*
X-0041268Y0048463D03*
X-0042251Y0048502D03*
X-0043274D03*
X-0044257Y0048463D03*
X-0045319D03*
X-0046303Y0048502D03*
X-0047286D03*
X-0048191Y0048463D03*
X-0060658Y0044054D03*
X-0059658D03*
X-0058658D03*
X-0057658D03*
X-0056658D03*
X-0055658D03*
X-0054658D03*
X-0053658D03*
X-0053736Y0047988D03*
X-0054719Y0048027D03*
X-0055742D03*
X-0056725Y0047988D03*
X-0057787D03*
X-0058770Y0048027D03*
X-0059754D03*
X-0060658Y0047988D03*
X-0074542Y0043937D03*
X-0073542D03*
X-0072542D03*
X-0071542D03*
X-0070542D03*
X-0069542D03*
X-0068542D03*
X-0067542D03*
X-0067620Y0047870D03*
X-0068603Y0047909D03*
X-0069626D03*
X-0070609Y0047870D03*
X-0071671D03*
X-0072654Y0047909D03*
X-0073638D03*
X-0074542Y0047870D03*
X-0086853Y0043936D03*
X-0085853D03*
X-0084853D03*
X-0083853D03*
X-0082853D03*
X-0081853D03*
X-0080853D03*
X-0079853D03*
X-0079930Y0047870D03*
X-0080913Y0047909D03*
X-0081936D03*
X-0082919Y0047870D03*
X-0083981D03*
X-0084965Y0047909D03*
X-0085948D03*
X-0086853Y0047870D03*
X-0099044Y0043936D03*
X-0098044D03*
X-0097044D03*
X-0096044D03*
X-0095044D03*
X-0094044D03*
X-0093044D03*
X-0092044D03*
X-0092122Y0047870D03*
X-0093105Y0047909D03*
X-0094128D03*
X-0095111Y0047870D03*
X-0096173D03*
X-0097156Y0047909D03*
X-0098140D03*
X-0099044Y0047870D03*
X-0111787Y0043936D03*
X-0110787D03*
X-0109787D03*
X-0108787D03*
X-0107787D03*
X-0106787D03*
X-0105787D03*
X-0104787D03*
X-0104865Y0047870D03*
X-0105848Y0047909D03*
X-0106871D03*
X-0107854Y0047870D03*
X-0108916D03*
X-0109899Y0047909D03*
X-0110883D03*
X-0111787Y0047870D03*
X-0124845Y0043936D03*
X-0123845D03*
X-0122845D03*
X-0121845D03*
X-0120845D03*
X-0119845D03*
X-0118845D03*
X-0117845D03*
X-0117922Y0047869D03*
X-0118905Y0047909D03*
X-0119928D03*
X-0120911Y0047869D03*
X-0121973D03*
X-0122957Y0047909D03*
X-0123940D03*
X-0124845Y0047869D03*
X-0137155Y0044330D03*
X-0136155D03*
X-0135155D03*
X-0134155D03*
X-0133155D03*
X-0132155D03*
X-0131155D03*
X-0130155D03*
X-0130232Y0048263D03*
X-0131215Y0048302D03*
X-0132238D03*
X-0133221Y0048263D03*
X-0134283D03*
X-0135267Y0048302D03*
X-0136250D03*
X-0137155Y0048263D03*
X-0133128Y0020354D03*
Y0019354D03*
Y0018354D03*
Y0017354D03*
Y0016354D03*
Y0015354D03*
Y0014354D03*
X-0130060Y0014376D03*
Y0015376D03*
X-0130021Y0016359D03*
Y0017382D03*
X-0130060Y0018365D03*
Y0019427D03*
X-0130021Y0020410D03*
G54D12*
X-0141776Y0031891D03*
X-0140754D03*
X-0142171Y0054333D03*
X-0143194D03*
X-0143352Y0061892D03*
X-0144375D03*
X-0143707Y0068506D03*
X-0144729D03*
X-0047876Y0063501D03*
X-0046876D03*
X-0045876D03*
X-0044876D03*
X-0043876D03*
X-0043904Y0069463D03*
X-0044887Y0069502D03*
X-0045870Y0069463D03*
X-0046893D03*
X-0047876Y0069502D03*
X-0059833Y0063186D03*
X-0058833D03*
X-0057833D03*
X-0056833D03*
X-0055833D03*
X-0055860Y0069148D03*
X-0056843Y0069187D03*
X-0057827Y0069148D03*
X-0058849D03*
X-0059833Y0069187D03*
X-0072537Y0063029D03*
X-0071537D03*
X-0070537D03*
X-0069537D03*
X-0068537D03*
X-0068564Y0068991D03*
X-0069547Y0069030D03*
X-0070531Y0068991D03*
X-0071553D03*
X-0072537Y0069030D03*
X-0097432Y0062871D03*
X-0096432D03*
X-0095432D03*
X-0094432D03*
X-0093432D03*
X-0093459Y0068833D03*
X-0094443Y0068873D03*
X-0095426Y0068833D03*
X-0096449D03*
X-0097432Y0068873D03*
X-0110136Y0062911D03*
X-0109136D03*
X-0108136D03*
X-0107136D03*
X-0106136D03*
X-0106163Y0068873D03*
X-0107146Y0068912D03*
X-0108130Y0068873D03*
X-0109152D03*
X-0110136Y0068912D03*
X-0123586Y0062792D03*
X-0122586D03*
X-0121586D03*
X-0120586D03*
X-0119586D03*
X-0119614Y0068754D03*
X-0120597Y0068794D03*
X-0121580Y0068754D03*
X-0122603D03*
X-0123586Y0068794D03*
X-0136251Y0063147D03*
X-0135251D03*
X-0134251D03*
X-0133251D03*
X-0132251D03*
X-0132279Y0069109D03*
X-0133262Y0069148D03*
X-0134245Y0069109D03*
X-0135268D03*
X-0136251Y0069148D03*
G54D13*
X-0086019Y0022643D03*
X-0084996D03*
X-0068448Y0023034D03*
X-0067425D03*
X-0044818Y0013181D03*
X-0043795D03*
X-0126449Y0014412D03*
X-0125426D03*
X-0126331Y0017011D03*
X-0125308D03*
X-0126449Y0019609D03*
X-0125426D03*
X-0100066Y0023073D03*
X-0099043D03*
X-0103268Y0023074D03*
X-0102245D03*
X-0106415Y0023114D03*
X-0105392D03*
X-0142605Y0037954D03*
X-0143628D03*
X-0143705Y0040475D03*
X-0142682D03*
X-0143746Y0043269D03*
X-0142723D03*
G54D14*
X-0145753Y0074648D03*
X-0143905Y0073468D03*
Y0075828D03*
M02*
