*
G04 Mass Parameters ***
*
G04 Image ***
*
%INC:\USERS\STUDENT\DESKTOP\DISERTATIE_6_IUNIE\CABLAJE_DIVERSE\SCHEMA_BAZA_T-2.DRD*%
%ICAS*%
%MOIN*%
%IPPOS*%
%ASAXBY*%
G74*%FSLAN2X34Y34*%
*
G04 Aperture Definitions ***
*
%ADD10C,0.0472*%
%ADD11C,0.0787*%
%ADD12C,0.0630*%
%ADD13C,0.0472*%
%ADD14C,0.0500*%
%ADD15C,0.0039*%
%ADD16C,0.0100*%
*
G04 Plot Data ***
*
G54D14*
G01X-0027376Y0019509D02*
Y0003265D01*
X-0004091D01*
Y0019509D01*
X-0027376D01*
G54D16*
G01X0024625Y-0007833D02*
X0024708Y-0007667D01*
Y-0007500D01*
X0024625Y-0007333D01*
X0024125D01*
X0024042Y-0007500D01*
Y-0007667D01*
X0024125Y-0007833D01*
X0024625D01*
X0024708Y-0008000D01*
Y-0008167D01*
X0024625Y-0008333D01*
X0024125D01*
X0024042Y-0008167D01*
Y-0008000D01*
X0024125Y-0007833D01*
X0023758Y-0008000D02*
X0023092D01*
X0023425Y-0007333D01*
X0023592D01*
Y-0008333D01*
X0012312D02*
X0011729D01*
Y-0007333D01*
X0011446Y-0008000D02*
X0010779D01*
X0011446Y-0008333D02*
Y-0007833D01*
X0011196Y-0007333D01*
X0011029D01*
X0010779Y-0007833D01*
Y-0008333D01*
X0010162D02*
Y-0007333D01*
X0010496D02*
X0009829D01*
X0008962Y-0008333D02*
X0008879Y-0008167D01*
Y-0007500D01*
X0008962Y-0007333D01*
X0009462D01*
X0009546Y-0007500D01*
Y-0008167D01*
X0009462Y-0008333D01*
X0008962D01*
X0008262D02*
Y-0007333D01*
X0008596D02*
X0007929D01*
X0024431Y-0006472D02*
X0024319Y-0006361D01*
X0024264Y-0006250D01*
Y-0006028D01*
X0024319Y-0005917D01*
X0024431Y-0005806D01*
X0024542D01*
X0024653Y-0005917D01*
X0024708Y-0006028D01*
Y-0006250D01*
X0024653Y-0006361D01*
X0024542Y-0006472D01*
X0024431D01*
X0024008D02*
X0023786D01*
X0023897D02*
Y-0005806D01*
X0023786Y-0005917D01*
X0010869Y-0006472D02*
Y-0006139D01*
X0011092Y-0006472D02*
Y-0006139D01*
X0011036Y-0006028D01*
X0010925D01*
X0010869Y-0006139D01*
X0010814Y-0006028D01*
X0010703D01*
X0010647Y-0006139D01*
Y-0006472D01*
X0010169D02*
Y-0006139D01*
X0010392Y-0006472D02*
Y-0006139D01*
X0010336Y-0006028D01*
X0010225D01*
X0010169Y-0006139D01*
X0010114Y-0006028D01*
X0010003D01*
X0009947Y-0006139D01*
Y-0006472D01*
X0008464D02*
X0008353Y-0006361D01*
X0008297Y-0006250D01*
Y-0006028D01*
X0008353Y-0005917D01*
X0008464Y-0005806D01*
X0008575D01*
X0008686Y-0005917D01*
X0008742Y-0006028D01*
Y-0006250D01*
X0008686Y-0006361D01*
X0008575Y-0006472D01*
X0008464D01*
X0007764D02*
X0007653Y-0006361D01*
X0007597Y-0006250D01*
Y-0006028D01*
X0007653Y-0005917D01*
X0007764Y-0005806D01*
X0007875D01*
X0007986Y-0005917D01*
X0008042Y-0006028D01*
Y-0006250D01*
X0007986Y-0006361D01*
X0007875Y-0006472D01*
X0007764D01*
X0007064D02*
X0006953Y-0006361D01*
X0006897Y-0006250D01*
Y-0006028D01*
X0006953Y-0005917D01*
X0007064Y-0005806D01*
X0007175D01*
X0007286Y-0005917D01*
X0007342Y-0006028D01*
Y-0006250D01*
X0007286Y-0006361D01*
X0007175Y-0006472D01*
X0007064D01*
X0006531D02*
X0006642D01*
Y-0006361D01*
X0006531D01*
Y-0006472D01*
X0006164D02*
X0005942D01*
X0006053D02*
Y-0005806D01*
X0005942Y-0005917D01*
X0024653Y-0004639D02*
X0024708Y-0004528D01*
Y-0004417D01*
X0024653Y-0004306D01*
X0024319D01*
X0024264Y-0004417D01*
Y-0004528D01*
X0024319Y-0004639D01*
X0024653D01*
X0024708Y-0004750D01*
Y-0004861D01*
X0024653Y-0004972D01*
X0024319D01*
X0024264Y-0004861D01*
Y-0004750D01*
X0024319Y-0004639D01*
X0023564Y-0004861D02*
X0023675Y-0004972D01*
X0023897D01*
X0024008Y-0004861D01*
Y-0004750D01*
X0023786Y-0004528D01*
X0024008Y-0004306D01*
X0023564D01*
X0010869Y-0004972D02*
Y-0004639D01*
X0011092Y-0004972D02*
Y-0004639D01*
X0011036Y-0004528D01*
X0010925D01*
X0010869Y-0004639D01*
X0010814Y-0004528D01*
X0010703D01*
X0010647Y-0004639D01*
Y-0004972D01*
X0010169D02*
Y-0004639D01*
X0010392Y-0004972D02*
Y-0004639D01*
X0010336Y-0004528D01*
X0010225D01*
X0010169Y-0004639D01*
X0010114Y-0004528D01*
X0010003D01*
X0009947Y-0004639D01*
Y-0004972D01*
X0008464D02*
X0008353Y-0004861D01*
X0008297Y-0004750D01*
Y-0004528D01*
X0008353Y-0004417D01*
X0008464Y-0004306D01*
X0008575D01*
X0008686Y-0004417D01*
X0008742Y-0004528D01*
Y-0004750D01*
X0008686Y-0004861D01*
X0008575Y-0004972D01*
X0008464D01*
X0007764D02*
X0007653Y-0004861D01*
X0007597Y-0004750D01*
Y-0004528D01*
X0007653Y-0004417D01*
X0007764Y-0004306D01*
X0007875D01*
X0007986Y-0004417D01*
X0008042Y-0004528D01*
Y-0004750D01*
X0007986Y-0004861D01*
X0007875Y-0004972D01*
X0007764D01*
X0007286Y-0004639D02*
X0007342Y-0004528D01*
Y-0004417D01*
X0007286Y-0004306D01*
X0006953D01*
X0006897Y-0004417D01*
Y-0004528D01*
X0006953Y-0004639D01*
X0007286D01*
X0007342Y-0004750D01*
Y-0004861D01*
X0007286Y-0004972D01*
X0006953D01*
X0006897Y-0004861D01*
Y-0004750D01*
X0006953Y-0004639D01*
X0006531Y-0004972D02*
X0006642D01*
Y-0004861D01*
X0006531D01*
Y-0004972D01*
X0005886D02*
X0005775Y-0004861D01*
X0005719Y-0004750D01*
Y-0004528D01*
X0005775Y-0004417D01*
X0005886Y-0004306D01*
X0005997D01*
X0006108Y-0004417D01*
X0006164Y-0004528D01*
Y-0004750D01*
X0006108Y-0004861D01*
X0005997Y-0004972D01*
X0005886D01*
X0033112Y-0002833D02*
X0032612D01*
X0033279Y-0003333D02*
X0032612D01*
Y-0002333D01*
X0033279D01*
X0031996Y-0003333D02*
Y-0002333D01*
X0032329D02*
X0031662D01*
X0030796Y-0003333D02*
X0030712Y-0003167D01*
Y-0002500D01*
X0030796Y-0002333D01*
X0031296D01*
X0031379Y-0002500D01*
Y-0003167D01*
X0031296Y-0003333D01*
X0030796D01*
X0030429Y-0002333D02*
Y-0003333D01*
X0030262Y-0003167D01*
X0029929Y-0002500D01*
X0029762Y-0002333D01*
Y-0003333D01*
X0023925D02*
Y-0002833D01*
X0024258Y-0002333D02*
X0024008Y-0002833D01*
X0023842D01*
X0023592Y-0002333D01*
X0022975Y-0003333D02*
Y-0002333D01*
X0023308D02*
X0022642D01*
X0022025Y-0003000D02*
X0022358Y-0003333D01*
X0021692Y-0003167D02*
X0021775Y-0003333D01*
X0022108D01*
X0022192Y-0003167D01*
X0022358Y-0003000D01*
Y-0002500D01*
X0022275Y-0002333D01*
X0021775D01*
X0021692Y-0002500D01*
Y-0003167D01*
X0017408Y-0003333D02*
X0016825D01*
Y-0002333D01*
X0015958Y-0003333D02*
X0015875Y-0003167D01*
Y-0002500D01*
X0015958Y-0002333D01*
X0016458D01*
X0016542Y-0002500D01*
Y-0003167D01*
X0016458Y-0003333D01*
X0015958D01*
X0015258D02*
Y-0002333D01*
X0015592D02*
X0014925D01*
X0009587Y-0003333D02*
Y-0002333D01*
X0009421Y-0002500D01*
X0009254Y-0002833D01*
X0009087Y-0002500D01*
X0008921Y-0002333D01*
Y-0003333D01*
X0008637Y-0003000D02*
X0007971D01*
X0008637Y-0003333D02*
Y-0002833D01*
X0008387Y-0002333D01*
X0008221D01*
X0007971Y-0002833D01*
Y-0003333D01*
X0007687D02*
X0007354D01*
X0007521D02*
Y-0002333D01*
X0007687D02*
X0007354D01*
X0006321Y-0003333D02*
Y-0002333D01*
X0006237Y-0003333D02*
X0006737D01*
X0006904Y-0003000D01*
Y-0002667D01*
X0006737Y-0002333D01*
X0006237D01*
X0003150Y-0003333D02*
Y-0002333D01*
X0002983Y-0002500D01*
X0002817Y-0002833D01*
X0002650Y-0002500D01*
X0002483Y-0002333D01*
Y-0003333D01*
X0001867D02*
Y-0002833D01*
X0002200Y-0002333D02*
X0001950Y-0002833D01*
X0001783D01*
X0001533Y-0002333D01*
X0001250Y-0002500D02*
X0001167Y-0002333D01*
X0000667D01*
X0000583Y-0002500D01*
Y-0002667D01*
X0000667Y-0002833D01*
X0001167D01*
X0001250Y-0003000D01*
Y-0003167D01*
X0001167Y-0003333D01*
X0000667D01*
X0000583Y-0003167D01*
X0023437Y-0001333D02*
Y-0000333D01*
X0023771D02*
X0023104D01*
X0022571Y-0000833D02*
X0022821Y-0001333D01*
X0022154Y-0000833D02*
X0022654D01*
X0022821Y-0000667D01*
Y-0000500D01*
X0022654Y-0000333D01*
X0022154D01*
Y-0001333D01*
X0021871Y-0001000D02*
X0021204D01*
X0021871Y-0001333D02*
Y-0000833D01*
X0021621Y-0000333D01*
X0021454D01*
X0021204Y-0000833D01*
Y-0001333D01*
X0020921Y-0000833D02*
X0020254D01*
X0020921Y-0001333D02*
Y-0000333D01*
X0020254Y-0001333D02*
Y-0000333D01*
X0019971Y-0001167D02*
X0019887Y-0001333D01*
X0019387D01*
X0019304Y-0001167D01*
Y-0000500D01*
X0019387Y-0000333D01*
X0019887D01*
X0019971Y-0000500D01*
X0017696Y-0001333D02*
X0017112D01*
Y-0000333D01*
X0016829Y-0001333D02*
X0016246D01*
Y-0000333D01*
X0015962Y-0001333D02*
X0015629D01*
X0015796D02*
Y-0000333D01*
X0015962D02*
X0015629D01*
X0014929Y-0000833D02*
X0015179Y-0001333D01*
X0014512Y-0000833D02*
X0015012D01*
X0015179Y-0000667D01*
Y-0000500D01*
X0015012Y-0000333D01*
X0014512D01*
Y-0001333D01*
X0013646D02*
Y-0000333D01*
X0013562Y-0001333D02*
X0014062D01*
X0014229Y-0001000D01*
Y-0000667D01*
X0014062Y-0000333D01*
X0013562D01*
X0001575Y-0006000D02*
Y-0006500D01*
X0002075Y-0006000D02*
X0001575D01*
X0002075Y-0006500D02*
Y-0006000D01*
X0001575Y-0006500D02*
X0002075D01*
Y-0006000D02*
X0001575Y-0006500D01*
X0002075D02*
X0001575Y-0006000D01*
X0002075Y-0004750D02*
X0001575D01*
X0001825Y-0004500D02*
Y-0005000D01*
X0037300Y-0009050D02*
X-0000050D01*
X0037250Y-0009000D02*
X0000000D01*
X0037250Y-0007000D02*
X0000000D01*
X0037250Y-0005500D02*
X0000000D01*
X0037250Y-0004000D02*
X0000000D01*
X0037250Y-0003950D02*
X0000000D01*
X0037250Y-0002000D02*
X0000000D01*
X0037250Y-0001950D02*
X0000000D01*
X0037250Y0000000D02*
X0000000D01*
X0037300Y0000050D02*
X-0000050D01*
X0037300Y-0009000D02*
Y0000000D01*
X0037250Y-0009000D02*
Y0000000D01*
X0025708Y-0009000D02*
Y-0002000D01*
X0020158Y-0009000D02*
Y-0002000D01*
X0012092Y-0007000D02*
Y-0002000D01*
X0003700Y-0007000D02*
Y-0002000D01*
X0003650Y-0007000D02*
Y-0002000D01*
X-0000050Y-0009000D02*
Y0000000D01*
X0000000Y-0009000D02*
Y0000000D01*
X-0008282Y0017575D02*
Y0017075D01*
X-0007782Y0017575D02*
X-0008282D01*
X-0007782Y0017075D02*
Y0017575D01*
X-0008282Y0017075D02*
X-0007782D01*
Y0017575D02*
X-0008282Y0017075D01*
X-0007782D02*
X-0008282Y0017575D01*
X-0008235Y0005127D02*
Y0004627D01*
X-0007735Y0005127D02*
X-0008235D01*
X-0007735Y0004627D02*
Y0005127D01*
X-0008235Y0004627D02*
X-0007735D01*
Y0005127D02*
X-0008235Y0004627D01*
X-0007735D02*
X-0008235Y0005127D01*
X-0016742Y0005782D02*
X-0017242D01*
X-0016992Y0006032D02*
Y0005532D01*
X-0016742Y0006782D02*
X-0017242D01*
X-0016992Y0007032D02*
Y0006532D01*
X-0016742Y0007782D02*
X-0017242D01*
X-0016992Y0008032D02*
Y0007532D01*
X-0016742Y0008782D02*
X-0017242D01*
X-0016992Y0009032D02*
Y0008532D01*
X-0016742Y0009782D02*
X-0017242D01*
X-0016992Y0010032D02*
Y0009532D01*
X-0016742Y0010782D02*
X-0017242D01*
X-0016992Y0011032D02*
Y0010532D01*
X-0016742Y0011782D02*
X-0017242D01*
X-0016992Y0012032D02*
Y0011532D01*
X-0016742Y0012782D02*
X-0017242D01*
X-0016992Y0013032D02*
Y0012532D01*
X-0020479Y0012783D02*
X-0020979D01*
X-0020729Y0013033D02*
Y0012533D01*
X-0020479Y0011783D02*
X-0020979D01*
X-0020729Y0012033D02*
Y0011533D01*
X-0020479Y0010783D02*
X-0020979D01*
X-0020729Y0011033D02*
Y0010533D01*
X-0020479Y0009783D02*
X-0020979D01*
X-0020729Y0010033D02*
Y0009533D01*
X-0020479Y0008783D02*
X-0020979D01*
X-0020729Y0009033D02*
Y0008533D01*
X-0020479Y0007783D02*
X-0020979D01*
X-0020729Y0008033D02*
Y0007533D01*
X-0020479Y0006783D02*
X-0020979D01*
X-0020729Y0007033D02*
Y0006533D01*
X-0020479Y0005783D02*
X-0020979D01*
X-0020729Y0006033D02*
Y0005533D01*
X-0010881Y0007119D02*
X-0011381D01*
X-0011131Y0007369D02*
Y0006869D01*
X-0010881Y0008119D02*
X-0011381D01*
X-0011131Y0008369D02*
Y0007869D01*
X-0010881Y0009119D02*
X-0011381D01*
X-0011131Y0009369D02*
Y0008869D01*
X-0010881Y0010119D02*
X-0011381D01*
X-0011131Y0010369D02*
Y0009869D01*
X-0010881Y0011119D02*
X-0011381D01*
X-0011131Y0011369D02*
Y0010869D01*
X-0010881Y0012119D02*
X-0011381D01*
X-0011131Y0012369D02*
Y0011869D01*
X-0010881Y0013119D02*
X-0011381D01*
X-0011131Y0013369D02*
Y0012869D01*
X-0010881Y0014119D02*
X-0011381D01*
X-0011131Y0014369D02*
Y0013869D01*
X-0014618Y0014121D02*
X-0015118D01*
X-0014868Y0014371D02*
Y0013871D01*
X-0014618Y0013121D02*
X-0015118D01*
X-0014868Y0013371D02*
Y0012871D01*
X-0014618Y0012121D02*
X-0015118D01*
X-0014868Y0012371D02*
Y0011871D01*
X-0014618Y0011121D02*
X-0015118D01*
X-0014868Y0011371D02*
Y0010871D01*
X-0014618Y0010121D02*
X-0015118D01*
X-0014868Y0010371D02*
Y0009871D01*
X-0014618Y0009121D02*
X-0015118D01*
X-0014868Y0009371D02*
Y0008871D01*
X-0014618Y0008121D02*
X-0015118D01*
X-0014868Y0008371D02*
Y0007871D01*
X-0014618Y0007121D02*
X-0015118D01*
X-0014868Y0007371D02*
Y0006871D01*
X-0008313Y0015551D02*
Y0015051D01*
X-0007813Y0015551D02*
X-0008313D01*
X-0007813Y0015051D02*
Y0015551D01*
X-0008313Y0015051D02*
X-0007813D01*
Y0015551D02*
X-0008313Y0015051D01*
X-0007813D02*
X-0008313Y0015551D01*
X-0008274Y0011027D02*
Y0010527D01*
X-0007774Y0011027D02*
X-0008274D01*
X-0007774Y0010527D02*
Y0011027D01*
X-0008274Y0010527D02*
X-0007774D01*
Y0011027D02*
X-0008274Y0010527D01*
X-0007774D02*
X-0008274Y0011027D01*
X-0023797Y0010408D02*
Y0009908D01*
X-0023297Y0010408D02*
X-0023797D01*
X-0023297Y0009908D02*
Y0010408D01*
X-0023797Y0009908D02*
X-0023297D01*
Y0010408D02*
X-0023797Y0009908D01*
X-0023297D02*
X-0023797Y0010408D01*
X-0023757Y0005884D02*
Y0005384D01*
X-0023257Y0005884D02*
X-0023757D01*
X-0023257Y0005384D02*
Y0005884D01*
X-0023757Y0005384D02*
X-0023257D01*
Y0005884D02*
X-0023757Y0005384D01*
X-0023257D02*
X-0023757Y0005884D01*
X-0011354Y0017575D02*
Y0017075D01*
X-0010854Y0017575D02*
X-0011354D01*
X-0010854Y0017075D02*
Y0017575D01*
X-0011354Y0017075D02*
X-0010854D01*
Y0017575D02*
X-0011354Y0017075D01*
X-0010854D02*
X-0011354Y0017575D01*
X-0010409Y0005132D02*
Y0004632D01*
X-0009909Y0005132D02*
X-0010409D01*
X-0009909Y0004632D02*
Y0005132D01*
X-0010409Y0004632D02*
X-0009909D01*
Y0005132D02*
X-0010409Y0004632D01*
X-0009909D02*
X-0010409Y0005132D01*
X-0019575Y0015769D02*
X-0020075D01*
X-0019825Y0016019D02*
Y0015519D01*
X-0020598Y0015809D02*
X-0021098D01*
X-0020848Y0016059D02*
Y0015559D01*
X-0008235Y0007566D02*
Y0007066D01*
X-0007735Y0007566D02*
X-0008235D01*
X-0007735Y0007066D02*
Y0007566D01*
X-0008235Y0007066D02*
X-0007735D01*
Y0007566D02*
X-0008235Y0007066D01*
X-0007735D02*
X-0008235Y0007566D01*
Y0009690D02*
Y0009190D01*
X-0007735Y0009690D02*
X-0008235D01*
X-0007735Y0009190D02*
Y0009690D01*
X-0008235Y0009190D02*
X-0007735D01*
Y0009690D02*
X-0008235Y0009190D01*
X-0007735D02*
X-0008235Y0009690D01*
X-0023257Y0017718D02*
X-0023757D01*
X-0023507Y0017968D02*
Y0017468D01*
X-0023257Y0015752D02*
X-0023757D01*
X-0023507Y0016002D02*
Y0015502D01*
X-0016721Y0017718D02*
X-0017221D01*
X-0016971Y0017968D02*
Y0017468D01*
X-0016721Y0015752D02*
X-0017221D01*
X-0016971Y0016002D02*
Y0015502D01*
M02*
