*
G04 Mass Parameters ***
*
G04 Image ***
*
%INC:\USERS\STUDENT\DESKTOP\DISERTATIE_6_IUNIE\CABLAJE_DIVERSE\SCHEMA_BAZA_T-2.SST*%
%ICAS*%
%MOIN*%
%IPPOS*%
%ASAXBY*%
G74*%FSLAN2X34Y34*%
*
G04 Aperture Definitions ***
*
%ADD10C,0.0472*%
%ADD11C,0.0787*%
%ADD12C,0.0630*%
%ADD13C,0.0472*%
%ADD14C,0.0500*%
%ADD15C,0.0039*%
*
G04 Plot Data ***
*
G54D15*
G01X-0007224Y0005686D02*
X-0007399D01*
X-0007311D02*
Y0006211D01*
X-0007399Y0006123D01*
X-0007609Y0006211D02*
Y0005686D01*
X-0007871D01*
X-0007915Y0005773D01*
Y0005948D01*
X-0007871Y0006036D01*
X-0007609D01*
X-0008300D02*
X-0008125D01*
X-0008081Y0005948D01*
Y0005773D01*
X-0008037Y0005686D01*
X-0008344D01*
X-0008387Y0005773D01*
X-0008344Y0005861D01*
X-0008081D01*
X-0008860Y0005948D02*
X-0008597D01*
X-0008510Y0006036D01*
Y0006123D01*
X-0008597Y0006211D01*
X-0008860D01*
Y0005686D01*
X-0008654Y0007395D02*
Y0007185D01*
X-0008549Y0007395D02*
X-0008706D01*
X-0008864Y0007316D01*
Y0007264D01*
X-0008706Y0007185D01*
X-0008549D01*
X-0008557Y0008601D02*
X-0008872D01*
X-0008557Y0008575D02*
Y0008733D01*
X-0008662Y0008785D01*
X-0008767D01*
X-0008872Y0008733D01*
Y0008575D01*
X-0008714Y0008418D02*
Y0008260D01*
X-0008557Y0008470D02*
Y0008260D01*
X-0008872D01*
Y0008470D01*
X-0008557Y0008155D02*
Y0007972D01*
X-0008872D01*
X-0016312Y0016468D02*
Y0016643D01*
Y0016555D02*
X-0015787D01*
X-0015874Y0016643D01*
X-0016224Y0016853D02*
X-0016312Y0016897D01*
Y0017159D01*
X-0016224Y0017203D01*
X-0015874D01*
X-0015787Y0017159D01*
Y0016897D01*
X-0015874Y0016853D01*
X-0017521Y0005870D02*
Y0005730D01*
Y0005800D02*
X-0017941D01*
X-0017871Y0005730D01*
X-0018748Y0010329D02*
X-0018818Y0010259D01*
X-0018888Y0010224D01*
X-0019028D01*
X-0019098Y0010259D01*
X-0019168Y0010329D01*
Y0010399D01*
X-0019098Y0010469D01*
X-0019028Y0010504D01*
X-0018888D01*
X-0018818Y0010469D01*
X-0018748Y0010399D01*
Y0010329D01*
X-0018958Y0009865D02*
Y0010075D01*
X-0018888Y0010110D01*
X-0018818D01*
X-0018748Y0010075D01*
Y0009865D01*
X-0018818Y0009830D01*
X-0018888D01*
X-0019168Y0009970D01*
X-0018748Y0009542D02*
X-0018818Y0009472D01*
X-0018888Y0009437D01*
X-0019028D01*
X-0019098Y0009472D01*
X-0019168Y0009542D01*
Y0009612D01*
X-0019098Y0009682D01*
X-0019028Y0009717D01*
X-0018888D01*
X-0018818Y0009682D01*
X-0018748Y0009612D01*
Y0009542D01*
X-0018888Y0009323D02*
Y0009043D01*
X-0019168Y0009183D01*
Y0009253D01*
X-0018748D01*
Y0008684D02*
X-0019168D01*
X-0018748Y0008649D02*
Y0008859D01*
X-0018888Y0008929D01*
X-0019028D01*
X-0019168Y0008859D01*
Y0008649D01*
X-0018818Y0008536D02*
X-0018748Y0008501D01*
Y0008291D01*
X-0018818Y0008256D01*
X-0019098D01*
X-0019168Y0008291D01*
Y0008501D01*
X-0019098Y0008536D01*
X-0022809Y0007095D02*
Y0007270D01*
Y0007183D02*
X-0022284D01*
X-0022371Y0007270D01*
X-0022546Y0007611D02*
X-0022809Y0007480D01*
X-0022546Y0007830D02*
Y0007568D01*
X-0022459Y0007480D01*
X-0022371D01*
X-0022284Y0007568D01*
Y0007830D01*
X-0022809D01*
X-0023708Y0007242D02*
X-0023647Y0007303D01*
X-0023586Y0007334D01*
X-0023463D01*
X-0023402Y0007303D01*
X-0023341Y0007242D01*
Y0007181D01*
X-0023402Y0007120D01*
X-0023463Y0007089D01*
X-0023586D01*
X-0023647Y0007120D01*
X-0023708Y0007181D01*
Y0007242D01*
Y0007443D02*
Y0007688D01*
X-0023463Y0007443D01*
X-0023402D01*
X-0023341Y0007474D01*
Y0007658D01*
X-0023402Y0007688D01*
X-0023708Y0007798D02*
Y0008043D01*
X-0023463Y0007798D01*
X-0023402D01*
X-0023341Y0007828D01*
Y0008012D01*
X-0023402Y0008043D01*
X-0022598Y0016380D02*
Y0016730D01*
X-0022248Y0016380D01*
X-0022161D01*
X-0022073Y0016424D01*
Y0016687D01*
X-0022161Y0016730D01*
X-0022511Y0016853D02*
X-0022598Y0016897D01*
Y0017159D01*
X-0022511Y0017203D01*
X-0022161D01*
X-0022073Y0017159D01*
Y0016897D01*
X-0022161Y0016853D01*
X-0023791Y0016468D02*
X-0023424D01*
Y0016284D01*
X-0023485Y0016254D01*
X-0023608D01*
X-0023669Y0016284D01*
Y0016468D01*
Y0016730D02*
X-0023608Y0016792D01*
X-0023546Y0016822D01*
X-0023424D01*
X-0023363Y0016792D01*
X-0023302Y0016730D01*
Y0016669D01*
X-0023363Y0016608D01*
X-0023424Y0016577D01*
X-0023546D01*
X-0023608Y0016608D01*
X-0023669Y0016669D01*
Y0016730D01*
Y0016932D02*
Y0017177D01*
X-0023424Y0016932D01*
X-0023363D01*
X-0023302Y0016962D01*
Y0017146D01*
X-0023363Y0017177D01*
X-0011660Y0007207D02*
Y0007067D01*
Y0007137D02*
X-0012080D01*
X-0012010Y0007067D01*
X-0012888Y0011666D02*
X-0012958Y0011596D01*
X-0013028Y0011561D01*
X-0013168D01*
X-0013238Y0011596D01*
X-0013308Y0011666D01*
Y0011736D01*
X-0013238Y0011806D01*
X-0013168Y0011841D01*
X-0013028D01*
X-0012958Y0011806D01*
X-0012888Y0011736D01*
Y0011666D01*
X-0013098Y0011203D02*
Y0011413D01*
X-0013028Y0011448D01*
X-0012958D01*
X-0012888Y0011413D01*
Y0011203D01*
X-0012958Y0011168D01*
X-0013028D01*
X-0013308Y0011308D01*
X-0012888Y0010879D02*
X-0012958Y0010809D01*
X-0013028Y0010774D01*
X-0013168D01*
X-0013238Y0010809D01*
X-0013308Y0010879D01*
Y0010949D01*
X-0013238Y0011019D01*
X-0013168Y0011054D01*
X-0013028D01*
X-0012958Y0011019D01*
X-0012888Y0010949D01*
Y0010879D01*
X-0013028Y0010660D02*
Y0010380D01*
X-0013308Y0010520D01*
Y0010590D01*
X-0012888D01*
Y0010022D02*
X-0013308D01*
X-0012888Y0009987D02*
Y0010197D01*
X-0013028Y0010267D01*
X-0013168D01*
X-0013308Y0010197D01*
Y0009987D01*
X-0012958Y0009873D02*
X-0012888Y0009838D01*
Y0009628D01*
X-0012958Y0009593D01*
X-0013238D01*
X-0013308Y0009628D01*
Y0009838D01*
X-0013238Y0009873D01*
X-0009310Y0005691D02*
X-0009660D01*
X-0009310Y0006041D01*
Y0006129D01*
X-0009354Y0006216D01*
X-0009617D01*
X-0009660Y0006129D01*
X-0009783Y0006216D02*
Y0005691D01*
X-0010045D01*
X-0010089Y0005779D01*
Y0005954D01*
X-0010045Y0006041D01*
X-0009783D01*
X-0010474D02*
X-0010299D01*
X-0010255Y0005954D01*
Y0005779D01*
X-0010211Y0005691D01*
X-0010518D01*
X-0010561Y0005779D01*
X-0010518Y0005866D01*
X-0010255D01*
X-0011034Y0005954D02*
X-0010771D01*
X-0010684Y0006041D01*
Y0006129D01*
X-0010771Y0006216D01*
X-0011034D01*
Y0005691D01*
X-0010343Y0018134D02*
X-0010518D01*
X-0010430D02*
Y0018659D01*
X-0010518Y0018571D01*
X-0010728Y0018659D02*
Y0018134D01*
X-0010990D01*
X-0011034Y0018221D01*
Y0018396D01*
X-0010990Y0018484D01*
X-0010728D01*
X-0011419D02*
X-0011244D01*
X-0011200Y0018396D01*
Y0018221D01*
X-0011156Y0018134D01*
X-0011463D01*
X-0011506Y0018221D01*
X-0011463Y0018309D01*
X-0011200D01*
X-0011979Y0018396D02*
X-0011716D01*
X-0011629Y0018484D01*
Y0018571D01*
X-0011716Y0018659D01*
X-0011979D01*
Y0018134D01*
X-0020849Y0015333D02*
X-0020604D01*
X-0020849Y0015088D01*
Y0015027D01*
X-0020818Y0014966D01*
X-0020634D01*
X-0020604Y0015027D01*
X-0020249Y0015272D02*
X-0020311Y0015333D01*
X-0020433D01*
X-0020494Y0015272D01*
Y0015210D01*
X-0020372Y0015088D01*
X-0020494Y0014966D01*
X-0020249D01*
X-0020018Y0015210D02*
X-0020140Y0015333D01*
X-0019895Y0015272D02*
X-0019926Y0015333D01*
X-0020048D01*
X-0020079Y0015272D01*
X-0020140Y0015210D01*
Y0015027D01*
X-0020110Y0014966D01*
X-0019926D01*
X-0019895Y0015027D01*
Y0015272D01*
X-0017255Y0016468D02*
X-0016888D01*
Y0016284D01*
X-0016949Y0016254D01*
X-0017071D01*
X-0017133Y0016284D01*
Y0016468D01*
Y0016730D02*
X-0017071Y0016792D01*
X-0017010Y0016822D01*
X-0016888D01*
X-0016827Y0016792D01*
X-0016765Y0016730D01*
Y0016669D01*
X-0016827Y0016608D01*
X-0016888Y0016577D01*
X-0017010D01*
X-0017071Y0016608D01*
X-0017133Y0016669D01*
Y0016730D01*
Y0016932D02*
Y0017177D01*
X-0016888Y0016932D01*
X-0016827D01*
X-0016765Y0016962D01*
Y0017146D01*
X-0016827Y0017177D01*
X-0007272Y0018134D02*
X-0007447D01*
X-0007359D02*
Y0018659D01*
X-0007447Y0018571D01*
X-0007657Y0018659D02*
Y0018134D01*
X-0007919D01*
X-0007963Y0018221D01*
Y0018396D01*
X-0007919Y0018484D01*
X-0007657D01*
X-0008348D02*
X-0008173D01*
X-0008129Y0018396D01*
Y0018221D01*
X-0008085Y0018134D01*
X-0008391D01*
X-0008435Y0018221D01*
X-0008391Y0018309D01*
X-0008129D01*
X-0008907Y0018396D02*
X-0008645D01*
X-0008557Y0018484D01*
Y0018571D01*
X-0008645Y0018659D01*
X-0008907D01*
Y0018134D01*
X-0007325Y0012401D02*
Y0012751D01*
X-0006975Y0012401D01*
X-0006888D01*
X-0006800Y0012444D01*
Y0012707D01*
X-0006888Y0012751D01*
X-0007063Y0013004D02*
X-0007325Y0012873D01*
X-0007063Y0013223D02*
Y0012960D01*
X-0006975Y0012873D01*
X-0006888D01*
X-0006800Y0012960D01*
Y0013223D01*
X-0007325D01*
X-0008225Y0012385D02*
X-0008164Y0012446D01*
X-0008102Y0012477D01*
X-0007980D01*
X-0007919Y0012446D01*
X-0007857Y0012385D01*
Y0012324D01*
X-0007919Y0012263D01*
X-0007980Y0012232D01*
X-0008102D01*
X-0008164Y0012263D01*
X-0008225Y0012324D01*
Y0012385D01*
Y0012586D02*
Y0012831D01*
X-0007980Y0012586D01*
X-0007919D01*
X-0007857Y0012617D01*
Y0012801D01*
X-0007919Y0012831D01*
X-0008225Y0012940D02*
Y0013185D01*
X-0007980Y0012940D01*
X-0007919D01*
X-0007857Y0012971D01*
Y0013155D01*
X-0007919Y0013185D01*
X-0024019Y0017482D02*
X-0022996D01*
Y0015988D01*
X-0024019D01*
Y0017482D01*
X-0017482D02*
X-0016460D01*
Y0015988D01*
X-0017482D01*
Y0017482D01*
X-0008535Y0014435D02*
X-0007552D01*
Y0011603D01*
X-0008535D01*
Y0014435D01*
X-0024019Y0009292D02*
X-0023035D01*
Y0006460D01*
X-0024019D01*
Y0009292D01*
X-0007631Y0007788D02*
X-0008378D01*
Y0008968D01*
X-0007631D01*
Y0007788D01*
X-0011682Y0006726D02*
X-0014278D01*
Y0014475D01*
X-0011682D01*
Y0006726D01*
X-0017543Y0005389D02*
X-0020139D01*
Y0013137D01*
X-0017543D01*
Y0005389D01*
M02*
