*
G04 Mass Parameters ***
*
G04 Image ***
*
%INC:\USERS\STUDENT\DESKTOP\DISERTATIE_6_IUNIE\CABLAJE_DIVERSE\SCHEMA_BAZA_T-2.BOT*%
%ICAS*%
%MOIN*%
%IPPOS*%
%ASAXBY*%
G74*%FSLAN2X34Y34*%
*
G04 Aperture Definitions ***
*
%ADD10C,0.0472*%
%ADD11C,0.0787*%
%ADD12C,0.0630*%
%ADD13C,0.0472*%
*
G04 Plot Data ***
*
G54D13*
G01X-0016992Y0012782D02*
Y0013781D01*
X-0016144D01*
X-0015986Y0013939D01*
Y0017167D01*
X-0015829Y0017325D01*
X-0011104D01*
X-0023507Y0017718D02*
X-0022522D01*
Y0017719D01*
X-0017955D01*
Y0017718D01*
X-0016143D01*
X-0016144Y0017719D01*
X-0016931D01*
Y0017718D01*
X-0016971D01*
X-0016931D01*
Y0017719D01*
X-0016144D01*
X-0015986Y0017561D01*
Y0013939D01*
X-0016144Y0013781D01*
X-0016992D01*
Y0012782D01*
X-0011104Y0017325D02*
Y0014119D01*
X-0011131D01*
X-0010159Y0004882D02*
X-0011419Y0006142D01*
X-0014868D01*
Y0007121D01*
X-0023547Y0010158D02*
Y0011182D01*
X-0024334D01*
X-0024491Y0011340D01*
Y0016577D01*
X-0024334Y0016734D01*
X-0021971D01*
X-0021814Y0016577D01*
Y0015809D01*
X-0020848D01*
Y0015829D01*
X-0020790D01*
Y0016616D01*
X-0020632Y0016774D01*
X-0018112D01*
X-0017955Y0016616D01*
Y0015752D01*
X-0016971D01*
X-0023507D02*
Y0014805D01*
X-0022680D01*
X-0022522Y0014647D01*
Y0006851D01*
X-0022680Y0006694D01*
X-0023507D01*
Y0005634D01*
X-0019825Y0015769D02*
Y0014805D01*
X-0019766D01*
Y0011970D01*
X-0019924Y0011812D01*
X-0020711D01*
Y0011783D01*
X-0020729D01*
X-0014868Y0007121D02*
Y0006142D01*
X-0014884D01*
X-0016222Y0004804D01*
X-0019609D01*
X-0019766Y0004961D01*
Y0005783D01*
X-0020729D01*
X-0010159Y0004882D02*
X-0007985D01*
Y0004877D01*
X-0020848Y0015809D02*
Y0015829D01*
X-0020790D01*
Y0016616D01*
X-0020848Y0016558D01*
Y0014805D01*
X-0020790D01*
Y0013781D01*
X-0020729D01*
Y0012783D01*
Y0011783D02*
X-0020711D01*
Y0011812D01*
X-0022522D01*
Y0014647D01*
X-0022680Y0014805D01*
X-0023507D01*
Y0015752D01*
X-0007985Y0009440D02*
X-0007954D01*
Y0010710D01*
X-0008024D01*
Y0010777D01*
X-0008063Y0015301D02*
X-0008032D01*
X-0008063Y0015270D01*
Y0014254D01*
X-0010001D01*
X-0010159Y0014096D01*
Y0012119D01*
X-0011131D01*
X-0007985Y0004877D02*
Y0004882D01*
Y0007316D01*
X-0008063Y0015301D02*
X-0008032D01*
Y0017325D01*
G54D10*
X-0016992Y0005782D03*
Y0006782D03*
Y0007782D03*
Y0008782D03*
Y0009782D03*
Y0010782D03*
Y0011782D03*
Y0012782D03*
X-0020729Y0012783D03*
Y0011783D03*
Y0010783D03*
Y0009783D03*
Y0008783D03*
Y0007783D03*
Y0006783D03*
Y0005783D03*
X-0011131Y0007119D03*
Y0008119D03*
Y0009119D03*
Y0010119D03*
Y0011119D03*
Y0012119D03*
Y0013119D03*
Y0014119D03*
X-0014868Y0014121D03*
Y0013121D03*
Y0012121D03*
Y0011121D03*
Y0010121D03*
Y0009121D03*
Y0008121D03*
Y0007121D03*
X-0019825Y0015769D03*
X-0020848Y0015809D03*
X-0023507Y0017718D03*
Y0015752D03*
X-0016971Y0017718D03*
Y0015752D03*
G54D11*
X-0008032Y0017325D03*
X-0007985Y0004877D03*
X-0011104Y0017325D03*
X-0010159Y0004882D03*
X-0007985Y0007316D03*
Y0009440D03*
G54D12*
X-0008063Y0015301D03*
X-0008024Y0010777D03*
X-0023547Y0010158D03*
X-0023507Y0005634D03*
M02*
