%
T1C0.0315F200S100
X-023507Y015752
X-023507Y017718
X-020848Y015809
X-020729Y005783
X-020729Y006783
X-020729Y007783
X-020729Y008783
X-020729Y009783
X-020729Y010783
X-020729Y011783
X-020729Y012783
X-019825Y015769
X-016992Y005782
X-016992Y006782
X-016992Y007782
X-016992Y008782
X-016992Y009782
X-016992Y010782
X-016992Y011782
X-016992Y012782
X-016971Y015752
X-016971Y017718
X-014868Y007121
X-014868Y008121
X-014868Y009121
X-014868Y010121
X-014868Y011121
X-014868Y012121
X-014868Y013121
X-014868Y014121
X-011131Y007119
X-011131Y008119
X-011131Y009119
X-011131Y010119
X-011131Y011119
X-011131Y012119
X-011131Y013119
X-011131Y014119
T2C0.0394F200S100
X-023547Y010158
X-023507Y005634
X-011104Y017325
X-010159Y004882
X-008063Y015301
X-008032Y017325
X-008024Y010777
X-007985Y004877
X-007985Y007316
X-007985Y009440
M30
